aileron_bold-italic.sfdir

StartChar: exclam
Encoding: 33 33 250
Width: 288
Flags: MW
HStem: -14 156<90.5 125.5> 670 20G<164 299 299 299>
VStem: 28 160<54 74.5> 28 271
LayerCount: 2
Fore
SplineSet
186 197 m 1xd0
 75 197 l 1
 164 690 l 1
 299 690 l 1
 186 197 l 1xd0
119 142 m 0xe0
 162 142 188 116 188 77 c 0
 188 31 154 -14 97 -14 c 0
 54 -14 28 11 28 51 c 0
 28 98 62 142 119 142 c 0xe0
EndSplineSet
EndChar

StartChar: quotedbl
Encoding: 34 34 257
Width: 355
Flags: MW
HStem: 460 275<89 140 43 207 89 211 257 307>
VStem: 43 331<460 735>
LayerCount: 2
Fore
SplineSet
140 460 m 1
 43 460 l 1
 89 735 l 1
 207 735 l 1
 140 460 l 1
307 460 m 1
 211 460 l 1
 257 735 l 1
 374 735 l 1
 307 460 l 1
EndSplineSet
EndChar

StartChar: numbersign
Encoding: 35 35 252
Width: 625
Flags: MW
HStem: 0 21G<66 149 66 66 237 320 237 237> 209 78<76 147 62 178 261 318 76 230 432 516> 403 78<139 223 125 254 139 306 337 394 508 579> 670 20G<335 418 418 418 506 589 589 589>
VStem: 62 531<209 481>
LayerCount: 2
Fore
SplineSet
477 403 m 1
 432 287 l 1
 530 287 l 1
 516 209 l 1
 401 209 l 1
 320 0 l 1
 237 0 l 1
 318 209 l 1
 230 209 l 1
 149 0 l 1
 66 0 l 1
 147 209 l 1
 62 209 l 1
 76 287 l 1
 178 287 l 1
 223 403 l 1
 125 403 l 1
 139 481 l 1
 254 481 l 1
 335 690 l 1
 418 690 l 1
 337 481 l 1
 425 481 l 1
 506 690 l 1
 589 690 l 1
 508 481 l 1
 593 481 l 1
 579 403 l 1
 477 403 l 1
394 403 m 1
 306 403 l 1
 261 287 l 1
 349 287 l 1
 394 403 l 1
EndSplineSet
EndChar

StartChar: dollar
Encoding: 36 36 285
Width: 625
Flags: MW
HStem: -10 21G<216 216> 497 283<356 599 356 464>
VStem: 23 135<194 194> 95 134<481.5 528.5 481.5 544.5> 418 138<150.5 201.5> 464 135<497 520>
LayerCount: 2
Fore
SplineSet
404 595 m 1xd4
 370 399 l 1
 495 349 556 294 556 190 c 0
 556 66 450 -9 296 -14 c 1
 283 -90 l 1
 202 -90 l 1
 216 -10 l 1
 82 9 32 89 23 194 c 1
 158 194 l 1
 162 140 188 105 234 91 c 1xe8
 270 295 l 1
 159 335 95 386 95 491 c 0
 95 598 182 693 342 703 c 1
 356 780 l 1
 437 780 l 1
 423 700 l 1
 535 681 595 601 599 497 c 1
 464 497 l 1
 464 543 440 578 404 595 c 1xd4
229 502 m 0x98
 229 461 253 438 292 421 c 1
 325 604 l 1
 263 595 229 555 229 502 c 0x98
347 270 m 1
 314 85 l 1
 381 92 418 121 418 180 c 0
 418 223 396 249 347 270 c 1
EndSplineSet
EndChar

StartChar: percent
Encoding: 37 37 305
Width: 774
Flags: MW
HStem: -14 73<539 576.5 539 605.5> 0 21G<57 178 57 57> 242 73<557.5 594.5> 375 73<207.5 244.5 207.5 274.5> 631 73<225.5 263> 670 20G<625 745 745 745>
VStem: 77 98<490.5 545 490.5 560.5> 296 98<534 588.5> 409 97<101.5 156 101.5 171.5> 628 97<145 199.5>
LayerCount: 2
Fore
SplineSet
215 375 m 0xbac0
 131 375 77 427 77 512 c 0
 77 609 137 704 256 704 c 0
 339 704 394 652 394 567 c 0xbbc0
 394 470 334 375 215 375 c 0xbac0
745 690 m 1x76c0
 178 0 l 1
 57 0 l 1
 625 690 l 1
 745 690 l 1x76c0
247 631 m 0xbbc0
 204 631 175 579 175 511 c 0
 175 470 192 448 223 448 c 0
 266 448 296 500 296 568 c 0
 296 609 279 631 247 631 c 0xbbc0
588 315 m 0
 671 315 725 263 725 178 c 0
 725 81 665 -14 546 -14 c 0
 463 -14 409 38 409 123 c 0xbac0
 409 220 468 315 588 315 c 0
555 59 m 0xbac0
 598 59 628 111 628 179 c 0
 628 220 610 242 579 242 c 0
 536 242 506 190 506 122 c 0
 506 81 523 59 555 59 c 0xbac0
EndSplineSet
EndChar

StartChar: ampersand
Encoding: 38 38 313
Width: 674
Flags: MW
HStem: -14 103<247.5 303 247.5 308.5> 296 108<360 436 399 417 573 648> 601 103<347 409.5> 674 20G<514 514>
VStem: 15 151<141 202> 111 146<456 522 456 555>
LayerCount: 2
Fore
SplineSet
667 404 m 1xe4
 648 296 l 1
 554 296 l 1
 504 10 l 1
 434 -4 353 -14 264 -14 c 0
 124 -14 15 23 15 146 c 0xe8
 15 258 97 334 214 353 c 1
 151 372 111 421 111 489 c 0
 111 621 228 704 406 704 c 0xe4
 450 704 482 701 514 694 c 1xd4
 496 591 l 1
 456 599 429 601 390 601 c 0
 304 601 257 561 257 483 c 0
 257 429 293 408 341 405 c 0
 359 404 381 404 399 404 c 2
 436 404 l 1
 452 497 l 1
 590 497 l 1
 573 404 l 1
 667 404 l 1xe4
417 296 m 1
 371 296 l 2
 349 296 335 296 315 294 c 0
 214 287 166 242 166 172 c 0
 166 110 209 89 286 89 c 0
 320 89 344 90 381 97 c 1
 417 296 l 1
EndSplineSet
EndChar

StartChar: quotesingle
Encoding: 39 39 258
Width: 188
Flags: MW
HStem: 460 275<89 140 43 207>
VStem: 43 164
LayerCount: 2
Fore
SplineSet
140 460 m 1
 43 460 l 1
 89 735 l 1
 207 735 l 1
 140 460 l 1
EndSplineSet
EndChar

StartChar: parenleft
Encoding: 40 40 266
Width: 363
Flags: MW
HStem: -80 860<191 418 191 418>
VStem: 114 88<162 305.5 162 306>
LayerCount: 2
Fore
SplineSet
266 -80 m 1
 191 -80 l 1
 141 -5 114 93 114 218 c 0
 114 394 181 617 343 780 c 1
 418 780 l 1
 263 593 202 391 202 220 c 0
 202 104 224 4 266 -80 c 1
EndSplineSet
EndChar

StartChar: parenright
Encoding: 41 41 267
Width: 363
Flags: MW
HStem: -80 860<-25 202 -25 202>
VStem: 192 88<394.5 538>
LayerCount: 2
Fore
SplineSet
127 780 m 1
 202 780 l 1
 252 705 280 607 280 482 c 0
 280 306 213 83 50 -80 c 1
 -25 -80 l 1
 131 107 192 309 192 480 c 0
 192 596 170 696 127 780 c 1
EndSplineSet
EndChar

StartChar: asterisk
Encoding: 42 42 244
Width: 547
Flags: MW
HStem: 73 402<152 355 323 323>
VStem: 76 398<285 285>
LayerCount: 2
Fore
SplineSet
315 316 m 1
 462 373 l 1
 474 285 l 1
 324 251 l 1
 407 127 l 1
 323 73 l 1
 263 208 l 1
 152 73 l 1
 88 127 l 1
 214 251 l 1
 76 285 l 1
 120 373 l 1
 247 316 l 1
 263 475 l 1
 355 475 l 1
 315 316 l 1
EndSplineSet
EndChar

StartChar: plus
Encoding: 43 43 307
Width: 625
Flags: MW
HStem: 279 74<103 267 89 280 361 526 103 348>
VStem: 89 450<279 353>
LayerCount: 2
Fore
SplineSet
526 279 m 1
 348 279 l 1
 313 80 l 1
 232 80 l 1
 267 279 l 1
 89 279 l 1
 103 353 l 1
 280 353 l 1
 315 554 l 1
 396 554 l 1
 361 353 l 1
 539 353 l 1
 526 279 l 1
EndSplineSet
EndChar

StartChar: comma
Encoding: 44 44 248
Width: 261
Flags: MW
HStem: -122 262<-95 165 -95 165>
VStem: -95 260
LayerCount: 2
Fore
SplineSet
164 129 m 1
 18 -122 l 1
 -95 -122 l 1
 31 140 l 1
 165 140 l 1
 164 129 l 1
EndSplineSet
EndChar

StartChar: hyphen
Encoding: 45 45 271
Width: 296
Flags: MW
HStem: 244 78<39 257 25 271>
VStem: 25 246<244 322>
LayerCount: 2
Fore
SplineSet
257 244 m 1
 25 244 l 1
 39 322 l 1
 271 322 l 1
 257 244 l 1
EndSplineSet
EndChar

StartChar: period
Encoding: 46 46 253
Width: 261
Flags: MW
HStem: -14 168<65 93>
VStem: -6 170<56.5 82.5>
LayerCount: 2
Fore
SplineSet
94 154 m 0
 134 154 164 129 164 87 c 0
 164 26 122 -14 64 -14 c 0
 24 -14 -6 11 -6 52 c 0
 -6 113 36 154 94 154 c 0
EndSplineSet
EndChar

StartChar: slash
Encoding: 47 47 260
Width: 327
Flags: MW
HStem: -30 750<-65 404 -65 404>
VStem: -65 469
LayerCount: 2
Fore
SplineSet
21 -30 m 1
 -65 -30 l 1
 318 720 l 1
 404 720 l 1
 21 -30 l 1
EndSplineSet
EndChar

StartChar: zero
Encoding: 48 48 233
Width: 625
Flags: MW
HStem: -14 103<251 353 251 407> 601 103<288 389.5>
VStem: 37 148<193.5 295.5 193.5 345.5> 456 148<396.5 497.5>
LayerCount: 2
Fore
SplineSet
356 704 m 0
 526 704 604 596 604 440 c 0
 604 254 529 -14 285 -14 c 0
 114 -14 37 95 37 250 c 0
 37 441 113 704 356 704 c 0
286 89 m 0
 420 89 456 342 456 451 c 0
 456 544 424 601 355 601 c 0
 221 601 185 351 185 240 c 0
 185 147 216 89 286 89 c 0
EndSplineSet
EndChar

StartChar: one
Encoding: 49 49 234
Width: 625
Flags: MW
HStem: 0 21G<264 401 264 264> 670 20G<455 523 523 523>
VStem: 139 384<434 690>
LayerCount: 2
Fore
SplineSet
523 690 m 1
 401 0 l 1
 264 0 l 1
 360 545 l 1
 139 434 l 1
 162 564 l 1
 338 659 l 2
 379 680 416 690 455 690 c 2
 523 690 l 1
EndSplineSet
EndChar

StartChar: two
Encoding: 50 50 235
Width: 625
Flags: MW
HStem: 0 109<240 513> 602 103<345 406.5>
VStem: 462 150<495 546.5>
LayerCount: 2
Fore
SplineSet
240 109 m 1
 532 109 l 1
 513 0 l 1
 10 0 l 1
 22 65 l 1
 294 292 l 2
 416 394 462 448 462 521 c 0
 462 572 434 602 379 602 c 0
 311 602 269 563 247 476 c 1
 244 466 l 1
 106 466 l 1
 109 476 l 1
 149 629 246 705 410 705 c 0
 544 705 612 638 612 540 c 0
 612 450 562 377 390 234 c 2
 240 109 l 1
EndSplineSet
EndChar

StartChar: three
Encoding: 51 51 236
Width: 625
Flags: MW
HStem: -14 103<247 323 247 350.5> 302 96.5 601 103<345 404>
VStem: 33 138<202 202> 421 149<175.5 241> 461 150<503.5 547>
LayerCount: 2
Fore
SplineSet
453 365 m 1xf8
 529 345 570 300 570 229 c 0
 570 83 439 -14 262 -14 c 0
 107 -14 22 59 33 202 c 1
 34 212 l 1
 172 212 l 1
 171 202 l 1
 168 132 209 89 285 89 c 0
 361 89 421 138 421 213 c 0xf8
 421 269 381 300 302 302 c 1
 279 302 l 1
 296 398 l 1
 318 399 l 2
 402 402 461 452 461 524 c 0
 461 570 430 601 378 601 c 0
 312 601 266 558 251 492 c 1
 249 482 l 1
 111 482 l 1
 113 492 l 1
 143 613 234 704 411 704 c 0
 545 704 611 637 611 550 c 0xf4
 611 457 554 389 453 365 c 1xf8
EndSplineSet
EndChar

StartChar: four
Encoding: 52 52 237
Width: 625
Flags: MW
HStem: 0 21G<322 459 322 322> 163 109<191 351 508 574> 670 20G<442 588 588 588>
VStem: 18 574<163 272>
LayerCount: 2
Fore
SplineSet
574 163 m 1
 488 163 l 1
 459 0 l 1
 322 0 l 1
 351 163 l 1
 18 163 l 1
 31 237 l 1
 442 690 l 1
 588 690 l 1
 508 272 l 1
 592 272 l 1
 574 163 l 1
371 272 m 1
 422 531 l 1
 403 506 385 483 364 461 c 2
 191 272 l 1
 371 272 l 1
EndSplineSet
EndChar

StartChar: five
Encoding: 53 53 238
Width: 625
Flags: MW
HStem: -14 103<240.5 319 240.5 343> 282 107<69 224> 360 103<297 442> 582 108<285 285 285 601>
VStem: 43 138<189 199 189 199> 423 149<205.5 284.5>
LayerCount: 2
Fore
SplineSet
285 582 m 1xdc
 224 389 l 1xdc
 267 436 l 1
 303 455 339 463 379 463 c 0
 505 463 572 389 572 274 c 0
 572 87 424 -14 262 -14 c 0
 121 -14 32 50 43 189 c 1
 43 199 l 1
 181 199 l 1
 181 189 l 1
 179 124 208 89 273 89 c 0
 365 89 423 159 423 252 c 0
 423 317 389 360 324 360 c 0xbc
 270 360 231 337 198 282 c 1
 69 282 l 1
 193 690 l 1
 620 690 l 1
 601 582 l 1
 285 582 l 1xdc
EndSplineSet
EndChar

StartChar: six
Encoding: 54 54 239
Width: 625
Flags: MW
HStem: -14 103<252 324 252 346.5> 361 103<360.5 361.5> 500 204<470 480 312.5 610 470 470> 601 103<342.5 411.5>
VStem: 48 139<166 249 166 374> 426 150<207 284> 470 141<500 510 510 510>
LayerCount: 2
Fore
SplineSet
411 704 m 0xda
 549 704 619 629 611 510 c 1
 610 500 l 1xea
 470 500 l 1
 470 510 l 1
 466 572 439 601 384 601 c 0xda
 301 601 233 523 203 357 c 1
 254 424 l 1
 296 454 336 464 385 464 c 0
 515 464 576 384 576 279 c 0xdc
 576 97 424 -14 269 -14 c 0
 129 -14 48 68 48 223 c 0
 48 525 214 704 411 704 c 0xda
328 361 m 0xdc
 257 361 187 300 187 198 c 0
 187 134 221 89 283 89 c 0
 365 89 426 161 426 253 c 0
 426 315 395 361 328 361 c 0xdc
EndSplineSet
EndChar

StartChar: seven
Encoding: 55 55 240
Width: 625
Flags: MW
HStem: 0 21G<48 201 48 48> 582 108<126 467 106 654>
VStem: 48 606
LayerCount: 2
Fore
SplineSet
654 690 m 1
 641 617 l 1
 201 0 l 1
 48 0 l 1
 467 582 l 1
 106 582 l 1
 126 690 l 1
 654 690 l 1
EndSplineSet
EndChar

StartChar: eight
Encoding: 56 56 241
Width: 625
Flags: MW
HStem: -15 103<248 330 248 341> 309 102<316.5 355> 601 103<343 405.5>
VStem: 31 148<151 214> 120 142<465 521 465 549.5> 421 146<181 243.5> 462 144<492.5 546.5>
LayerCount: 2
Fore
SplineSet
462 365 m 1xf4
 521 344 567 294 567 221 c 0
 567 56 421 -15 261 -15 c 0
 125 -15 31 35 31 157 c 0xf4
 31 271 114 340 199 365 c 1
 153 384 120 424 120 486 c 0
 120 613 228 704 398 704 c 0
 533 704 606 639 606 542 c 0xea
 606 443 536 388 462 365 c 1xf4
378 601 m 0xea
 308 601 262 553 262 489 c 0
 262 441 290 411 343 411 c 0
 414 411 462 457 462 524 c 0
 462 569 433 601 378 601 c 0xea
282 88 m 0xf4
 378 88 421 145 421 217 c 0
 421 270 390 309 320 309 c 0
 232 309 179 251 179 178 c 0
 179 124 214 88 282 88 c 0xf4
EndSplineSet
EndChar

StartChar: nine
Encoding: 57 57 242
Width: 625
Flags: MW
HStem: -14 103<235 303.5 235 334> -14 204<167 177 36 334> 226 103<284.5 286.5> 601 103<322 394>
VStem: 35 142<180 190> 71 150<406 483 406 502> 459 139<441.5 524.5>
LayerCount: 2
Fore
SplineSet
378 704 m 0xb6
 518 704 598 622 598 467 c 0
 598 165 432 -14 236 -14 c 0xba
 98 -14 28 61 35 180 c 1
 36 190 l 1x7a
 177 190 l 1
 177 180 l 1
 181 118 208 89 262 89 c 0xba
 345 89 413 167 443 332 c 1
 393 266 l 1
 350 236 311 226 262 226 c 0
 132 226 71 306 71 411 c 0
 71 593 222 704 378 704 c 0xb6
318 329 m 0
 390 329 459 390 459 493 c 0
 459 556 425 601 363 601 c 0
 281 601 221 529 221 437 c 0
 221 375 251 329 318 329 c 0
EndSplineSet
EndChar

StartChar: colon
Encoding: 58 58 247
Width: 261
Flags: MW
HStem: -14 21G<51.5 100> -14 168<72 100> 379 167<141 169> 526 20G<141 190>
VStem: 1 170<56.5 82.5> 70 170<449.5 475.5>
LayerCount: 2
Fore
SplineSet
170 546 m 0x94
 210 546 240 522 240 480 c 0
 240 419 198 379 140 379 c 0xa4
 101 379 70 403 70 445 c 0
 70 506 112 546 170 546 c 0x94
101 154 m 0x58
 141 154 171 129 171 87 c 0
 171 26 129 -14 71 -14 c 0
 32 -14 1 11 1 52 c 0
 1 113 43 154 101 154 c 0x58
EndSplineSet
EndChar

StartChar: semicolon
Encoding: 59 59 259
Width: 261
Flags: MW
HStem: -122 262<-94 165 -94 165> 379 167<141 169> 526 20G<141 190>
VStem: 70 170<449.5 475.5>
LayerCount: 2
Fore
SplineSet
170 546 m 0xb0
 210 546 240 522 240 480 c 0
 240 419 198 379 140 379 c 0xd0
 101 379 70 403 70 445 c 0
 70 506 112 546 170 546 c 0xb0
162 123 m 1
 18 -122 l 1
 -94 -122 l 1
 31 140 l 1
 165 140 l 1
 162 123 l 1
EndSplineSet
EndChar

StartChar: less
Encoding: 60 60 298
Width: 625
Flags: MW
HStem: 25 481<502 586>
VStem: 95 491<212 506>
LayerCount: 2
Fore
SplineSet
569 408 m 1
 191 264 l 1
 519 119 l 1
 502 25 l 1
 95 212 l 1
 114 318 l 1
 586 506 l 1
 569 408 l 1
EndSplineSet
EndChar

StartChar: equal
Encoding: 61 61 293
Width: 625
Flags: MW
HStem: 179 74<74 519 61 532> 379 74<109 555 96 567>
VStem: 61 506<179 453>
LayerCount: 2
Fore
SplineSet
555 379 m 1
 96 379 l 1
 109 453 l 1
 567 453 l 1
 555 379 l 1
519 179 m 1
 61 179 l 1
 74 253 l 1
 532 253 l 1
 519 179 l 1
EndSplineSet
EndChar

StartChar: greater
Encoding: 62 62 294
Width: 625
Flags: MW
HStem: 25 481<29 113>
VStem: 29 491<25 318>
LayerCount: 2
Fore
SplineSet
520 318 m 1
 502 212 l 1
 29 25 l 1
 46 122 l 1
 424 266 l 1
 96 411 l 1
 113 506 l 1
 520 318 l 1
EndSplineSet
EndChar

StartChar: question
Encoding: 63 63 255
Width: 617
Flags: MW
HStem: -14 156<260.5 295.5> 601 103<344 398>
VStem: 198 160<54 74.5> 452 148<504.5 552.5>
LayerCount: 2
Fore
SplineSet
398 704 m 0
 527 704 600 643 600 548 c 0
 600 461 563 407 457 323 c 0
 397 275 374 248 358 197 c 1
 239 197 l 1
 253 266 277 300 340 360 c 0
 429 443 452 479 452 529 c 0
 452 576 423 601 373 601 c 0
 315 601 271 564 255 483 c 1
 116 483 l 1
 140 621 251 704 398 704 c 0
289 142 m 0
 332 142 358 116 358 77 c 0
 358 31 324 -14 267 -14 c 0
 224 -14 198 11 198 51 c 0
 198 98 232 142 289 142 c 0
EndSplineSet
EndChar

StartChar: at
Encoding: 64 64 315
Width: 895
Flags: MW
HStem: -121 79<333.5 456> 71 79<632 674.5 632 674.5> 71 97<334.5 432> 390 97<429.5 451 373 476> 606 79<393 559.5>
VStem: 43 87<159 367 159 378.5> 231 132<217.5 285 217.5 305> 504.82 22.18 753 87<274 423>
LayerCount: 2
Fore
SplineSet
666 469 m 1xdf80
 620 277 l 2
 609 231 608 216 608 202 c 0
 608 172 617 150 647 150 c 0
 702 150 753 212 753 336 c 0
 753 510 640 606 479 606 c 0
 307 606 130 482 130 252 c 0
 130 66 244 -42 423 -42 c 0
 507 -42 592 -18 659 30 c 1
 690 -38 l 1
 600 -98 498 -121 414 -121 c 0
 236 -121 43 -13 43 247 c 0
 43 510 251 685 483 685 c 0
 708 685 840 530 840 343 c 0
 840 147 732 71 617 71 c 0
 551 71 504 99 489 159 c 1xdf80
 462 105 l 1
 431 80 401 71 368 71 c 0xbf80
 301 71 231 110 231 236 c 0
 231 374 314 487 432 487 c 0
 470 487 500 475 514 458 c 1
 527 406 l 1
 546 469 l 1
 666 469 l 1xdf80
413 168 m 0xbf80
 451 168 478 206 488 249 c 2
 501 306 l 2
 514 365 494 390 458 390 c 0
 401 390 363 324 363 246 c 0
 363 189 384 168 413 168 c 0xbf80
EndSplineSet
EndChar

StartChar: A
Encoding: 65 65 1
Width: 680
GlyphClass: 2
Flags: MW
HStem: 0 21G<-31 118 -31 -31 488 488 488 637> 208 109<277 441 277 457 222 441> 568 122<403 403> 670 20G<335 518 518 518>
VStem: -31 668<0 0>
LayerCount: 2
Fore
SplineSet
457 208 m 1xd8
 222 208 l 1
 118 0 l 1
 -31 0 l 1
 335 690 l 1
 518 690 l 1
 637 0 l 1
 488 0 l 1
 457 208 l 1xd8
441 317 m 1
 403 568 l 1xe8
 277 317 l 1
 441 317 l 1
EndSplineSet
Position2: "'cpsp' Capital Spacing in Latin lookup 0 subtable" dx=5 dy=0 dh=10 dv=0
EndChar

StartChar: B
Encoding: 66 66 12
Width: 661
GlyphClass: 2
Flags: MW
HStem: 0 109<192 286> 304 103<245 341 226 349> 582 108<276 276 276 376>
VStem: 465 146<189 248.5> 490 149<497 532.5>
LayerCount: 2
Fore
SplineSet
501 370 m 1xf0
 574 347 611 295 611 218 c 0xf0
 611 82 488 18 383 4 c 0
 347 0 325 0 286 0 c 2
 35 0 l 1
 157 690 l 1
 404 690 l 2
 439 690 459 690 492 686 c 0
 588 674 639 618 639 541 c 0xe8
 639 453 590 397 501 370 c 1xf0
276 582 m 1
 245 407 l 1
 349 407 l 2
 366 407 382 408 399 410 c 0
 462 420 490 457 490 512 c 0
 490 553 464 574 425 579 c 0xe8
 410 581 392 582 376 582 c 2
 276 582 l 1
356 110 m 0xf0
 411 114 465 154 465 224 c 0
 465 273 433 296 390 301 c 0
 373 303 357 304 341 304 c 2
 226 304 l 1
 192 109 l 1
 310 109 l 2
 326 109 343 109 356 110 c 0xf0
EndSplineSet
Position2: "'cpsp' Capital Spacing in Latin lookup 0 subtable" dx=5 dy=0 dh=10 dv=0
EndChar

StartChar: F
Encoding: 70 70 31
Width: 591
GlyphClass: 2
Flags: MW
HStem: 0 21G<35 173 35 35> 291 109<244 540 224 559> 582 108<276 276 276 625>
VStem: 35 609
LayerCount: 2
Fore
SplineSet
276 582 m 1
 244 400 l 1
 559 400 l 1
 540 291 l 1
 224 291 l 1
 173 0 l 1
 35 0 l 1
 157 690 l 1
 644 690 l 1
 625 582 l 1
 276 582 l 1
EndSplineSet
Position2: "'cpsp' Capital Spacing in Latin lookup 0 subtable" dx=5 dy=0 dh=10 dv=0
EndChar

StartChar: G
Encoding: 71 71 32
Width: 769
GlyphClass: 2
Flags: MW
HStem: -14 103<313 356> 0 21G<529 640 529 529> 244 108<424 550 404 702> 601 103<385.5 497.5>
VStem: 59 149<220 380 220 401> 589 139<456 466 466 466>
AnchorPoint: "Anchor-0" 316 0 basechar 0
LayerCount: 2
Fore
SplineSet
472 704 m 0xbc
 659 704 738 602 728 466 c 1
 727 456 l 1
 589 456 l 1
 589 466 l 1
 588 561 543 601 452 601 c 0
 319 601 208 476 208 284 c 0
 208 156 268 89 358 89 c 0xbc
 447 89 520 147 550 244 c 1
 404 244 l 1
 424 352 l 1
 702 352 l 1
 640 0 l 1
 529 0 l 1x7c
 539 111 l 1
 496 42 l 1
 451 4 394 -14 318 -14 c 0
 155 -14 59 94 59 267 c 0
 59 535 252 704 472 704 c 0xbc
EndSplineSet
Position2: "'cpsp' Capital Spacing in Latin lookup 0 subtable" dx=5 dy=0 dh=10 dv=0
EndChar

StartChar: H
Encoding: 72 72 36
Width: 747
GlyphClass: 2
Flags: MW
HStem: 0 21G<35 173 35 35 495 633 495 495> 283 110<242 545 223 564> 670 20G<157 295 295 295 617 755 755 755>
VStem: 35 720<0 690>
LayerCount: 2
Fore
SplineSet
755 690 m 1
 633 0 l 1
 495 0 l 1
 545 283 l 1
 223 283 l 1
 173 0 l 1
 35 0 l 1
 157 690 l 1
 295 690 l 1
 242 393 l 1
 564 393 l 1
 617 690 l 1
 755 690 l 1
EndSplineSet
Position2: "'cpsp' Capital Spacing in Latin lookup 0 subtable" dx=5 dy=0 dh=10 dv=0
EndChar

StartChar: I
Encoding: 73 73 38
Width: 287
GlyphClass: 2
Flags: MW
HStem: 0 21G<35 173 35 35> 670 20G<157 295 295 295>
VStem: 35 260
LayerCount: 2
Fore
SplineSet
173 0 m 1
 35 0 l 1
 157 690 l 1
 295 690 l 1
 173 0 l 1
EndSplineSet
Position2: "'cpsp' Capital Spacing in Latin lookup 0 subtable" dx=5 dy=0 dh=10 dv=0
EndChar

StartChar: J
Encoding: 74 74 47
Width: 586
GlyphClass: 2
Flags: MW
HStem: -14 103<214.5 279 214.5 310> 670 20G<456 593 593 593>
VStem: 16.95 140
LayerCount: 2
Fore
SplineSet
593 690 m 1
 522 283 l 2
 517 254 513 232 502 188 c 0
 475 69 395 -14 225 -14 c 0
 76 -14 0 75 20 216 c 2
 25 251 l 1
 163 251 l 1
 159 216 l 2
 148 124 182 89 247 89 c 0
 311 89 349 126 367 196 c 0
 373 218 377 241 382 269 c 2
 456 690 l 1
 593 690 l 1
EndSplineSet
Position2: "'cpsp' Capital Spacing in Latin lookup 0 subtable" dx=5 dy=0 dh=10 dv=0
EndChar

StartChar: K
Encoding: 75 75 48
Width: 676
GlyphClass: 2
Flags: MW
HStem: 0 21G<35 173 35 35 453 623 453 453> 670 20G<157 295 295 295 591 756 756 756>
VStem: 35 721<0 690>
AnchorPoint: "Anchor-0" 297 0 basechar 0
LayerCount: 2
Fore
SplineSet
374 352 m 1
 623 0 l 1
 453 0 l 1
 269 282 l 1
 214 231 l 1
 173 0 l 1
 35 0 l 1
 157 690 l 1
 295 690 l 1
 238 370 l 1
 591 690 l 1
 756 690 l 1
 374 352 l 1
EndSplineSet
Position2: "'cpsp' Capital Spacing in Latin lookup 0 subtable" dx=5 dy=0 dh=10 dv=0
EndChar

StartChar: M
Encoding: 77 77 56
Width: 893
GlyphClass: 2
Flags: MW
HStem: 0 21G<35 173 35 35 325 489 325 325 641 779 641 641> 0 145<434 434 434 489 325 434> 557 133<270 270> 670 20G<157 382 382 382 672 901 901 901>
VStem: 35 866<0 690>
LayerCount: 2
Fore
SplineSet
901 690 m 1x98
 779 0 l 1
 641 0 l 1
 741 555 l 1
 489 0 l 1
 325 0 l 1
 270 557 l 1xa8
 173 0 l 1
 35 0 l 1
 157 690 l 1
 382 690 l 1
 434 145 l 1x58
 672 690 l 1
 901 690 l 1x98
EndSplineSet
Position2: "'cpsp' Capital Spacing in Latin lookup 0 subtable" dx=5 dy=0 dh=10 dv=0
EndChar

StartChar: N
Encoding: 78 78 57
Width: 755
GlyphClass: 2
Flags: MW
HStem: 0 21G<35 173 35 35 452 641 452 452> 0 153<532 532 532 641 452 532> 524 166<264 264> 670 20G<157 340 340 340 625 763 763 763>
VStem: 35 728<0 690>
AnchorPoint: "Anchor-0" 341 0 basechar 0
LayerCount: 2
Fore
SplineSet
763 690 m 1x98
 641 0 l 1
 452 0 l 1
 264 524 l 1xa8
 173 0 l 1
 35 0 l 1
 157 690 l 1
 340 690 l 1
 532 153 l 1x58
 625 690 l 1
 763 690 l 1x98
EndSplineSet
Position2: "'cpsp' Capital Spacing in Latin lookup 0 subtable" dx=5 dy=0 dh=10 dv=0
EndChar

StartChar: P
Encoding: 80 80 73
Width: 629
GlyphClass: 2
Flags: MW
HStem: 0 21G<35 173 35 35> 260 109<238 320 219 338> 581 109<275 375 275 275>
VStem: 502 146<458.5 522>
LayerCount: 2
Fore
SplineSet
490 685 m 0
 579 675 648 616 648 513 c 0
 648 363 537 278 421 265 c 0
 386 261 360 260 320 260 c 2
 219 260 l 1
 173 0 l 1
 35 0 l 1
 157 690 l 1
 391 690 l 2
 430 690 456 689 490 685 c 0
399 372 m 0
 457 381 502 420 502 497 c 0
 502 547 475 572 436 578 c 0
 421 580 399 581 375 581 c 2
 275 581 l 1
 238 369 l 1
 338 369 l 2
 362 369 382 370 399 372 c 0
EndSplineSet
Position2: "'cpsp' Capital Spacing in Latin lookup 0 subtable" dx=5 dy=0 dh=10 dv=0
EndChar

StartChar: Q
Encoding: 81 81 75
Width: 779
GlyphClass: 2
Flags: MW
HStem: -14 103<319 375.5> 5 84<319 527.5> 601 103<364.5 500>
VStem: 61 147<223.5 353 223.5 398> 611 147<346 466.5>
LayerCount: 2
Fore
SplineSet
758 411 m 0xb8
 758 281 707 161 619 99 c 1
 654 88 684 69 718 39 c 1
 644 -50 l 1
 577 -8 548 5 507 5 c 0x78
 481 5 461 2 433 -5 c 0
 410 -11 387 -14 364 -14 c 0
 162 -14 61 112 61 280 c 0
 61 516 210 704 455 704 c 0
 657 704 758 578 758 411 c 0xb8
208 282 m 0
 208 165 267 89 371 89 c 0
 539 89 611 266 611 408 c 0
 611 525 552 601 448 601 c 0
 281 601 208 424 208 282 c 0
EndSplineSet
Position2: "'cpsp' Capital Spacing in Latin lookup 0 subtable" dx=5 dy=0 dh=10 dv=0
EndChar

StartChar: S
Encoding: 83 83 80
Width: 599
GlyphClass: 2
Flags: MW
HStem: -14 103<244.5 316 244.5 342.5> 601 103<321.5 389>
VStem: 94 149<479.5 534.5 479.5 544.5> 409 150<160.5 216.5> 456 140<487 487>
AnchorPoint: "Anchor-0" 262 0 basechar 0
LayerCount: 2
Fore
SplineSet
371 704 m 0xe8
 535 704 603 610 596 487 c 1
 456 487 l 1xe8
 460 557 425 601 353 601 c 0
 290 601 243 566 243 503 c 0
 243 456 279 429 372 406 c 0
 499 375 559 314 559 219 c 0
 559 70 422 -14 263 -14 c 0
 107 -14 4 59 16 204 c 1
 156 204 l 1
 158 128 209 89 280 89 c 0
 352 89 409 128 409 193 c 0xf0
 409 240 374 272 289 294 c 0
 169 324 94 371 94 470 c 0
 94 619 225 704 371 704 c 0xe8
EndSplineSet
Position2: "'cpsp' Capital Spacing in Latin lookup 0 subtable" dx=5 dy=0 dh=10 dv=0
EndChar

StartChar: T
Encoding: 84 84 85
Width: 623
GlyphClass: 2
Flags: MW
HStem: 0 21G<210 348 210 210> 582 108<98 313 78 704 451 684 451 451>
VStem: 78 626<582 690>
AnchorPoint: "Anchor-0" 279 0 basechar 0
LayerCount: 2
Fore
SplineSet
684 582 m 1
 451 582 l 1
 348 0 l 1
 210 0 l 1
 313 582 l 1
 78 582 l 1
 98 690 l 1
 704 690 l 1
 684 582 l 1
EndSplineSet
Position2: "'cpsp' Capital Spacing in Latin lookup 0 subtable" dx=5 dy=0 dh=10 dv=0
EndChar

StartChar: V
Encoding: 86 86 99
Width: 702
GlyphClass: 2
Flags: MW
HStem: 0 21G<226 409 226 226> 0 106<337 337 337 409> 670 20G<107 257 257 257 626 776 776 776>
VStem: 107 669<690 690>
LayerCount: 2
Fore
SplineSet
409 0 m 1xb0
 226 0 l 1
 107 690 l 1
 257 690 l 1
 337 106 l 1x70
 626 690 l 1
 776 690 l 1
 409 0 l 1xb0
EndSplineSet
Position2: "'cpsp' Capital Spacing in Latin lookup 0 subtable" dx=5 dy=0 dh=10 dv=0
EndChar

StartChar: W
Encoding: 87 87 100
Width: 988
GlyphClass: 2
Flags: MW
HStem: 0 21G<156 340 156 156 580 763 580 580> 0 115<693 693 693 763 580 693> 670 20G<101 246 246 246 914 1066 1066 1066>
VStem: 569.5 117
LayerCount: 2
Fore
SplineSet
1066 690 m 1xb0
 763 0 l 1
 580 0 l 1
 559 555 l 1
 340 0 l 1
 156 0 l 1
 101 690 l 1
 246 690 l 1
 270 121 l 1
 483 680 l 1
 680 680 l 1
 693 115 l 1x70
 914 690 l 1
 1066 690 l 1xb0
EndSplineSet
Position2: "'cpsp' Capital Spacing in Latin lookup 0 subtable" dx=5 dy=0 dh=10 dv=0
EndChar

StartChar: X
Encoding: 88 88 105
Width: 669
GlyphClass: 2
Flags: MW
HStem: 0 21G<-48 116 -48 -48 459 619 459 459> 670 20G<91 246 246 246 569 729 729 729>
VStem: -48 777<0 690>
LayerCount: 2
Fore
SplineSet
424 347 m 1
 619 0 l 1
 459 0 l 1
 324 259 l 1
 116 0 l 1
 -48 0 l 1
 265 352 l 1
 91 690 l 1
 246 690 l 1
 363 440 l 1
 569 690 l 1
 729 690 l 1
 424 347 l 1
EndSplineSet
Position2: "'cpsp' Capital Spacing in Latin lookup 0 subtable" dx=5 dy=0 dh=10 dv=0
EndChar

StartChar: Y
Encoding: 89 89 106
Width: 637
GlyphClass: 2
Flags: MW
HStem: 0 21G<218 356 218 218> 670 20G<97 243 243 243 566 721 721 721>
VStem: 97 624<690 690>
LayerCount: 2
Fore
SplineSet
403 264 m 1
 356 0 l 1
 218 0 l 1
 266 269 l 1
 97 690 l 1
 243 690 l 1
 356 385 l 1
 566 690 l 1
 721 690 l 1
 403 264 l 1
EndSplineSet
Position2: "'cpsp' Capital Spacing in Latin lookup 0 subtable" dx=5 dy=0 dh=10 dv=0
EndChar

StartChar: Z
Encoding: 90 90 111
Width: 622
GlyphClass: 2
Flags: MW
HStem: 0 109<195 549> 582 108<153 477 133 666>
VStem: 3 663
LayerCount: 2
Fore
SplineSet
647 583 m 1
 195 109 l 1
 569 109 l 1
 549 0 l 1
 3 0 l 1
 21 105 l 1
 477 582 l 1
 133 582 l 1
 153 690 l 1
 666 690 l 1
 647 583 l 1
EndSplineSet
Position2: "'cpsp' Capital Spacing in Latin lookup 0 subtable" dx=5 dy=0 dh=10 dv=0
EndChar

StartChar: bracketleft
Encoding: 91 91 264
Width: 364
Flags: MW
HStem: -80 78<126 254> 702 78<250 392 250 250>
VStem: 31 375
LayerCount: 2
Fore
SplineSet
183 780 m 1
 406 780 l 1
 392 702 l 1
 250 702 l 1
 126 -2 l 1
 268 -2 l 1
 254 -80 l 1
 31 -80 l 1
 183 780 l 1
EndSplineSet
EndChar

StartChar: backslash
Encoding: 92 92 245
Width: 327
Flags: MW
HStem: -30 750<67 272 67 186>
VStem: 67 205
LayerCount: 2
Fore
SplineSet
272 -30 m 1
 186 -30 l 1
 67 720 l 1
 153 720 l 1
 272 -30 l 1
EndSplineSet
EndChar

StartChar: bracketright
Encoding: 93 93 265
Width: 364
Flags: MW
HStem: -80 78<-11 131 -11 199 -25 131> 702 78<127 256 113 351>
VStem: -25 376
LayerCount: 2
Fore
SplineSet
199 -80 m 1
 -25 -80 l 1
 -11 -2 l 1
 131 -2 l 1
 256 702 l 1
 113 702 l 1
 127 780 l 1
 351 780 l 1
 199 -80 l 1
EndSplineSet
EndChar

StartChar: asciicircum
Encoding: 94 94 314
Width: 625
Flags: MW
HStem: 215 401<67 403 67 403 308 506 308 415>
VStem: 67 439<215 215>
LayerCount: 2
Fore
SplineSet
415 215 m 1
 343 538 l 1
 160 215 l 1
 67 215 l 1
 308 616 l 1
 403 616 l 1
 506 215 l 1
 415 215 l 1
EndSplineSet
EndChar

StartChar: underscore
Encoding: 95 95 261
Width: 500
Flags: MW
HStem: -87 78<57 443 43 457>
VStem: 43 414<-87 -9>
LayerCount: 2
Fore
SplineSet
443 -87 m 1
 43 -87 l 1
 57 -9 l 1
 457 -9 l 1
 443 -87 l 1
EndSplineSet
EndChar

StartChar: grave
Encoding: 96 96 333
Width: 300
Flags: MW
HStem: 574 118<114 135 11 192 114 114>
VStem: 11 181<574 692>
LayerCount: 2
Fore
SplineSet
192 574 m 1
 114 574 l 1
 11 692 l 1
 135 692 l 1
 192 574 l 1
EndSplineSet
EndChar

StartChar: b
Encoding: 98 98 126
Width: 650
GlyphClass: 2
Flags: MW
HStem: -14 97<291 362 259.5 419> 0 83 449 97<397 407.5> 715 20G<147 285 285 285>
VStem: 481 147<255.5 358>
LayerCount: 2
Fore
SplineSet
424 546 m 0xb8
 556 546 628 464 628 333 c 0
 628 159 525 -14 313 -14 c 0
 269 -14 217 0 194 20 c 1
 168 76 l 1xb8
 155 0 l 1
 17 0 l 1x78
 147 735 l 1
 285 735 l 1
 235 451 l 1
 285 509 l 1
 319 533 370 546 424 546 c 0xb8
309 83 m 0
 415 83 481 196 481 315 c 0
 481 401 442 449 373 449 c 0
 297 449 226 401 203 272 c 1
 198 247 l 1
 196 237 l 1
 199 247 l 1
 185 163 210 83 309 83 c 0
EndSplineSet
EndChar

StartChar: d
Encoding: 100 100 132
Width: 649
GlyphClass: 2
Flags: MW
HStem: -14 97<243 254> 0 83 449 97<288.5 359 231 391> 715 20G<531 669 669 669>
VStem: 22 147<174 276.5 174 286>
LayerCount: 2
Fore
SplineSet
669 735 m 1xb8
 539 0 l 1
 401 0 l 1
 415 81 l 1x78
 365 23 l 1
 332 0 281 -14 227 -14 c 0
 94 -14 22 68 22 199 c 0
 22 373 125 546 337 546 c 0
 381 546 433 533 457 512 c 1
 482 456 l 1
 531 735 l 1
 669 735 l 1xb8
447 260 m 1
 452 286 l 1
 466 369 440 449 342 449 c 0
 235 449 169 336 169 217 c 0
 169 131 208 83 278 83 c 0xb8
 354 83 424 131 447 260 c 1
EndSplineSet
EndChar

StartChar: e
Encoding: 101 101 136
Width: 580
GlyphClass: 2
Flags: MW
HStem: -14 97<233.5 291.5 233.5 313.5> 230 90<165 417 180 417 180 541> 449 97<284 351.5>
VStem: 23 141<160 203 160 293.5> 418 140<339.5 376>
AnchorPoint: "Anchor-0" 244 0 basechar 0
LayerCount: 2
Fore
SplineSet
165 230 m 1
 164 203 l 1
 164 117 205 83 262 83 c 0
 321 83 370 116 389 173 c 1
 527 173 l 1
 484 49 378 -14 249 -14 c 0
 122 -14 23 52 23 202 c 0
 23 385 137 546 334 546 c 0
 483 546 558 454 558 336 c 0
 558 302 551 262 541 230 c 1
 165 230 l 1
320 449 m 0
 248 449 203 394 180 320 c 1
 417 320 l 1
 418 329 418 336 418 343 c 0
 418 409 383 449 320 449 c 0
EndSplineSet
EndChar

StartChar: f
Encoding: 102 102 145
Width: 315
GlyphClass: 2
Flags: MW
HStem: 0 21G<23 161 23 23> 437 91<68 100 53 116 253 346> 655 92<335.5 411>
VStem: 23 388
LayerCount: 2
Fore
SplineSet
269 600 m 0
 264 582 260 568 258 554 c 2
 253 528 l 1
 362 528 l 1
 346 437 l 1
 238 437 l 1
 161 0 l 1
 23 0 l 1
 100 437 l 1
 53 437 l 1
 68 528 l 1
 116 528 l 1
 120 550 l 2
 124 569 129 593 134 611 c 0
 160 706 223 754 313 754 c 0
 361 754 388 751 411 747 c 1
 393 651 l 1
 380 654 368 655 358 655 c 0
 313 655 281 636 269 600 c 0
EndSplineSet
EndChar

StartChar: g
Encoding: 103 103 146
Width: 649
GlyphClass: 2
Flags: MW
HStem: -216 103<203 281 203 312.5> -11 97<243 254> 449 83 449 97<288.5 359 231 391>
VStem: -5 135<-34 -33> 22 147<174 276.5 174 286>
LayerCount: 2
Fore
SplineSet
633 532 m 1xe4
 563 133 l 2
 557 100 549 59 543 30 c 0
 509 -136 407 -216 218 -216 c 0
 71 -216 -14 -151 -5 -34 c 1
 -4 -24 l 1
 131 -24 l 1
 130 -33 l 1xd8
 127 -82 167 -113 239 -113 c 0
 323 -113 383 -70 403 15 c 0
 407 35 412 57 416 80 c 2
 417 86 l 1
 365 26 l 1
 332 3 281 -11 227 -11 c 0
 94 -11 22 74 22 199 c 0
 22 373 125 546 337 546 c 0
 381 546 433 533 457 512 c 1
 482 455 l 1xd4
 496 532 l 1
 633 532 l 1xe4
278 86 m 0
 354 86 424 131 447 260 c 1
 446 251 l 1
 453 291 l 1
 452 286 l 1
 466 369 440 449 342 449 c 0
 235 449 169 336 169 217 c 0xd4
 169 131 208 86 278 86 c 0
EndSplineSet
EndChar

StartChar: h
Encoding: 104 104 150
Width: 621
GlyphClass: 2
Flags: MW
HStem: 0 21G<17 155 17 17 378 516 378 378> 449 97<353 475.5> 720 20G<147 285 285 285>
VStem: 439 144<356 450>
LayerCount: 2
Fore
SplineSet
421 546 m 0
 530 546 583 490 583 410 c 0
 583 382 580 357 570 304 c 2
 516 0 l 1
 378 0 l 1
 428 279 l 2
 435 318 439 346 439 366 c 0
 439 415 416 449 353 449 c 0
 284 448 223 389 197 241 c 2
 155 0 l 1
 17 0 l 1
 147 740 l 1
 285 740 l 1
 234 451 l 1
 286 509 l 1
 329 536 370 546 421 546 c 0
EndSplineSet
EndChar

StartChar: i
Encoding: 105 105 152
Width: 265
GlyphClass: 2
Flags: MW
HStem: 0 21G<17 155 17 17> 512 20G<112 249 249 249> 584 146<187.5 222.5>
VStem: 129 152<646.5 667.5>
LayerCount: 2
Fore
SplineSet
215 730 m 0
 256 730 281 705 281 668 c 0
 281 625 250 584 195 584 c 0
 154 584 129 608 129 646 c 0
 129 689 160 730 215 730 c 0
155 0 m 1
 17 0 l 1
 112 532 l 1
 249 532 l 1
 155 0 l 1
EndSplineSet
EndChar

StartChar: j
Encoding: 106 106 161
Width: 240
GlyphClass: 2
Flags: MW
HStem: -210 101<-110 -15.5> 512 20G<95 233 233 233> 584 146<166.5 204.5>
VStem: 108 155<642 671.5>
LayerCount: 2
Fore
SplineSet
193 730 m 0
 237 730 263 705 263 669 c 0
 263 615 231 584 178 584 c 0
 134 584 108 608 108 644 c 0
 108 699 140 730 193 730 c 0
233 532 m 1
 138 -12 l 2
 134 -32 129 -58 124 -76 c 0
 102 -160 46 -210 -77 -210 c 0
 -95 -210 -112 -209 -128 -207 c 1
 -110 -109 l 1
 -54 -115 -24 -101 -12 -61 c 0
 -7 -47 -4 -30 0 -10 c 2
 95 532 l 1
 233 532 l 1
EndSplineSet
EndChar

StartChar: k
Encoding: 107 107 162
Width: 585
GlyphClass: 2
Flags: MW
HStem: 0 21G<17 155 17 17 381 548 381 381> 512 20G<463 629 629 629> 715 20G<147 285 285 285>
VStem: 17 612<0 532>
AnchorPoint: "Anchor-0" 254 0 basechar 0
LayerCount: 2
Fore
SplineSet
350 283 m 1
 548 0 l 1
 381 0 l 1
 242 215 l 1
 184 164 l 1
 155 0 l 1
 17 0 l 1
 147 735 l 1
 285 735 l 1
 207 292 l 1
 463 532 l 1
 629 532 l 1
 350 283 l 1
EndSplineSet
EndChar

StartChar: l
Encoding: 108 108 164
Width: 280
GlyphClass: 2
Flags: MW
HStem: -7 94<99 229> 715 20G<143 281 281 281>
VStem: 29 145<39.5 127.5> 29 252
AnchorPoint: "Anchor-0" 98 0 basechar 0
LayerCount: 2
Fore
SplineSet
281 735 m 1xd0
 181 174 l 2
 177 150 174 134 174 121 c 0
 174 90 190 84 229 87 c 1
 213 -2 l 1
 189 -6 164 -7 133 -7 c 0
 65 -7 29 12 29 67 c 0
 29 90 33 119 43 171 c 2xe0
 143 735 l 1
 281 735 l 1xd0
EndSplineSet
EndChar

StartChar: m
Encoding: 109 109 170
Width: 916
GlyphClass: 2
Flags: MW
HStem: 0 21G<17 155 17 17 346 483 346 346 674 812 674 674> 449 83<111 355.5> 449 97<302.5 446>
VStem: 734 146<359.5 452>
LayerCount: 2
Fore
SplineSet
727 546 m 0xb0
 833 546 880 488 880 416 c 0
 880 388 876 361 868 317 c 2
 812 0 l 1
 674 0 l 1
 723 277 l 2
 729 314 734 346 734 373 c 0
 734 422 709 449 662 449 c 0
 606 449 551 381 532 276 c 1
 531 273 l 1
 483 0 l 1
 346 0 l 1
 394 277 l 2
 401 316 406 347 406 373 c 0
 406 422 380 449 331 449 c 0xb0
 274 449 222 382 203 273 c 2
 155 0 l 1
 17 0 l 1
 111 532 l 1
 248 532 l 1
 235 456 l 1xd0
 284 515 l 1
 319 536 356 546 404 546 c 0
 488 546 535 505 547 449 c 1
 602 511 l 1
 639 538 679 546 727 546 c 0xb0
EndSplineSet
EndChar

StartChar: n
Encoding: 110 110 171
Width: 621
GlyphClass: 2
Flags: MW
HStem: 0 21G<17 155 17 17 378 516 378 378> 449 83 449 97<353 475.5>
VStem: 439 144<356 450>
AnchorPoint: "Anchor-0" 264 0 basechar 0
LayerCount: 2
Fore
SplineSet
421 546 m 0xb0
 530 546 583 490 583 410 c 0
 583 382 580 357 570 304 c 2
 516 0 l 1
 378 0 l 1
 428 279 l 2
 435 318 439 346 439 366 c 0
 439 415 416 449 353 449 c 0xb0
 284 448 223 389 197 241 c 2
 155 0 l 1
 17 0 l 1
 111 532 l 1
 248 532 l 1
 234 451 l 1xd0
 286 509 l 1
 329 536 370 546 421 546 c 0xb0
EndSplineSet
EndChar

StartChar: p
Encoding: 112 112 187
Width: 650
GlyphClass: 2
Flags: MW
HStem: -14 97<291 362 259.5 419> 449 83 449 97<397 407.5>
VStem: 481 147<255.5 358>
LayerCount: 2
Fore
SplineSet
424 546 m 0xb0
 556 546 628 464 628 333 c 0
 628 159 525 -14 313 -14 c 0
 269 -14 217 0 194 20 c 1
 168 76 l 1
 120 -196 l 1
 -18 -196 l 1
 112 532 l 1
 249 532 l 1
 235 451 l 1xd0
 285 509 l 1
 319 533 370 546 424 546 c 0xb0
309 83 m 0
 415 83 481 196 481 315 c 0
 481 401 442 449 373 449 c 0
 297 449 226 401 203 272 c 1
 199 247 l 2
 185 163 210 83 309 83 c 0
EndSplineSet
EndChar

StartChar: q
Encoding: 113 113 189
Width: 649
GlyphClass: 2
Flags: MW
HStem: -14 97<243 254> 449 83 449 97<288.5 359 231 391>
VStem: 22 147<174 276.5 174 286>
LayerCount: 2
Fore
SplineSet
633 532 m 1xd0
 504 -196 l 1
 366 -196 l 1
 415 80 l 1
 365 23 l 1
 332 0 281 -14 227 -14 c 0
 94 -14 22 68 22 199 c 0
 22 373 125 546 337 546 c 0
 381 546 433 533 457 512 c 1
 482 455 l 1xb0
 496 532 l 1
 633 532 l 1xd0
447 260 m 1
 452 286 l 1
 466 369 440 449 342 449 c 0
 235 449 169 336 169 217 c 0
 169 131 208 83 278 83 c 0
 354 83 424 131 447 260 c 1
EndSplineSet
EndChar

StartChar: r
Encoding: 114 114 190
Width: 374
GlyphClass: 2
Flags: MW
HStem: 0 21G<17 155 17 17> 521 20G<423 423> 525 20G<370 392.5>
VStem: 17 406
AnchorPoint: "Anchor-0" 86 0 basechar 0
LayerCount: 2
Fore
SplineSet
385 545 m 0xb0
 400 545 411 544 423 541 c 1xd0
 403 430 l 1
 311 439 227 404 198 244 c 2
 155 0 l 1
 17 0 l 1
 110 530 l 1
 248 530 l 1
 231 433 l 1
 288 509 l 1
 317 533 355 545 385 545 c 0xb0
EndSplineSet
EndChar

StartChar: v
Encoding: 118 118 214
Width: 544
GlyphClass: 2
Flags: MW
HStem: 0 21G<144 303 144 144> 0 112<244 244 244 303 144 244> 512 20G<33 187 187 187 449 602 602 602>
VStem: 33 569<532 532>
LayerCount: 2
Fore
SplineSet
602 532 m 1xb0
 303 0 l 1
 144 0 l 1
 33 532 l 1
 187 532 l 1
 244 112 l 1x70
 449 532 l 1
 602 532 l 1xb0
EndSplineSet
EndChar

StartChar: x
Encoding: 120 120 220
Width: 531
GlyphClass: 2
Flags: MW
HStem: 0 21G<-56 103 -56 -56 323 484 323 323> 512 20G<46 207 207 207 418 577 577 577>
VStem: -56 633<0 532>
LayerCount: 2
Fore
SplineSet
337 265 m 1
 484 0 l 1
 323 0 l 1
 241 172 l 1
 103 0 l 1
 -56 0 l 1
 180 266 l 1
 46 532 l 1
 207 532 l 1
 278 358 l 1
 418 532 l 1
 577 532 l 1
 337 265 l 1
EndSplineSet
EndChar

StartChar: y
Encoding: 121 121 221
Width: 544
GlyphClass: 2
Flags: MW
HStem: -210 96<28.5 58.5 28.5 94> 512 20G<33 187 187 187 449 602 602 602>
VStem: -22 624
LayerCount: 2
Fore
SplineSet
602 532 m 1
 303 0 l 2
 213 -159 150 -210 38 -210 c 0
 16 -210 -3 -208 -22 -205 c 1
 -6 -111 l 1
 8 -113 21 -114 36 -114 c 0
 81 -114 114 -94 143 -39 c 1
 149 -27 l 1
 33 532 l 1
 187 532 l 1
 244 111 l 1
 449 532 l 1
 602 532 l 1
EndSplineSet
EndChar

StartChar: z
Encoding: 122 122 226
Width: 512
GlyphClass: 2
Flags: MW
HStem: 0 92<161 437> 436 92<95 344 80 523>
VStem: -20 543<0 528>
LayerCount: 2
Fore
SplineSet
507 437 m 1
 161 92 l 1
 453 92 l 1
 437 0 l 1
 -20 0 l 1
 -5 87 l 1
 344 436 l 1
 80 436 l 1
 95 528 l 1
 523 528 l 1
 507 437 l 1
EndSplineSet
EndChar

StartChar: bar
Encoding: 124 124 316
Width: 296
Flags: MW
HStem: -200 1000<13 279 13 279>
VStem: 13 266
LayerCount: 2
Fore
SplineSet
103 -200 m 1
 13 -200 l 1
 189 800 l 1
 279 800 l 1
 103 -200 l 1
EndSplineSet
EndChar

StartChar: braceright
Encoding: 125 125 263
Width: 373
Flags: MW
HStem: -80 78<6 24 24 25 -8 24> 702 78<144 148 131 177>
VStem: 107 82 149 83<426.5 443> 214 83<667 681>
LayerCount: 2
Fore
SplineSet
232 440 m 0xd0
 232 413 249 393 304 389 c 1xd0
 290 311 l 1
 211 305 188 281 189 146 c 0
 190 -32 153 -80 25 -80 c 2
 -8 -80 l 1
 6 -2 l 1
 24 -2 l 2
 86 -2 109 15 107 136 c 1xe0
 106 258 128 333 220 350 c 1
 173 359 149 385 149 427 c 0xd0
 149 459 156 495 183 564 c 0
 209 632 214 648 214 668 c 0
 214 694 194 702 148 702 c 2
 131 702 l 1
 144 780 l 1
 177 780 l 2
 257 780 297 745 297 683 c 0xe8
 297 651 291 632 261 554 c 1
 238 497 232 462 232 440 c 0xd0
EndSplineSet
EndChar

StartChar: asciitilde
Encoding: 126 126 290
Width: 625
Flags: MW
HStem: 223 85<401.5 431 401.5 442> 299 85<184 214>
VStem: 64 488<223 384>
LayerCount: 2
Fore
SplineSet
474 384 m 1x60
 552 384 l 1x60
 533 276 482 223 402 223 c 0xa0
 361 223 335 237 288 264 c 0
 248 287 226 299 202 299 c 0
 166 299 151 272 142 223 c 1
 64 223 l 1
 83 331 134 384 214 384 c 0x60
 257 384 283 369 328 343 c 0
 366 320 389 308 414 308 c 0xa0
 448 308 465 331 474 384 c 1x60
EndSplineSet
EndChar

StartChar: exclamdown
Encoding: 161 161 251
Width: 271
Flags: MW
HStem: 391 155<145.5 180.5>
VStem: 83 160<458 478.5>
LayerCount: 2
Fore
SplineSet
152 391 m 0
 109 391 83 416 83 455 c 0
 83 502 117 546 174 546 c 0
 217 546 243 521 243 481 c 0
 243 435 209 391 152 391 c 0
85 336 m 1
 196 336 l 1
 107 -158 l 1
 -28 -158 l 1
 85 336 l 1
EndSplineSet
EndChar

StartChar: cent
Encoding: 162 162 283
Width: 625
Flags: MW
HStem: -11 21G<220 220> 338 282<332 573 332 437>
VStem: 37 146<175.5 263.5 175.5 291.5> 437 136<338 392>
LayerCount: 2
Fore
SplineSet
381 440 m 1
 319 89 l 1
 359 101 390 133 409 184 c 1
 547 184 l 1
 502 65 423 -1 301 -12 c 1
 287 -90 l 1
 206 -90 l 1
 220 -11 l 1
 112 3 37 72 37 206 c 0
 37 377 142 524 318 542 c 1
 332 620 l 1
 413 620 l 1
 399 541 l 1
 518 526 573 446 573 338 c 1
 437 338 l 1
 436 393 416 427 381 440 c 1
183 206 m 0
 183 145 205 107 238 91 c 1
 300 440 l 1
 228 414 183 321 183 206 c 0
EndSplineSet
EndChar

StartChar: sterling
Encoding: 163 163 287
Width: 608
Flags: MW
HStem: 0 109<169 505> 302 73<66 114 66 135 54 114 279 279 279 456> 500 204<433 438.5 274.5 573 433 433> 601 103<315.5 375>
VStem: 100 145<461 515.5 461 536.5> 141 140<240 262> 433 140<500 500>
LayerCount: 2
Fore
SplineSet
281 273 m 0xd6
 281 207 250 144 169 109 c 1
 524 109 l 1
 505 0 l 1
 -9 0 l 1
 8 96 l 1
 113 117 141 195 141 255 c 0
 141 269 139 285 135 302 c 1
 54 302 l 1
 66 375 l 1xd6
 114 375 l 1
 106 405 100 436 100 476 c 0
 100 597 191 704 358 704 c 0xda
 519 704 566 605 573 500 c 1xea
 433 500 l 1
 430 563 403 601 347 601 c 0
 284 601 245 548 245 483 c 0
 245 439 253 412 265 375 c 1xda
 469 375 l 1
 456 302 l 1
 279 302 l 1
 280 292 281 282 281 273 c 0xd6
EndSplineSet
EndChar

StartChar: currency
Encoding: 164 164 284
Width: 625
Flags: MW
HStem: 121 78<272 307> 403 78
VStem: 132 83<272 305.5> 405 84<296 330.5 296 339>
LayerCount: 2
Fore
SplineSet
538 454 m 1
 471 396 l 1
 483 372 489 345 489 316 c 0
 489 276 474 231 444 194 c 1
 487 141 l 1
 433 95 l 1
 389 147 l 1
 361 131 327 121 287 121 c 0
 248 121 215 134 189 155 c 1
 125 102 l 1
 84 150 l 1
 150 207 l 1
 138 230 132 258 132 286 c 0
 132 325 147 370 175 407 c 1
 133 460 l 1
 189 508 l 1
 233 457 l 1
 260 472 294 482 332 481 c 0
 371 480 404 467 430 446 c 1
 498 502 l 1
 538 454 l 1
215 291 m 0
 215 235 247 199 297 199 c 0
 369 199 405 258 405 311 c 0
 405 367 372 403 322 403 c 0
 251 403 215 344 215 291 c 0
EndSplineSet
EndChar

StartChar: yen
Encoding: 165 165 288
Width: 625
Flags: MW
HStem: 0 21G<180 318 180 180> 154 78<66 207 52 221 359 501> 292 78<90 204 90 231 76 204 428 525> 670 20G<84 233 233 233 517 662 662 662>
VStem: 52 610<154 690>
LayerCount: 2
Fore
SplineSet
428 370 m 1
 539 370 l 1
 525 292 l 1
 371 292 l 1
 369 289 l 1
 359 232 l 1
 514 232 l 1
 501 154 l 1
 345 154 l 1
 318 0 l 1
 180 0 l 1
 207 154 l 1
 52 154 l 1
 66 232 l 1
 221 232 l 1
 231 292 l 1
 76 292 l 1
 90 370 l 1
 204 370 l 1
 84 690 l 1
 233 690 l 1
 320 376 l 1
 517 690 l 1
 662 690 l 1
 428 370 l 1
EndSplineSet
EndChar

StartChar: brokenbar
Encoding: 166 166 317
Width: 287
Flags: MW
HStem: 670 20G<170 251 251 251>
VStem: 20 231
LayerCount: 2
Fore
SplineSet
191 350 m 1
 110 350 l 1
 170 690 l 1
 251 690 l 1
 191 350 l 1
101 -160 m 1
 20 -160 l 1
 80 180 l 1
 161 180 l 1
 101 -160 l 1
EndSplineSet
EndChar

StartChar: section
Encoding: 167 167 324
Width: 616
Flags: MW
HStem: -174 91<221.5 270 221.5 307> 613 91<332 375.5>
VStem: 36 145<271 308.5 271 312> 139 144<510.5 553.5 507.5 567> 334 144<-34 17> 425 138<531 531> 435 144<217.5 260>
LayerCount: 2
Fore
SplineSet
579 247 m 0xd2
 579 183 537 119 455 86 c 1
 470 62 478 36 478 6 c 0
 478 -104 379 -174 235 -174 c 0
 119 -174 30 -117 19 3 c 1
 156 3 l 1
 161 -54 199 -83 244 -83 c 0
 296 -83 334 -61 334 -7 c 0
 334 41 302 69 199 106 c 0
 99 141 36 188 36 279 c 0xe8
 36 345 74 412 157 448 c 1
 145 470 139 495 139 526 c 0
 139 608 215 704 362 704 c 0
 488 704 552 635 563 531 c 1
 425 531 l 1xd4
 421 584 396 613 355 613 c 0
 309 613 283 576 283 531 c 0
 283 484 315 459 396 435 c 0
 520 398 579 341 579 247 c 0xd2
281 200 m 0xe2
 316 188 348 174 374 158 c 1
 411 169 435 197 435 238 c 0
 435 282 402 307 323 335 c 0
 291 346 262 358 238 371 c 1
 197 358 181 324 181 293 c 0
 181 249 217 222 281 200 c 0xe2
EndSplineSet
EndChar

StartChar: dieresis
Encoding: 168 168 331
Width: 300
Flags: MW
HStem: 575 122<48.5 66.5 224 242>
VStem: -5 125<624.5 647.5> 171 124<624.5 647.5>
LayerCount: 2
Fore
SplineSet
65 697 m 0
 99 697 120 678 120 646 c 0
 120 603 83 575 50 575 c 0
 15 575 -5 595 -5 626 c 0
 -5 669 32 697 65 697 c 0
241 697 m 0
 274 697 295 678 295 646 c 0
 295 603 259 575 225 575 c 0
 191 575 171 595 171 626 c 0
 171 669 207 697 241 697 c 0
EndSplineSet
EndChar

StartChar: copyright
Encoding: 169 169 318
Width: 850
Flags: MW
HStem: -42 80<335 515 335 540> 125 87<402.5 454 402.5 487.5> 497 87<397.5 456> 673 79<335 515>
VStem: 25 87<263.5 446.5 263.5 469.5> 209 128<309 399.5 309 424> 738 87<263.5 446.5>
LayerCount: 2
Fore
SplineSet
425 752 m 0
 655 752 825 584 825 355 c 0
 825 126 655 -42 425 -42 c 0
 195 -42 25 126 25 355 c 0
 25 584 195 752 425 752 c 0
425 673 m 0
 245 673 112 538 112 355 c 0
 112 172 245 38 425 38 c 0
 605 38 738 172 738 355 c 0
 738 538 605 673 425 673 c 0
433 584 m 0
 553 584 624 513 638 408 c 1
 516 408 l 1
 509 461 483 497 429 497 c 0
 366 497 337 443 337 356 c 0
 337 262 373 212 432 212 c 0
 476 212 509 243 515 301 c 1
 637 301 l 1
 618 196 550 125 425 125 c 0
 297 125 209 213 209 354 c 0
 209 494 298 584 433 584 c 0
EndSplineSet
EndChar

StartChar: guillemotleft
Encoding: 171 171 272
Width: 615
Flags: MW
HStem: 82 332<278 320 220 393 278 424 482 524>
VStem: 112 485<248 414>
LayerCount: 2
Fore
SplineSet
218 240 m 1
 320 82 l 1
 220 82 l 1
 112 248 l 1
 278 414 l 1
 393 414 l 1
 218 240 l 1
422 240 m 1
 524 82 l 1
 424 82 l 1
 316 248 l 1
 482 414 l 1
 597 414 l 1
 422 240 l 1
EndSplineSet
EndChar

StartChar: logicalnot
Encoding: 172 172 300
Width: 625
Flags: MW
HStem: 314 78<121 418 107 513>
VStem: 107 406<314 392>
LayerCount: 2
Fore
SplineSet
478 189 m 1
 397 189 l 1
 418 314 l 1
 107 314 l 1
 121 392 l 1
 513 392 l 1
 478 189 l 1
EndSplineSet
EndChar

StartChar: registered
Encoding: 174 174 323
Width: 496
Flags: MW
HStem: 344 52<186.5 288.5 186.5 296.5> 454 96 523 44<228 238 220 243> 620 43<237 251 237 237> 713 51<208.5 310.5>
VStem: 32 55<492 581.5 492 592.5> 261 58<492 519> 287 58<593.5 603.5> 410 55<526.5 616>
LayerCount: 2
Fore
SplineSet
274 764 m 0xbd80
 394 764 465 680 465 578 c 0
 465 453 370 344 223 344 c 0
 103 344 32 428 32 530 c 0
 32 655 127 764 274 764 c 0xbd80
232 396 m 0
 345 396 410 477 410 576 c 0
 410 656 356 713 265 713 c 0
 152 713 87 631 87 532 c 0
 87 452 141 396 232 396 c 0
284 662 m 0
 323 658 345 638 345 607 c 0xdd80
 345 580 328 559 294 550 c 1
 312 545 319 530 319 508 c 1
 318 491 320 472 328 454 c 1
 266 454 l 1xde80
 262 469 261 483 261 501 c 1
 262 516 253 523 238 523 c 2
 220 523 l 1
 208 454 l 1xbe80
 152 454 l 1
 189 663 l 1
 258 663 l 2
 268 663 276 663 284 662 c 0
261 568 m 0
 277 571 287 581 287 597 c 0
 287 610 279 617 269 619 c 0
 262 620 258 620 251 620 c 2
 237 620 l 1
 228 567 l 1
 243 567 l 2
 250 567 255 567 261 568 c 0
EndSplineSet
EndChar

StartChar: macron
Encoding: 175 175 335
Width: 300
Flags: MW
HStem: 592 77<20 280 7 293>
VStem: 7 286<592 669>
LayerCount: 2
Fore
SplineSet
280 592 m 1
 7 592 l 1
 20 669 l 1
 293 669 l 1
 280 592 l 1
EndSplineSet
EndChar

StartChar: degree
Encoding: 176 176 321
Width: 314
Flags: MW
HStem: 493 74<200 230 200 249.5> 675 74<210 240>
VStem: 87 80<598.5 633 598.5 647.5> 273 80<610 644.5>
LayerCount: 2
Fore
SplineSet
234 749 m 0
 308 749 353 701 353 636 c 0
 353 553 292 493 207 493 c 0
 132 493 87 542 87 606 c 0
 87 689 148 749 234 749 c 0
227 675 m 0
 193 675 167 652 167 614 c 0
 167 583 187 567 213 567 c 0
 247 567 273 591 273 629 c 0
 273 660 253 675 227 675 c 0
EndSplineSet
EndChar

StartChar: plusminus
Encoding: 177 177 308
Width: 625
Flags: MW
HStem: 0 74<69 465 56 478> 279 78<119 269 105 283 364 514 119 350>
VStem: 56 472<0 357>
LayerCount: 2
Fore
SplineSet
528 357 m 1
 514 279 l 1
 350 279 l 1
 322 119 l 1
 241 119 l 1
 269 279 l 1
 105 279 l 1
 119 357 l 1
 283 357 l 1
 311 515 l 1
 392 515 l 1
 364 357 l 1
 528 357 l 1
69 74 m 1
 478 74 l 1
 465 0 l 1
 56 0 l 1
 69 74 l 1
EndSplineSet
EndChar

StartChar: acute
Encoding: 180 180 326
Width: 300
Flags: MW
HStem: 574 118<94 317 94 317>
VStem: 94 223<574 692>
LayerCount: 2
Fore
SplineSet
172 574 m 1
 94 574 l 1
 193 692 l 1
 317 692 l 1
 172 574 l 1
EndSplineSet
EndChar

StartChar: paragraph
Encoding: 182 182 322
Width: 592
Flags: MW
HStem: 612 78<406 509 406 406>
VStem: 78 526<441.5 690>
LayerCount: 2
Fore
SplineSet
604 690 m 1
 462 -110 l 1
 381 -110 l 1
 509 612 l 1
 406 612 l 1
 277 -110 l 1
 196 -110 l 1
 272 320 l 1
 262 320 l 2
 244 320 223 320 206 321 c 0
 121 326 78 403 78 480 c 0
 78 565 135 681 271 689 c 0
 289 690 310 690 328 690 c 2
 604 690 l 1
EndSplineSet
EndChar

StartChar: periodcentered
Encoding: 183 183 254
Width: 245
Flags: MW
HStem: 219 172<116.5 144.5>
VStem: 43 175<293 317.5>
LayerCount: 2
Fore
SplineSet
146 391 m 0
 187 391 218 366 218 324 c 0
 218 262 174 219 115 219 c 0
 75 219 43 244 43 287 c 0
 43 348 87 391 146 391 c 0
EndSplineSet
EndChar

StartChar: cedilla
Encoding: 184 184 329
Width: 300
Flags: MW
HStem: -210 57<83 114 82.5 138.5> -84 93<69 204>
VStem: 160 86<-127.5 -102.5>
LayerCount: 2
Fore
SplineSet
204 9 m 1
 169 -41 l 1
 219 -49 246 -75 246 -113 c 0
 246 -180 178 -210 99 -210 c 0
 67 -210 44 -208 27 -202 c 1
 38 -146 l 1
 56 -152 73 -153 92 -153 c 0
 136 -153 160 -139 160 -116 c 0
 160 -89 124 -78 69 -84 c 1
 132 9 l 1
 204 9 l 1
EndSplineSet
EndChar

StartChar: guillemotright
Encoding: 187 187 273
Width: 622
Flags: MW
HStem: 82 332<85 127 12 185 85 216 289 331>
VStem: 12 485<82 248>
LayerCount: 2
Fore
SplineSet
293 248 m 1
 127 82 l 1
 12 82 l 1
 187 257 l 1
 85 414 l 1
 185 414 l 1
 293 248 l 1
497 248 m 1
 331 82 l 1
 216 82 l 1
 391 257 l 1
 289 414 l 1
 389 414 l 1
 497 248 l 1
EndSplineSet
EndChar

StartChar: questiondown
Encoding: 191 191 256
Width: 529
Flags: MW
HStem: -172 103<175 229 175 248> 391 155<277 312.5>
VStem: -27 147<-20.5 28 -20.5 28> 214 161<336 501 458 478.5>
LayerCount: 2
Fore
SplineSet
284 391 m 0
 241 391 214 416 214 455 c 0
 214 502 248 546 306 546 c 0
 349 546 375 521 375 481 c 0
 375 435 341 391 284 391 c 0
174 -172 m 0
 46 -172 -27 -111 -27 -16 c 0
 -27 72 9 125 116 209 c 0
 176 257 199 285 214 336 c 1
 333 336 l 1
 319 266 296 232 232 173 c 0
 143 90 120 53 120 3 c 0
 120 -44 150 -69 200 -69 c 0
 258 -69 302 -32 318 49 c 1
 457 49 l 1
 432 -89 322 -172 174 -172 c 0
EndSplineSet
EndChar

StartChar: Agrave
Encoding: 192 192 6
Width: 680
GlyphClass: 2
Flags: MW
HStem: 0 21G<-31 118 -31 -31 488 488 488 637> 208 109<277 441 277 457 222 441> 568 122<403 403> 670 20G<335 518 518 518> 735 112<407 407 407 430 306 485>
VStem: -31 668<0 0>
LayerCount: 2
Fore
SplineSet
407 735 m 1xdc
 306 847 l 1
 430 847 l 1
 485 735 l 1
 407 735 l 1xdc
457 208 m 1
 222 208 l 1
 118 0 l 1
 -31 0 l 1
 335 690 l 1
 518 690 l 1
 637 0 l 1
 488 0 l 1
 457 208 l 1
441 317 m 1
 403 568 l 1xec
 277 317 l 1
 441 317 l 1
EndSplineSet
Position2: "'cpsp' Capital Spacing in Latin lookup 0 subtable" dx=5 dy=0 dh=10 dv=0
EndChar

StartChar: Atilde
Encoding: 195 195 10
Width: 680
GlyphClass: 2
Flags: MW
HStem: 0 21G<-31 118 -31 -31 488 488 488 637> 208 109<277 441 277 457 222 441> 568 122<403 403> 670 20G<335 518 518 518> 742 106<525 533> 746 105<363 371 301 398>
VStem: -31 668<0 0>
LayerCount: 2
Fore
SplineSet
392 772 m 0xd6
 382 772 374 764 371 746 c 1
 301 746 l 1
 315 822 339 851 387 851 c 0xd6
 409 851 426 848 460 834 c 0
 483 825 495 822 505 822 c 0
 515 822 522 829 525 848 c 1
 595 848 l 1
 581 771 557 742 509 742 c 0xda
 488 742 471 745 436 760 c 1
 414 768 403 772 392 772 c 0xd6
457 208 m 1
 222 208 l 1
 118 0 l 1
 -31 0 l 1
 335 690 l 1
 518 690 l 1
 637 0 l 1
 488 0 l 1
 457 208 l 1
441 317 m 1
 403 568 l 1xe6
 277 317 l 1
 441 317 l 1
EndSplineSet
Position2: "'cpsp' Capital Spacing in Latin lookup 0 subtable" dx=5 dy=0 dh=10 dv=0
EndChar

StartChar: Adieresis
Encoding: 196 196 5
Width: 680
GlyphClass: 2
Flags: MW
HStem: 0 21G<-31 118 -31 -31 488 488 488 637> 208 109<277 441 277 457 222 441> 568 122<403 403> 670 20G<335 518 518 518> 729 121<351 369.5 524 542.5>
VStem: 298 124<778 801.5> 471 124<778 801.5>
LayerCount: 2
Fore
SplineSet
353 729 m 0xde
 318 729 298 749 298 780 c 0
 298 823 334 850 368 850 c 0
 401 850 422 831 422 799 c 0
 422 757 386 729 353 729 c 0xde
526 729 m 0
 491 729 471 749 471 780 c 0
 471 823 507 850 541 850 c 0
 574 850 595 831 595 799 c 0
 595 757 559 729 526 729 c 0
457 208 m 1
 222 208 l 1
 118 0 l 1
 -31 0 l 1
 335 690 l 1
 518 690 l 1
 637 0 l 1
 488 0 l 1
 457 208 l 1
441 317 m 1
 403 568 l 1xee
 277 317 l 1
 441 317 l 1
EndSplineSet
Position2: "'cpsp' Capital Spacing in Latin lookup 0 subtable" dx=5 dy=0 dh=10 dv=0
EndChar

StartChar: Aring
Encoding: 197 197 9
Width: 680
GlyphClass: 2
Flags: MW
HStem: 0 21G<-31 118 -31 -31 488 488 488 637> 208 109<277 441 277 457 222 441> 568 122<403 403> 670 20G<335 518 518 518> 719 53<434 456 434 472> 853 53<446 468>
VStem: 343 69<794.5 819 794.5 832.5> 490 69<806 830.5>
LayerCount: 2
Fore
SplineSet
437 719 m 0xdf
 380 719 343 754 343 800 c 0
 343 865 395 906 464 906 c 0
 522 906 559 871 559 825 c 0
 559 761 507 719 437 719 c 0xdf
458 853 m 0
 434 853 412 834 412 804 c 0
 412 785 424 772 444 772 c 0
 468 772 490 791 490 821 c 0
 490 840 478 853 458 853 c 0
457 208 m 1
 222 208 l 1
 118 0 l 1
 -31 0 l 1
 335 690 l 1
 518 690 l 1xd7
 637 0 l 1
 488 0 l 1
 457 208 l 1
441 317 m 1
 403 568 l 1xe7
 277 317 l 1
 441 317 l 1
EndSplineSet
Position2: "'cpsp' Capital Spacing in Latin lookup 0 subtable" dx=5 dy=0 dh=10 dv=0
EndChar

StartChar: AE
Encoding: 198 198 11
Width: 966
GlyphClass: 2
Flags: MW
HStem: 0 109<565 887> 225 108<302 438 227 447> 291 109<590 904 580 923> 582 108<605 605 605 979>
VStem: -85 1084<0 690>
LayerCount: 2
Fore
SplineSet
605 582 m 1xb8
 590 400 l 1
 923 400 l 1
 904 291 l 1
 580 291 l 1xb8
 565 109 l 1
 906 109 l 1
 887 0 l 1
 418 0 l 1
 438 225 l 1
 227 225 l 1xd8
 69 0 l 1
 -85 0 l 1
 418 690 l 1
 999 690 l 1
 979 582 l 1
 605 582 l 1xb8
447 333 m 1xd8
 468 570 l 1
 302 333 l 1
 447 333 l 1xd8
EndSplineSet
Position2: "'cpsp' Capital Spacing in Latin lookup 0 subtable" dx=5 dy=0 dh=10 dv=0
EndChar

StartChar: Egrave
Encoding: 200 200 28
Width: 612
GlyphClass: 2
Flags: MW
HStem: 0 109<192 532> 291 109<244 550 224 569> 582 108<276 276 276 625> 735 112<384 384 384 407 283 462>
VStem: 35 609
AnchorPoint: "Anchor-0" 264 0 basechar 0
LayerCount: 2
Fore
SplineSet
384 735 m 1
 283 847 l 1
 407 847 l 1
 462 735 l 1
 384 735 l 1
276 582 m 1
 244 400 l 1
 569 400 l 1
 550 291 l 1
 224 291 l 1
 192 109 l 1
 552 109 l 1
 532 0 l 1
 35 0 l 1
 157 690 l 1
 644 690 l 1
 625 582 l 1
 276 582 l 1
EndSplineSet
Position2: "'cpsp' Capital Spacing in Latin lookup 0 subtable" dx=5 dy=0 dh=10 dv=0
EndChar

StartChar: Ecircumflex
Encoding: 202 202 25
Width: 612
GlyphClass: 2
Flags: MW
HStem: 0 109<192 532> 291 109<244 550 224 569> 582 108<276 276 276 625> 735 112<380 383 296 488 446 446 446 488 380 533>
VStem: 35 609
AnchorPoint: "Anchor-0" 264 0 basechar 0
LayerCount: 2
Fore
SplineSet
383 735 m 1
 296 735 l 1
 380 847 l 1
 488 847 l 1
 533 735 l 1
 446 735 l 1
 426 799 l 1
 383 735 l 1
276 582 m 1
 244 400 l 1
 569 400 l 1
 550 291 l 1
 224 291 l 1
 192 109 l 1
 552 109 l 1
 532 0 l 1
 35 0 l 1
 157 690 l 1
 644 690 l 1
 625 582 l 1
 276 582 l 1
EndSplineSet
Position2: "'cpsp' Capital Spacing in Latin lookup 0 subtable" dx=5 dy=0 dh=10 dv=0
EndChar

StartChar: Edieresis
Encoding: 203 203 26
Width: 612
GlyphClass: 2
Flags: MW
HStem: 0 109<192 532> 291 109<244 550 224 569> 582 108<276 276 276 625> 729 121<327 345.5 500 518.5>
VStem: 274 124<778 801.5> 447 124<778 801.5>
AnchorPoint: "Anchor-0" 264 0 basechar 0
LayerCount: 2
Fore
SplineSet
329 729 m 0
 294 729 274 749 274 780 c 0
 274 823 310 850 344 850 c 0
 377 850 398 831 398 799 c 0
 398 757 362 729 329 729 c 0
502 729 m 0
 467 729 447 749 447 780 c 0
 447 823 483 850 517 850 c 0
 550 850 571 831 571 799 c 0
 571 757 535 729 502 729 c 0
276 582 m 1
 244 400 l 1
 569 400 l 1
 550 291 l 1
 224 291 l 1
 192 109 l 1
 552 109 l 1
 532 0 l 1
 35 0 l 1
 157 690 l 1
 644 690 l 1
 625 582 l 1
 276 582 l 1
EndSplineSet
Position2: "'cpsp' Capital Spacing in Latin lookup 0 subtable" dx=5 dy=0 dh=10 dv=0
EndChar

StartChar: Igrave
Encoding: 204 204 44
Width: 287
GlyphClass: 2
Flags: MW
HStem: 0 21G<35 173 35 35> 670 20G<157 295 295 295> 735 112<203 226 102 281 203 203>
VStem: 35 260
LayerCount: 2
Fore
SplineSet
281 735 m 1
 203 735 l 1
 102 847 l 1
 226 847 l 1
 281 735 l 1
173 0 m 1
 35 0 l 1
 157 690 l 1
 295 690 l 1
 173 0 l 1
EndSplineSet
Position2: "'cpsp' Capital Spacing in Latin lookup 0 subtable" dx=5 dy=0 dh=10 dv=0
EndChar

StartChar: Iacute
Encoding: 205 205 40
Width: 287
GlyphClass: 2
Flags: MW
HStem: 0 21G<35 173 35 35> 670 20G<157 295 295 295> 735 112<189 406 189 406>
VStem: 35 371
LayerCount: 2
Fore
SplineSet
267 735 m 1
 189 735 l 1
 282 847 l 1
 406 847 l 1
 267 735 l 1
173 0 m 1
 35 0 l 1
 157 690 l 1
 295 690 l 1
 173 0 l 1
EndSplineSet
Position2: "'cpsp' Capital Spacing in Latin lookup 0 subtable" dx=5 dy=0 dh=10 dv=0
EndChar

StartChar: Icircumflex
Encoding: 206 206 41
Width: 287
GlyphClass: 2
Flags: MW
HStem: 0 21G<35 173 35 35> 670 20G<157 295 295 295> 735 112<200 203 116 308 266 266 266 308 200 353>
VStem: 35 318
LayerCount: 2
Fore
SplineSet
203 735 m 1
 116 735 l 1
 200 847 l 1
 308 847 l 1
 353 735 l 1
 266 735 l 1
 246 799 l 1
 203 735 l 1
157 690 m 1
 295 690 l 1
 173 0 l 1
 35 0 l 1
 157 690 l 1
EndSplineSet
Position2: "'cpsp' Capital Spacing in Latin lookup 0 subtable" dx=5 dy=0 dh=10 dv=0
EndChar

StartChar: Idieresis
Encoding: 207 207 42
Width: 287
GlyphClass: 2
Flags: MW
HStem: 0 21G<35 173 35 35> 670 20G<157 295 295 295> 729 121<147 165.5 320 338.5>
VStem: 94 124<778 801.5> 267 124<778 801.5>
LayerCount: 2
Fore
SplineSet
164 850 m 0
 197 850 218 831 218 799 c 0
 218 757 182 729 149 729 c 0
 114 729 94 749 94 780 c 0
 94 823 130 850 164 850 c 0
337 850 m 0
 370 850 391 831 391 799 c 0
 391 757 355 729 322 729 c 0
 287 729 267 749 267 780 c 0
 267 823 303 850 337 850 c 0
173 0 m 1
 35 0 l 1
 157 690 l 1
 295 690 l 1
 173 0 l 1
EndSplineSet
Position2: "'cpsp' Capital Spacing in Latin lookup 0 subtable" dx=5 dy=0 dh=10 dv=0
EndChar

StartChar: Eth
Encoding: 208 208 19
Width: 728
GlyphClass: 2
Flags: MW
HStem: 0 109<192 262> 298 78<26 88 12 101 239 336> 582 108<276 354 276 276>
VStem: 564 148<322.5 452>
LayerCount: 2
Fore
SplineSet
467 686 m 0
 604 672 712 581 712 395 c 0
 712 204 593 26 351 3 c 0
 315 0 296 0 262 0 c 2
 35 0 l 1
 88 298 l 1
 12 298 l 1
 26 376 l 1
 101 376 l 1
 157 690 l 1
 375 690 l 2
 411 690 433 690 467 686 c 0
344 111 m 0
 497 130 564 254 564 391 c 0
 564 513 506 569 423 579 c 0
 401 581 382 582 354 582 c 2
 276 582 l 1
 239 376 l 1
 350 376 l 1
 336 298 l 1
 225 298 l 1
 192 109 l 1
 273 109 l 2
 301 109 321 109 344 111 c 0
EndSplineSet
Position2: "'cpsp' Capital Spacing in Latin lookup 0 subtable" dx=5 dy=0 dh=10 dv=0
EndChar

StartChar: Ntilde
Encoding: 209 209 62
Width: 755
GlyphClass: 2
Flags: MW
HStem: 0 21G<35 173 35 35 452 641 452 452> 0 153<532 532 532 641 452 532> 524 166<264 264> 670 20G<157 340 340 340 625 763 763 763> 742 106<558 566> 746 105<396 404 334 431>
VStem: 35 728<0 690>
AnchorPoint: "Anchor-0" 341 0 basechar 0
LayerCount: 2
Fore
SplineSet
425 772 m 0x96
 415 772 407 764 404 746 c 1
 334 746 l 1
 348 822 372 851 420 851 c 0x96
 442 851 459 848 493 834 c 0
 516 825 528 822 538 822 c 0
 548 822 555 829 558 848 c 1
 628 848 l 1
 614 771 590 742 542 742 c 0x9a
 521 742 504 745 469 760 c 1
 447 768 436 772 425 772 c 0x96
763 690 m 1
 641 0 l 1
 452 0 l 1
 264 524 l 1xa6
 173 0 l 1
 35 0 l 1
 157 690 l 1
 340 690 l 1
 532 153 l 1x56
 625 690 l 1
 763 690 l 1
EndSplineSet
Position2: "'cpsp' Capital Spacing in Latin lookup 0 subtable" dx=5 dy=0 dh=10 dv=0
EndChar

StartChar: Otilde
Encoding: 213 213 71
Width: 781
GlyphClass: 2
Flags: MW
HStem: -14 103<325 461 325 491.5> 601 103<366 501.5> 742 106<570 578> 746 105<408 416 346 443>
VStem: 62 147<229 358.5 229 403> 618 147<331.5 461>
LayerCount: 2
Fore
SplineSet
437 772 m 0xdc
 427 772 419 764 416 746 c 1
 346 746 l 1
 360 822 384 851 432 851 c 0xdc
 454 851 471 848 505 834 c 0
 528 825 540 822 550 822 c 0
 560 822 567 829 570 848 c 1
 640 848 l 1
 626 771 602 742 554 742 c 0xec
 533 742 516 745 481 760 c 1
 459 768 448 772 437 772 c 0xdc
458 704 m 0
 656 704 765 572 765 405 c 0
 765 169 614 -14 369 -14 c 0
 171 -14 62 118 62 285 c 0
 62 521 213 704 458 704 c 0
380 89 m 0
 542 89 618 261 618 402 c 0
 618 520 556 601 447 601 c 0
 285 601 209 429 209 288 c 0
 209 170 270 89 380 89 c 0
EndSplineSet
Position2: "'cpsp' Capital Spacing in Latin lookup 0 subtable" dx=5 dy=0 dh=10 dv=0
EndChar

StartChar: Odieresis
Encoding: 214 214 66
Width: 781
GlyphClass: 2
Flags: MW
HStem: -14 103<325 461 325 491.5> 601 103<366 501.5> 729 121<396 414.5 569 587.5>
VStem: 62 147<229 358.5 229 403> 343 124<778 801.5> 516 124<778 801.5> 618 147<331.5 461>
LayerCount: 2
Fore
SplineSet
398 729 m 0xfc
 363 729 343 749 343 780 c 0
 343 823 379 850 413 850 c 0
 446 850 467 831 467 799 c 0
 467 757 431 729 398 729 c 0xfc
571 729 m 0
 536 729 516 749 516 780 c 0
 516 823 552 850 586 850 c 0
 619 850 640 831 640 799 c 0
 640 757 604 729 571 729 c 0
458 704 m 0xd2
 656 704 765 572 765 405 c 0
 765 169 614 -14 369 -14 c 0
 171 -14 62 118 62 285 c 0
 62 521 213 704 458 704 c 0xd2
380 89 m 0
 542 89 618 261 618 402 c 0
 618 520 556 601 447 601 c 0
 285 601 209 429 209 288 c 0
 209 170 270 89 380 89 c 0
EndSplineSet
Position2: "'cpsp' Capital Spacing in Latin lookup 0 subtable" dx=5 dy=0 dh=10 dv=0
EndChar

StartChar: multiply
Encoding: 215 215 302
Width: 625
Flags: MW
HStem: 119 406<141 485>
VStem: 86 454<186 458>
LayerCount: 2
Fore
SplineSet
375 317 m 1
 487 181 l 1
 419 124 l 1
 307 260 l 1
 141 119 l 1
 86 186 l 1
 252 327 l 1
 139 464 l 1
 207 521 l 1
 320 384 l 1
 485 525 l 1
 540 458 l 1
 375 317 l 1
EndSplineSet
EndChar

StartChar: Oslash
Encoding: 216 216 70
Width: 778
GlyphClass: 2
Flags: MW
HStem: -14 103<351 463 351 493> -2 21G<57 57> 519 20G<580 580> 601 103<367 477> 672 20G<760 760>
VStem: 64 147<278 358.5 278 403> 620 146<331.5 414>
LayerCount: 2
Fore
SplineSet
807 635 m 1xae
 726 566 l 1
 752 520 766 465 766 405 c 0
 766 169 615 -14 371 -14 c 0
 272 -14 196 19 144 72 c 1xb6
 57 -2 l 1
 10 55 l 1
 100 132 l 1
 76 176 64 229 64 285 c 0
 64 521 215 704 460 704 c 0
 555 704 629 674 680 624 c 1x76
 760 692 l 1
 807 635 l 1xae
211 288 m 0
 211 268 213 248 216 230 c 1
 580 539 l 1
 551 578 506 601 448 601 c 0
 286 601 211 429 211 288 c 0
620 402 m 0
 620 426 617 449 612 470 c 1
 245 158 l 1
 274 115 320 89 382 89 c 0
 544 89 620 261 620 402 c 0
EndSplineSet
Position2: "'cpsp' Capital Spacing in Latin lookup 0 subtable" dx=5 dy=0 dh=10 dv=0
EndChar

StartChar: Uacute
Encoding: 218 218 91
Width: 703
GlyphClass: 2
Flags: MW
HStem: -14 103<299 381.5 299 422> 670 20G<155 293 293 293 587 725 725 725> 735 112<404 621 404 621>
VStem: 73 138<164 201>
LayerCount: 2
Fore
SplineSet
482 735 m 1
 404 735 l 1
 497 847 l 1
 621 847 l 1
 482 735 l 1
725 690 m 1
 655 292 l 2
 649 258 645 237 637 206 c 0
 605 72 518 -14 326 -14 c 0
 155 -14 73 65 73 184 c 0
 73 218 77 247 86 301 c 2
 155 690 l 1
 293 690 l 1
 219 270 l 2
 213 237 211 221 211 199 c 0
 211 129 260 89 338 89 c 0
 425 89 478 123 502 217 c 0
 506 232 509 247 513 267 c 2
 587 690 l 1
 725 690 l 1
EndSplineSet
Position2: "'cpsp' Capital Spacing in Latin lookup 0 subtable" dx=5 dy=0 dh=10 dv=0
EndChar

StartChar: Ucircumflex
Encoding: 219 219 92
Width: 703
GlyphClass: 2
Flags: MW
HStem: -14 103<299 381.5 299 422> 670 20G<155 293 293 293 587 725 725 725> 735 112<414 417 330 522 480 480 480 522 414 567>
VStem: 73 138<164 201>
LayerCount: 2
Fore
SplineSet
417 735 m 1
 330 735 l 1
 414 847 l 1
 522 847 l 1
 567 735 l 1
 480 735 l 1
 460 799 l 1
 417 735 l 1
725 690 m 1
 655 292 l 2
 649 258 645 237 637 206 c 0
 605 72 518 -14 326 -14 c 0
 155 -14 73 65 73 184 c 0
 73 218 77 247 86 301 c 2
 155 690 l 1
 293 690 l 1
 219 270 l 2
 213 237 211 221 211 199 c 0
 211 129 260 89 338 89 c 0
 425 89 478 123 502 217 c 0
 506 232 509 247 513 267 c 2
 587 690 l 1
 725 690 l 1
EndSplineSet
Position2: "'cpsp' Capital Spacing in Latin lookup 0 subtable" dx=5 dy=0 dh=10 dv=0
EndChar

StartChar: Udieresis
Encoding: 220 220 93
Width: 703
GlyphClass: 2
Flags: MW
HStem: -14 103<299 381.5 299 422> 670 20G<155 293 293 293 587 725 725 725> 729 121<361 379.5 534 552.5>
VStem: 73 138<164 201> 308 124<778 801.5> 481 124<778 801.5>
LayerCount: 2
Fore
SplineSet
378 850 m 0
 411 850 432 831 432 799 c 0
 432 757 396 729 363 729 c 0
 328 729 308 749 308 780 c 0
 308 823 344 850 378 850 c 0
551 850 m 0
 584 850 605 831 605 799 c 0
 605 757 569 729 536 729 c 0
 501 729 481 749 481 780 c 0
 481 823 517 850 551 850 c 0
725 690 m 1
 655 292 l 2
 649 258 645 237 637 206 c 0
 605 72 518 -14 326 -14 c 0
 155 -14 73 65 73 184 c 0
 73 218 77 247 86 301 c 2
 155 690 l 1
 293 690 l 1
 219 270 l 2
 213 237 211 221 211 199 c 0
 211 129 260 89 338 89 c 0
 425 89 478 123 502 217 c 0
 506 232 509 247 513 267 c 2
 587 690 l 1
 725 690 l 1
EndSplineSet
Position2: "'cpsp' Capital Spacing in Latin lookup 0 subtable" dx=5 dy=0 dh=10 dv=0
EndChar

StartChar: Thorn
Encoding: 222 222 74
Width: 630
GlyphClass: 2
Flags: MW
HStem: 0 21G<35 173 35 35> 191 109<226 315 207 324> 493 109<279 358 260 387> 493 197<260 295 157 358 260 260>
VStem: 487 147<434.5 440.5>
LayerCount: 2
Fore
SplineSet
487 597 m 0xe8
 572 587 634 537 634 441 c 0
 634 428 633 413 630 397 c 0
 608 273 518 208 416 195 c 0
 381 191 355 191 315 191 c 2
 207 191 l 1
 173 0 l 1
 35 0 l 1
 157 690 l 1
 295 690 l 1xd8
 279 602 l 1
 387 602 l 2
 427 602 453 601 487 597 c 0xe8
485 396 m 0xd8
 487 404 487 411 487 418 c 0
 487 463 459 484 418 490 c 0
 403 492 383 493 358 493 c 2
 260 493 l 1
 226 300 l 1
 324 300 l 2
 349 300 370 301 386 303 c 0
 434 310 474 336 485 396 c 0xd8
EndSplineSet
Position2: "'cpsp' Capital Spacing in Latin lookup 0 subtable" dx=5 dy=0 dh=10 dv=0
EndChar

StartChar: germandbls
Encoding: 223 223 199
Width: 619
GlyphClass: 2
Flags: MW
HStem: -4 102<344 388 344 442.5> 0 21G<17 155 17 17> 651 103<339 413.5>
VStem: 351 144<372 402 372 410> 447 146<155 187.5> 471 147<571.5 601.5>
LayerCount: 2
Fore
SplineSet
402 754 m 0x64
 545 754 618 684 618 591 c 0xa4
 618 552 606 512 572 468 c 1
 515 442 495 419 495 385 c 0xb0
 495 359 505 336 534 306 c 0
 576 262 593 221 593 171 c 0
 593 78 519 -4 366 -4 c 0
 317 -4 286 -1 248 7 c 1
 267 111 l 1
 309 100 333 98 355 98 c 0
 421 98 447 135 447 175 c 0xa8
 447 200 436 228 408 259 c 0
 369 304 351 333 351 383 c 0xb0
 351 437 381 477 450 514 c 1
 467 540 471 561 471 580 c 0
 471 623 444 651 383 651 c 0
 295 651 257 581 236 461 c 2
 155 0 l 1
 17 0 l 1
 97 453 l 2
 129 637 193 754 402 754 c 0x64
EndSplineSet
EndChar

StartChar: acircumflex
Encoding: 226 226 118
Width: 552
GlyphClass: 2
Flags: MW
HStem: -14 97<120 252> 0 83<206 462 206 327> 243.4 80.6 449 97<281.5 337.5> 574 118<221 414 221 414 372 372 372 414 306 458> 643 49<351 351>
VStem: 12 145<123.5 182 123.5 194> 328.5 133.5 380 139<391.5 405.5>
LayerCount: 2
Fore
SplineSet
306 574 m 1xab
 221 574 l 1
 306 692 l 1
 414 692 l 1
 458 574 l 1
 372 574 l 1xab
 351 643 l 1xa7
 306 574 l 1xab
325 546 m 0xba80
 465 546 519 487 519 405 c 0
 519 378 514 349 506 305 c 2xaa80
 476 135 l 2
 469 95 465 59 462 0 c 1
 327 0 l 1
 330 78 l 1x6b
 295 25 l 1xab
 260 -2 213 -14 160 -14 c 0
 80 -14 12 31 12 126 c 0
 12 262 153 337 373 324 c 1
 374 332 l 2
 378 356 380 373 380 389 c 0
 380 422 362 449 313 449 c 0
 250 449 216 417 202 359 c 1
 68 358 l 1
 91 478 195 546 325 546 c 0xba80
227 83 m 0
 277 83 337 126 349 196 c 2
 357 241 l 1
 245 253 157 220 157 144 c 0
 157 103 185 83 227 83 c 0
EndSplineSet
EndChar

StartChar: atilde
Encoding: 227 227 124
Width: 552
GlyphClass: 2
Flags: MW
HStem: -14 97<120 252> 0 83<206 462 206 327> 243.4 80.6 449 97<281.5 337.5> 581 106<424 432> 585 105<262 270 200 297> 611 79<286 296.5>
VStem: 12 145<123.5 182 123.5 194> 328.5 133.5 380 139<391.5 405.5>
LayerCount: 2
Fore
SplineSet
291 611 m 0xb380
 281 611 273 603 270 585 c 1
 200 585 l 1
 214 661 238 690 286 690 c 0xb580
 308 690 325 687 359 673 c 0
 382 664 394 661 404 661 c 0
 414 661 421 668 424 687 c 1
 494 687 l 1
 480 610 456 581 408 581 c 0xb980
 387 581 370 584 335 599 c 1
 313 607 302 611 291 611 c 0xb380
325 546 m 0xb540
 465 546 519 487 519 405 c 0
 519 378 514 349 506 305 c 2xb540
 476 135 l 2
 469 95 465 59 462 0 c 1
 327 0 l 1
 330 78 l 1x7580
 295 25 l 1xb580
 260 -2 213 -14 160 -14 c 0
 80 -14 12 31 12 126 c 0
 12 262 153 337 373 324 c 1
 374 332 l 2
 378 356 380 373 380 389 c 0
 380 422 362 449 313 449 c 0
 250 449 216 417 202 359 c 1
 68 358 l 1
 91 478 195 546 325 546 c 0xb540
227 83 m 0
 277 83 337 126 349 196 c 2
 357 241 l 1
 245 253 157 220 157 144 c 0
 157 103 185 83 227 83 c 0
EndSplineSet
EndChar

StartChar: adieresis
Encoding: 228 228 119
Width: 552
GlyphClass: 2
Flags: MW
HStem: -14 97<120 252> 0 83<206 462 206 327> 243.4 80.6 449 97<281.5 337.5> 575 122<246.5 264.5 422 440>
VStem: 12 145<123.5 182 123.5 194> 193 125<624.5 647.5> 328.5 133.5 369 124<624.5 647.5> 380 139<391.5 405.5>
LayerCount: 2
Fore
SplineSet
248 575 m 0xbe80
 213 575 193 595 193 626 c 0
 193 669 230 697 263 697 c 0
 297 697 318 678 318 646 c 0
 318 603 281 575 248 575 c 0xbe80
423 575 m 0
 389 575 369 595 369 626 c 0
 369 669 405 697 439 697 c 0
 472 697 493 678 493 646 c 0
 493 603 457 575 423 575 c 0
325 546 m 0xb440
 465 546 519 487 519 405 c 0
 519 378 514 349 506 305 c 2xb440
 476 135 l 2
 469 95 465 59 462 0 c 1
 327 0 l 1
 330 78 l 1x75
 295 25 l 1xb5
 260 -2 213 -14 160 -14 c 0
 80 -14 12 31 12 126 c 0
 12 262 153 337 373 324 c 1
 374 332 l 2
 378 356 380 373 380 389 c 0
 380 422 362 449 313 449 c 0
 250 449 216 417 202 359 c 1
 68 358 l 1
 91 478 195 546 325 546 c 0xb440
227 83 m 0
 277 83 337 126 349 196 c 2
 357 241 l 1
 245 253 157 220 157 144 c 0
 157 103 185 83 227 83 c 0
EndSplineSet
EndChar

StartChar: aring
Encoding: 229 229 123
Width: 552
GlyphClass: 2
Flags: MW
HStem: -14 97<120 252> 0 83<206 462 206 327> 243.4 80.6 449 97<281.5 337.5> 566 53<334 359 334 372> 707 52<343 368>
VStem: 12 145<123.5 182 123.5 194> 243 69<641 664.5 641 679> 328.5 133.5 380 139<391.5 405.5> 390 69<661 684.5>
LayerCount: 2
Fore
SplineSet
336 566 m 0xbf20
 279 566 243 597 243 647 c 0
 243 711 294 759 367 759 c 0
 423 759 459 728 459 678 c 0
 459 614 408 566 336 566 c 0xbf20
358 707 m 0
 328 707 312 678 312 651 c 0
 312 631 324 619 344 619 c 0
 374 619 390 648 390 674 c 0
 390 695 378 707 358 707 c 0
325 546 m 0xb740
 465 546 519 487 519 405 c 0
 519 378 514 349 506 305 c 2xb740
 476 135 l 2
 469 95 465 59 462 0 c 1
 327 0 l 1
 330 78 l 1x7780
 295 25 l 1xb780
 260 -2 213 -14 160 -14 c 0
 80 -14 12 31 12 126 c 0
 12 262 153 337 373 324 c 1
 374 332 l 2
 378 356 380 373 380 389 c 0
 380 422 362 449 313 449 c 0
 250 449 216 417 202 359 c 1
 68 358 l 1
 91 478 195 546 325 546 c 0xb740
227 83 m 0
 277 83 337 126 349 196 c 2
 357 241 l 1
 245 253 157 220 157 144 c 0
 157 103 185 83 227 83 c 0
EndSplineSet
EndChar

StartChar: ae
Encoding: 230 230 125
Width: 936
GlyphClass: 2
Flags: MW
HStem: -14 97<210 220 588.5 646.5> 230 90<374 374 541 774> 447 97<288.5 344 670 722.5>
VStem: 12 146<121.5 172.5 121.5 176> 774 141<320 320>
LayerCount: 2
Fore
SplineSet
898 230 m 1
 521 230 l 1
 520 219 519 209 519 200 c 0
 519 114 560 83 617 83 c 0
 676 83 725 116 744 173 c 1
 882 173 l 1
 834 49 722 -14 598 -14 c 0
 507 -14 437 20 406 99 c 1
 353 34 l 1
 303 -1 252 -14 188 -14 c 0
 81 -14 12 39 12 123 c 0
 12 229 100 320 343 320 c 2
 388 320 l 1
 393 349 394 362 394 373 c 0
 394 421 371 447 317 447 c 0
 260 447 219 415 206 356 c 1
 72 356 l 1
 95 476 202 544 332 544 c 0
 441 544 485 504 501 454 c 1
 554 514 628 544 712 544 c 0
 848 544 915 454 915 337 c 0
 915 302 908 262 898 230 c 1
684 447 m 0
 620 447 568 406 541 320 c 1
 774 320 l 1
 778 387 761 447 684 447 c 0
370 207 m 2
 374 230 l 1
 358 231 342 231 328 231 c 0
 216 231 158 205 158 140 c 0
 158 103 186 83 234 83 c 0
 299 83 357 131 370 207 c 2
EndSplineSet
EndChar

StartChar: ccedilla
Encoding: 231 231 130
Width: 572
GlyphClass: 2
Flags: MW
HStem: -210 57<164 195 163.5 219.5> -84 167<150 293.5> -10 21G<200 200> 447 97<279 356>
VStem: 23 147<164.5 273.5 164.5 297.5> 241 86<-127.5 -102.5> 422 136<338 398.5>
AnchorPoint: "Anchor-0" 240 0 basechar 0
LayerCount: 2
Fore
SplineSet
263 83 m 0xde
 324 83 371 117 395 184 c 1
 533 184 l 1
 486 59 401 -8 269 -14 c 1
 250 -41 l 1
 300 -49 327 -75 327 -113 c 0
 327 -180 259 -210 180 -210 c 0
 148 -210 125 -208 108 -202 c 1
 119 -146 l 1
 137 -152 154 -153 173 -153 c 0
 217 -153 241 -139 241 -116 c 0
 241 -89 205 -78 150 -84 c 1xde
 200 -10 l 1xbe
 95 6 23 75 23 206 c 0
 23 389 144 544 341 544 c 0
 491 544 558 459 558 338 c 1
 422 338 l 1
 420 412 386 447 326 447 c 0
 232 447 170 341 170 206 c 0
 170 123 210 83 263 83 c 0xde
EndSplineSet
EndChar

StartChar: edieresis
Encoding: 235 235 140
Width: 580
GlyphClass: 2
Flags: MW
HStem: -14 97<233.5 291.5 233.5 313.5> 230 90<165 417 180 417 180 541> 449 97<284 351.5> 575 122<261.5 279.5 437 455>
VStem: 23 141<160 203 160 293.5> 208 125<624.5 647.5> 384 124<624.5 647.5> 418 140<339.5 376>
AnchorPoint: "Anchor-0" 244 0 basechar 0
LayerCount: 2
Fore
SplineSet
263 575 m 0xfe
 228 575 208 595 208 626 c 0
 208 669 245 697 278 697 c 0
 312 697 333 678 333 646 c 0
 333 603 296 575 263 575 c 0xfe
438 575 m 0
 404 575 384 595 384 626 c 0
 384 669 420 697 454 697 c 0
 487 697 508 678 508 646 c 0
 508 603 472 575 438 575 c 0
165 230 m 1
 164 203 l 1
 164 117 205 83 262 83 c 0
 321 83 370 116 389 173 c 1
 527 173 l 1
 484 49 378 -14 249 -14 c 0
 122 -14 23 52 23 202 c 0
 23 385 137 546 334 546 c 0
 483 546 558 454 558 336 c 0
 558 302 551 262 541 230 c 1xed
 165 230 l 1
320 449 m 0
 248 449 203 394 180 320 c 1
 417 320 l 1
 418 329 418 336 418 343 c 0
 418 409 383 449 320 449 c 0
EndSplineSet
EndChar

StartChar: igrave
Encoding: 236 236 157
Width: 265
GlyphClass: 2
Flags: MW
HStem: 0 21G<17 155 17 17> 512 20G<112 249 249 249> 574 118<163 184 60 241 163 163>
VStem: 17 232
LayerCount: 2
Fore
SplineSet
241 574 m 1
 163 574 l 1
 60 692 l 1
 184 692 l 1
 241 574 l 1
155 0 m 1
 17 0 l 1
 112 532 l 1
 249 532 l 1
 155 0 l 1
EndSplineSet
EndChar

StartChar: iacute
Encoding: 237 237 154
Width: 265
GlyphClass: 2
Flags: MW
HStem: 0 21G<17 155 17 17> 512 20G<112 249 249 249> 574 118<143 366 143 366>
VStem: 17 349
LayerCount: 2
Fore
SplineSet
221 574 m 1
 143 574 l 1
 242 692 l 1
 366 692 l 1
 221 574 l 1
155 0 m 1
 17 0 l 1
 112 532 l 1
 249 532 l 1
 155 0 l 1
EndSplineSet
EndChar

StartChar: icircumflex
Encoding: 238 238 155
Width: 265
GlyphClass: 2
Flags: MW
HStem: 0 21G<17 155 17 17> 512 20G<112 249 249 249> 574 118<74 267 74 267 225 225 225 267 159 311> 643 49<204 204>
VStem: 17 294
LayerCount: 2
Fore
SplineSet
159 574 m 1xe8
 74 574 l 1
 159 692 l 1
 267 692 l 1
 311 574 l 1
 225 574 l 1xe8
 204 643 l 1xd8
 159 574 l 1xe8
112 532 m 1
 249 532 l 1
 155 0 l 1
 17 0 l 1
 112 532 l 1
EndSplineSet
EndChar

StartChar: idieresis
Encoding: 239 239 156
Width: 265
GlyphClass: 2
Flags: MW
HStem: 0 21G<17 155 17 17> 512 20G<112 249 249 249> 575 122<99.5 117.5 275 293>
VStem: 46 125<624.5 647.5> 222 124<624.5 647.5>
LayerCount: 2
Fore
SplineSet
116 697 m 0
 150 697 171 678 171 646 c 0
 171 603 134 575 101 575 c 0
 66 575 46 595 46 626 c 0
 46 669 83 697 116 697 c 0
292 697 m 0
 325 697 346 678 346 646 c 0
 346 603 310 575 276 575 c 0
 242 575 222 595 222 626 c 0
 222 669 258 697 292 697 c 0
155 0 m 1
 17 0 l 1
 112 532 l 1
 249 532 l 1
 155 0 l 1
EndSplineSet
EndChar

StartChar: eth
Encoding: 240 240 133
Width: 637
GlyphClass: 2
Flags: MW
HStem: -14 102<241.5 338.5 241.5 383> 444 102<273.5 343 219 366> 675 20G<316 316> 684 20G<602 602> 725 20G<429 429>
VStem: 23 145<172 261.5 172 286> 444 145<283.5 361.5>
LayerCount: 2
Fore
SplineSet
616 644 m 1xde
 545 625 l 1xde
 576 559 589 474 589 376 c 0
 589 191 502 -14 264 -14 c 0
 106 -14 23 82 23 208 c 0
 23 364 117 546 321 546 c 0
 365 546 392 539 425 517 c 1
 459 460 l 1
 457 507 450 553 426 594 c 1
 298 561 l 1
 284 622 l 1
 384 648 l 1
 366 665 343 680 316 695 c 1xee
 429 745 l 1
 462 729 489 708 511 680 c 1
 602 704 l 1
 616 644 l 1xde
274 88 m 0
 403 88 444 226 444 323 c 0
 444 400 396 444 336 444 c 0
 211 444 168 306 168 217 c 0
 168 127 209 88 274 88 c 0
EndSplineSet
EndChar

StartChar: ntilde
Encoding: 241 241 176
Width: 621
GlyphClass: 2
Flags: MW
HStem: 0 21G<17 155 17 17 378 516 378 378> 449 83 449 97<353 475.5> 581 106<456 464> 585 105<294 302 232 329> 611 79<318 328.5>
VStem: 439 144<356 450>
AnchorPoint: "Anchor-0" 264 0 basechar 0
LayerCount: 2
Fore
SplineSet
323 611 m 0xa6
 313 611 305 603 302 585 c 1
 232 585 l 1
 246 661 270 690 318 690 c 0xaa
 340 690 357 687 391 673 c 0
 414 664 426 661 436 661 c 0
 446 661 453 668 456 687 c 1
 526 687 l 1
 512 610 488 581 440 581 c 0xb2
 419 581 402 584 367 599 c 1
 345 607 334 611 323 611 c 0xa6
421 546 m 0xaa
 530 546 583 490 583 410 c 0
 583 382 580 357 570 304 c 2
 516 0 l 1
 378 0 l 1
 428 279 l 2
 435 318 439 346 439 366 c 0
 439 415 416 449 353 449 c 0xaa
 284 448 223 389 197 241 c 2
 155 0 l 1
 17 0 l 1
 111 532 l 1
 248 532 l 1
 234 451 l 1xca
 286 509 l 1
 329 536 370 546 421 546 c 0xaa
EndSplineSet
EndChar

StartChar: ograve
Encoding: 242 242 181
Width: 616
GlyphClass: 2
Flags: MW
HStem: -14 97<245.5 337 245.5 380.5> 449 97<279.5 371.5> 574 118<337 337 337 358 234 415>
VStem: 25 147<185 280 185 301.5> 445 146<252 347>
LayerCount: 2
Fore
SplineSet
337 574 m 1
 234 692 l 1
 358 692 l 1
 415 574 l 1
 337 574 l 1
345 546 m 0xd8
 514 546 591 442 591 310 c 0
 591 151 489 -14 272 -14 c 0
 103 -14 25 90 25 222 c 0
 25 381 127 546 345 546 c 0xd8
284 83 m 0
 390 83 445 197 445 307 c 0
 445 387 410 449 333 449 c 0
 226 449 172 335 172 225 c 0
 172 145 207 83 284 83 c 0
EndSplineSet
EndChar

StartChar: ocircumflex
Encoding: 244 244 179
Width: 616
GlyphClass: 2
Flags: MW
HStem: -14 97<245.5 337 245.5 380.5> 449 97<279.5 371.5> 574 118<247 440 247 440 398 398 398 440 332 484> 643 49<377 377>
VStem: 25 147<185 280 185 301.5> 445 146<252 347>
LayerCount: 2
Fore
SplineSet
332 574 m 1xec
 247 574 l 1
 332 692 l 1
 440 692 l 1
 484 574 l 1
 398 574 l 1xec
 377 643 l 1xdc
 332 574 l 1xec
345 546 m 0xdc
 514 546 591 442 591 310 c 0
 591 151 489 -14 272 -14 c 0
 103 -14 25 90 25 222 c 0
 25 381 127 546 345 546 c 0xdc
284 83 m 0
 390 83 445 197 445 307 c 0
 445 387 410 449 333 449 c 0
 226 449 172 335 172 225 c 0
 172 145 207 83 284 83 c 0
EndSplineSet
EndChar

StartChar: otilde
Encoding: 245 245 185
Width: 616
GlyphClass: 2
Flags: MW
HStem: -14 97<245.5 337 245.5 380.5> 449 97<279.5 371.5> 581 106<450 458> 585 105<288 296 226 323> 611 79<312 322.5>
VStem: 25 147<185 280 185 301.5> 445 146<252 347>
LayerCount: 2
Fore
SplineSet
317 611 m 0xce
 307 611 299 603 296 585 c 1
 226 585 l 1
 240 661 264 690 312 690 c 0xd6
 334 690 351 687 385 673 c 0
 408 664 420 661 430 661 c 0
 440 661 447 668 450 687 c 1
 520 687 l 1
 506 610 482 581 434 581 c 0xe6
 413 581 396 584 361 599 c 1
 339 607 328 611 317 611 c 0xce
345 546 m 0xd6
 514 546 591 442 591 310 c 0
 591 151 489 -14 272 -14 c 0
 103 -14 25 90 25 222 c 0
 25 381 127 546 345 546 c 0xd6
284 83 m 0
 390 83 445 197 445 307 c 0
 445 387 410 449 333 449 c 0
 226 449 172 335 172 225 c 0
 172 145 207 83 284 83 c 0
EndSplineSet
EndChar

StartChar: odieresis
Encoding: 246 246 180
Width: 616
GlyphClass: 2
Flags: MW
HStem: -14 97<245.5 337 245.5 380.5> 449 97<279.5 371.5> 575 122<273.5 291.5 449 467>
VStem: 25 147<185 280 185 301.5> 220 125<624.5 647.5> 396 124<624.5 647.5> 445 146<252 347>
LayerCount: 2
Fore
SplineSet
275 575 m 0xfc
 240 575 220 595 220 626 c 0
 220 669 257 697 290 697 c 0
 324 697 345 678 345 646 c 0
 345 603 308 575 275 575 c 0xfc
450 575 m 0
 416 575 396 595 396 626 c 0
 396 669 432 697 466 697 c 0
 499 697 520 678 520 646 c 0
 520 603 484 575 450 575 c 0
345 546 m 0xd2
 514 546 591 442 591 310 c 0
 591 151 489 -14 272 -14 c 0
 103 -14 25 90 25 222 c 0
 25 381 127 546 345 546 c 0xd2
284 83 m 0
 390 83 445 197 445 307 c 0
 445 387 410 449 333 449 c 0
 226 449 172 335 172 225 c 0
 172 145 207 83 284 83 c 0
EndSplineSet
EndChar

StartChar: divide
Encoding: 247 247 291
Width: 625
Flags: MW
HStem: 72 139<274.5 293.5> 279 78<92 537 78 550> 423 139<336.5 355.5>
VStem: 214 140<131.5 151> 276 140<483 502.5>
LayerCount: 2
Fore
SplineSet
358 562 m 0x68
 393 562 416 538 416 506 c 0
 416 460 377 423 334 423 c 0
 299 423 276 447 276 480 c 0
 276 525 315 562 358 562 c 0x68
537 279 m 1
 78 279 l 1
 92 357 l 1
 550 357 l 1
 537 279 l 1
296 211 m 0xd0
 332 211 354 187 354 154 c 0
 354 109 315 72 272 72 c 0
 237 72 214 96 214 128 c 0
 214 174 253 211 296 211 c 0xd0
EndSplineSet
EndChar

StartChar: oslash
Encoding: 248 248 184
Width: 637
GlyphClass: 2
Flags: MW
HStem: -14 97<271 343.5 271 387> 449 97<286.5 359.5>
VStem: 32 147<220.5 280 220.5 301.5> 451 147<252 311>
LayerCount: 2
Fore
SplineSet
649 500 m 1
 570 433 l 1
 589 397 598 355 598 310 c 0
 598 151 496 -14 278 -14 c 0
 204 -14 147 6 107 40 c 1
 29 -27 l 1
 -18 30 l 1
 61 97 l 1
 41 133 32 176 32 222 c 0
 32 381 134 546 352 546 c 0
 427 546 484 525 524 491 c 1
 602 557 l 1
 649 500 l 1
179 225 m 0
 179 216 179 207 180 199 c 1
 425 407 l 1
 407 433 379 449 340 449 c 0
 233 449 179 335 179 225 c 0
451 307 m 0
 451 315 451 323 450 331 c 1
 206 123 l 1
 224 98 252 83 290 83 c 0
 397 83 451 197 451 307 c 0
EndSplineSet
EndChar

StartChar: uacute
Encoding: 250 250 206
Width: 617
GlyphClass: 2
Flags: MW
HStem: -14 98 0 84 512 20G<102 240 240 240 463 600 600 600> 574 118<326 549 326 549>
VStem: 35 144<82.5 176>
LayerCount: 2
Fore
SplineSet
404 574 m 1xb8
 326 574 l 1
 425 692 l 1
 549 692 l 1
 404 574 l 1xb8
600 532 m 1
 507 0 l 1
 369 0 l 1
 384 82 l 1x78
 331 23 l 1
 288 -4 248 -14 196 -14 c 0
 88 -14 35 42 35 123 c 0
 35 151 37 175 47 229 c 2
 102 532 l 1
 240 532 l 1
 189 253 l 2
 182 214 179 186 179 166 c 0
 179 117 201 83 264 84 c 0
 333 85 394 143 421 291 c 1
 463 532 l 1
 600 532 l 1
EndSplineSet
EndChar

StartChar: ucircumflex
Encoding: 251 251 207
Width: 617
GlyphClass: 2
Flags: MW
HStem: -14 98 0 84 512 20G<102 240 240 240 463 600 600 600> 574 118<256 449 256 449 407 407 407 449 341 493> 643 49<386 386>
VStem: 35 144<82.5 176>
LayerCount: 2
Fore
SplineSet
341 574 m 1xb4
 256 574 l 1
 341 692 l 1
 449 692 l 1
 493 574 l 1
 407 574 l 1xb4
 386 643 l 1xac
 341 574 l 1xb4
600 532 m 1
 507 0 l 1
 369 0 l 1
 384 82 l 1x74
 331 23 l 1
 288 -4 248 -14 196 -14 c 0
 88 -14 35 42 35 123 c 0
 35 151 37 175 47 229 c 2
 102 532 l 1
 240 532 l 1
 189 253 l 2
 182 214 179 186 179 166 c 0
 179 117 201 83 264 84 c 0
 333 85 394 143 421 291 c 1
 463 532 l 1
 600 532 l 1
EndSplineSet
EndChar

StartChar: udieresis
Encoding: 252 252 208
Width: 617
GlyphClass: 2
Flags: MW
HStem: -14 98 0 84 512 20G<102 240 240 240 463 600 600 600> 575 122<282.5 300.5 458 476>
VStem: 35 144<82.5 176> 229 125<624.5 647.5> 405 124<624.5 647.5>
LayerCount: 2
Fore
SplineSet
284 575 m 0xbe
 249 575 229 595 229 626 c 0
 229 669 266 697 299 697 c 0
 333 697 354 678 354 646 c 0
 354 603 317 575 284 575 c 0xbe
459 575 m 0
 425 575 405 595 405 626 c 0
 405 669 441 697 475 697 c 0
 508 697 529 678 529 646 c 0
 529 603 493 575 459 575 c 0
600 532 m 1
 507 0 l 1
 369 0 l 1
 384 82 l 1x7e
 331 23 l 1
 288 -4 248 -14 196 -14 c 0
 88 -14 35 42 35 123 c 0
 35 151 37 175 47 229 c 2
 102 532 l 1
 240 532 l 1
 189 253 l 2
 182 214 179 186 179 166 c 0
 179 117 201 83 264 84 c 0
 333 85 394 143 421 291 c 1
 463 532 l 1
 600 532 l 1
EndSplineSet
EndChar

StartChar: yacute
Encoding: 253 253 222
Width: 544
GlyphClass: 2
Flags: MW
HStem: -210 96<28.5 58.5 28.5 94> 512 20G<33 187 187 187 449 602 602 602> 574 118<274 497 274 497>
VStem: -22 624
LayerCount: 2
Fore
SplineSet
352 574 m 1
 274 574 l 1
 373 692 l 1
 497 692 l 1
 352 574 l 1
602 532 m 1
 303 0 l 2
 213 -159 150 -210 38 -210 c 0
 16 -210 -3 -208 -22 -205 c 1
 -6 -111 l 1
 8 -113 21 -114 36 -114 c 0
 81 -114 114 -94 143 -39 c 1
 149 -27 l 1
 33 532 l 1
 187 532 l 1
 244 111 l 1
 449 532 l 1
 602 532 l 1
EndSplineSet
EndChar

StartChar: thorn
Encoding: 254 254 188
Width: 651
GlyphClass: 2
Flags: MW
HStem: -14 97<291 362 259.5 419> 449 97<397 409> 715 20G<148 286 286 286>
VStem: 484 144<253 358>
LayerCount: 2
Fore
SplineSet
424 546 m 0
 556 546 628 459 628 327 c 0
 628 154 525 -14 313 -14 c 0
 269 -14 217 0 194 20 c 1
 168 76 l 1
 120 -196 l 1
 -18 -196 l 1
 148 735 l 1
 286 735 l 1
 235 452 l 1
 285 509 l 1
 319 533 370 546 424 546 c 0
309 83 m 0
 415 83 484 191 484 315 c 0
 484 401 445 449 373 449 c 0
 297 449 226 401 203 272 c 1
 199 247 l 2
 185 163 210 83 309 83 c 0
EndSplineSet
EndChar

StartChar: ydieresis
Encoding: 255 255 224
Width: 544
GlyphClass: 2
Flags: MW
HStem: -210 96<28.5 58.5 28.5 94> 512 20G<33 187 187 187 449 602 602 602> 575 122<230.5 248.5 406 424>
VStem: 177 125<624.5 647.5> 353 124<624.5 647.5>
LayerCount: 2
Fore
SplineSet
232 575 m 0
 197 575 177 595 177 626 c 0
 177 669 214 697 247 697 c 0
 281 697 302 678 302 646 c 0
 302 603 265 575 232 575 c 0
407 575 m 0
 373 575 353 595 353 626 c 0
 353 669 389 697 423 697 c 0
 456 697 477 678 477 646 c 0
 477 603 441 575 407 575 c 0
602 532 m 1
 303 0 l 2
 213 -159 150 -210 38 -210 c 0
 16 -210 -3 -208 -22 -205 c 1
 -6 -111 l 1
 8 -113 21 -114 36 -114 c 0
 81 -114 114 -94 143 -39 c 1
 149 -27 l 1
 33 532 l 1
 187 532 l 1
 244 111 l 1
 449 532 l 1
 602 532 l 1
EndSplineSet
EndChar

StartChar: Amacron
Encoding: 256 256 7
Width: 680
GlyphClass: 2
Flags: MW
HStem: 0 21G<-31 118 -31 -31 488 488 488 637> 208 109<277 441 277 457 222 441> 568 122<403 403> 670 20G<335 518 518 518> 759 76<318 578 305 591>
VStem: -31 668<0 0>
LayerCount: 2
Fore
SplineSet
578 759 m 1xdc
 305 759 l 1
 318 835 l 1
 591 835 l 1
 578 759 l 1xdc
457 208 m 1
 222 208 l 1
 118 0 l 1
 -31 0 l 1
 335 690 l 1
 518 690 l 1
 637 0 l 1
 488 0 l 1
 457 208 l 1
441 317 m 1
 403 568 l 1xec
 277 317 l 1
 441 317 l 1
EndSplineSet
Position2: "'cpsp' Capital Spacing in Latin lookup 0 subtable" dx=5 dy=0 dh=10 dv=0
EndChar

StartChar: amacron
Encoding: 257 257 121
Width: 552
GlyphClass: 2
Flags: MW
HStem: -14 97<120 252> 0 83<206 462 206 327> 243.4 80.6 449 97<281.5 337.5> 592 77<216 476 203 489>
VStem: 12 145<123.5 182 123.5 194> 328.5 133.5 380 139<391.5 405.5>
LayerCount: 2
Fore
SplineSet
476 592 m 1xbe
 203 592 l 1
 216 669 l 1
 489 669 l 1
 476 592 l 1xbe
325 546 m 0xbd
 465 546 519 487 519 405 c 0
 519 378 514 349 506 305 c 2xbd
 476 135 l 2
 469 95 465 59 462 0 c 1
 327 0 l 1
 330 78 l 1x7e
 295 25 l 1xbe
 260 -2 213 -14 160 -14 c 0
 80 -14 12 31 12 126 c 0
 12 262 153 337 373 324 c 1
 374 332 l 2
 378 356 380 373 380 389 c 0
 380 422 362 449 313 449 c 0
 250 449 216 417 202 359 c 1
 68 358 l 1
 91 478 195 546 325 546 c 0xbd
227 83 m 0
 277 83 337 126 349 196 c 2
 357 241 l 1
 245 253 157 220 157 144 c 0
 157 103 185 83 227 83 c 0
EndSplineSet
EndChar

StartChar: Abreve
Encoding: 258 258 3
Width: 680
GlyphClass: 2
Flags: MW
HStem: 0 21G<-31 118 -31 -31 488 488 488 637> 208 109<277 441 277 457 222 441> 568 122<403 403> 670 20G<335 518 518 518> 725 72<432.5 463 432.5 472>
VStem: 335.43 75.57
LayerCount: 2
Fore
SplineSet
436 725 m 0xdc
 348 725 327 786 338 847 c 1
 411 847 l 1
 407 816 417 797 448 797 c 0
 478 797 497 813 505 847 c 1
 578 847 l 1
 564 765 508 725 436 725 c 0xdc
457 208 m 1
 222 208 l 1
 118 0 l 1
 -31 0 l 1
 335 690 l 1
 518 690 l 1
 637 0 l 1
 488 0 l 1
 457 208 l 1
441 317 m 1
 403 568 l 1xec
 277 317 l 1
 441 317 l 1
EndSplineSet
Position2: "'cpsp' Capital Spacing in Latin lookup 0 subtable" dx=5 dy=0 dh=10 dv=0
EndChar

StartChar: abreve
Encoding: 259 259 117
Width: 552
GlyphClass: 2
Flags: MW
HStem: -14 97<120 252> 0 83<206 462 206 327> 243.4 80.6 449 97<281.5 337.5> 567 71<329 361.5 329 369.5> 567 126<287.5 311 237 369.5>
VStem: 12 145<123.5 182 123.5 194> 234.18 76.82 328.5 133.5 380 139<391.5 405.5>
LayerCount: 2
Fore
SplineSet
334 567 m 0xb740
 241 567 226 630 237 693 c 1
 311 693 l 1xb740
 307 663 311 638 347 638 c 0xbb40
 376 638 395 655 404 693 c 1
 478 693 l 1
 462 606 405 567 334 567 c 0xb740
325 546 m 0xb340
 465 546 519 487 519 405 c 0
 519 378 514 349 506 305 c 2xb340
 476 135 l 2
 469 95 465 59 462 0 c 1
 327 0 l 1
 330 78 l 1x7380
 295 25 l 1xb380
 260 -2 213 -14 160 -14 c 0
 80 -14 12 31 12 126 c 0
 12 262 153 337 373 324 c 1
 374 332 l 2
 378 356 380 373 380 389 c 0
 380 422 362 449 313 449 c 0
 250 449 216 417 202 359 c 1
 68 358 l 1
 91 478 195 546 325 546 c 0xb340
227 83 m 0
 277 83 337 126 349 196 c 2
 357 241 l 1
 245 253 157 220 157 144 c 0
 157 103 185 83 227 83 c 0
EndSplineSet
EndChar

StartChar: Aogonek
Encoding: 260 260 8
Width: 680
GlyphClass: 2
Flags: MW
HStem: -223 80<428.5 542.5> 0 21G<-31 118 -31 -31 583 583 583 637> 208 109<277 441 277 457 222 441> 568 122<403 403> 670 20G<335 518 518 518>
VStem: 362 136<-117 -115.5>
LayerCount: 2
Fore
SplineSet
498 -102 m 0xec
 498 -132 513 -143 534 -143 c 0
 551 -143 568 -138 586 -125 c 1
 575 -183 l 1
 546 -207 503 -223 454 -223 c 0
 403 -223 362 -202 362 -147 c 0
 362 -84 406 -29 487 8 c 1
 457 208 l 1
 222 208 l 1
 118 0 l 1
 -31 0 l 1
 335 690 l 1
 518 690 l 1
 637 0 l 1
 583 0 l 1
 532 -5 498 -63 498 -102 c 0xec
441 317 m 1
 403 568 l 1xf4
 277 317 l 1
 441 317 l 1
EndSplineSet
Position2: "'cpsp' Capital Spacing in Latin lookup 0 subtable" dx=5 dy=0 dh=10 dv=0
EndChar

StartChar: aogonek
Encoding: 261 261 122
Width: 552
GlyphClass: 2
Flags: MW
HStem: -223 80<268.5 382.5> -14 21G<120 186.5> -14 97<120 252> 0 21G<423 462 423 423> 243.4 80.6 449 97<281.5 337.5>
VStem: 12 145<123.5 182 123.5 194> 202 136<-117 -115.5> 328.5 133.5 380 139<391.5 405.5>
LayerCount: 2
Fore
SplineSet
325 546 m 0x2e40
 465 546 519 487 519 405 c 0
 519 378 514 349 506 305 c 2x1e40
 476 135 l 2
 469 95 465 59 462 0 c 1x1e80
 423 0 l 1x1f
 372 -5 338 -63 338 -102 c 0
 338 -132 353 -143 374 -143 c 0
 391 -143 408 -138 426 -125 c 1
 415 -183 l 1
 386 -207 343 -223 294 -223 c 0
 243 -223 202 -202 202 -147 c 0xcf
 202 -84 246 -28 327 8 c 1
 330 78 l 1x4e80
 295 25 l 1x2e80
 260 -2 213 -14 160 -14 c 0
 80 -14 12 31 12 126 c 0
 12 262 153 337 373 324 c 1
 374 332 l 2
 378 356 380 373 380 389 c 0
 380 422 362 449 313 449 c 0
 250 449 216 417 202 359 c 1
 68 358 l 1
 91 478 195 546 325 546 c 0x2e40
227 83 m 0
 277 83 337 126 349 196 c 2
 357 241 l 1
 245 253 157 220 157 144 c 0
 157 103 185 83 227 83 c 0
EndSplineSet
EndChar

StartChar: Cacute
Encoding: 262 262 14
Width: 745
GlyphClass: 2
Flags: MW
HStem: -14 103<312.5 401 312.5 426.5> 355 112<213 380 213 380> 601 103<395.5 487>
VStem: 60 148<215 295.5 215 400> 583 139<456 466 466 466>
AnchorPoint: "Anchor-0" 116 0 basechar 0
LayerCount: 2
Fore
SplineSet
456 704 m 0
 643 704 732 602 722 466 c 1
 721 456 l 1
 583 456 l 1
 583 466 l 1
 582 560 533 601 441 601 c 0
 350 601 274 541 236 443 c 1
 256 467 l 1
 380 467 l 1
 241 355 l 1
 213 355 l 1
 210 332 208 308 208 283 c 0
 208 147 269 89 356 89 c 0
 446 89 505 143 538 229 c 1
 542 239 l 1
 679 239 l 1
 676 229 l 1
 634 77 515 -14 338 -14 c 0
 166 -14 60 90 60 271 c 0
 60 529 237 704 456 704 c 0
EndSplineSet
Position2: "'cpsp' Capital Spacing in Latin lookup 0 subtable" dx=5 dy=0 dh=10 dv=0
EndChar

StartChar: Cdotaccent
Encoding: 266 266 17
Width: 745
GlyphClass: 2
Flags: MW
HStem: -14 103<312.5 401 312.5 426.5> 601 103<402 487>
VStem: 60 148<215 294.5 215 400> 583 139<456 466 466 466>
AnchorPoint: "Anchor-0" 116 0 basechar 0
LayerCount: 2
Fore
SplineSet
456 704 m 0
 643 704 732 602 722 466 c 1
 721 456 l 1
 583 456 l 1
 583 466 l 1
 582 560 533 601 441 601 c 0
 363 601 296 557 255 483 c 1
 277 474 290 455 290 428 c 0
 290 390 262 351 212 349 c 1
 209 328 208 306 208 283 c 0
 208 147 269 89 356 89 c 0
 446 89 505 143 538 229 c 1
 542 239 l 1
 679 239 l 1
 676 229 l 1
 634 77 515 -14 338 -14 c 0
 166 -14 60 90 60 271 c 0
 60 529 237 704 456 704 c 0
EndSplineSet
Position2: "'cpsp' Capital Spacing in Latin lookup 0 subtable" dx=5 dy=0 dh=10 dv=0
EndChar

StartChar: cdotaccent
Encoding: 267 267 131
Width: 572
GlyphClass: 2
Flags: MW
HStem: -14 97<236.5 293.5 236.5 321.5> 447 97<279 356> 584 146<344.5 379.5>
VStem: 23 147<164.5 273.5 164.5 297.5> 286 152<646.5 667.5> 422 136<338 398.5>
AnchorPoint: "Anchor-0" 240 0 basechar 0
LayerCount: 2
Fore
SplineSet
372 730 m 0xf8
 413 730 438 705 438 668 c 0
 438 625 407 584 352 584 c 0
 311 584 286 608 286 646 c 0
 286 689 317 730 372 730 c 0xf8
341 544 m 0xd4
 491 544 558 459 558 338 c 1
 422 338 l 1
 420 412 386 447 326 447 c 0
 232 447 170 341 170 206 c 0
 170 123 210 83 263 83 c 0
 324 83 371 117 395 184 c 1
 533 184 l 1
 484 53 393 -14 250 -14 c 0
 119 -14 23 55 23 206 c 0
 23 389 144 544 341 544 c 0xd4
EndSplineSet
EndChar

StartChar: Ccaron
Encoding: 268 268 15
Width: 745
GlyphClass: 2
Flags: MW
HStem: -14 103<312.5 401 312.5 426.5> 355 112<260 263 213 347> 601 103<392 487>
VStem: 60 148<215 295.5 215 400> 583 139<456 466 466 466>
AnchorPoint: "Anchor-0" 116 0 basechar 0
LayerCount: 2
Fore
SplineSet
456 704 m 0
 643 704 732 602 722 466 c 1
 721 456 l 1
 583 456 l 1
 583 466 l 1
 582 560 533 601 441 601 c 0
 343 601 263 532 227 418 c 1
 260 467 l 1
 347 467 l 1
 263 355 l 1
 213 355 l 1
 210 332 208 308 208 283 c 0
 208 147 269 89 356 89 c 0
 446 89 505 143 538 229 c 1
 542 239 l 1
 679 239 l 1
 676 229 l 1
 634 77 515 -14 338 -14 c 0
 166 -14 60 90 60 271 c 0
 60 529 237 704 456 704 c 0
EndSplineSet
Position2: "'cpsp' Capital Spacing in Latin lookup 0 subtable" dx=5 dy=0 dh=10 dv=0
EndChar

StartChar: ccaron
Encoding: 269 269 129
Width: 572
GlyphClass: 2
Flags: MW
HStem: -14 97<236.5 293.5 236.5 321.5> 447 97<279 356> 574 118<293 293 293 336 250 401>
VStem: 23 147<164.5 273.5 164.5 297.5> 422 136<338 398.5>
AnchorPoint: "Anchor-0" 240 0 basechar 0
LayerCount: 2
Fore
SplineSet
293 574 m 1
 250 692 l 1
 336 692 l 1
 356 625 l 1
 402 692 l 1
 487 692 l 1
 401 574 l 1
 293 574 l 1
263 83 m 0
 324 83 371 117 395 184 c 1
 533 184 l 1
 484 53 393 -14 250 -14 c 0
 119 -14 23 55 23 206 c 0
 23 389 144 544 341 544 c 0
 491 544 558 459 558 338 c 1
 422 338 l 1
 420 412 386 447 326 447 c 0xd8
 232 447 170 341 170 206 c 0
 170 123 210 83 263 83 c 0
EndSplineSet
EndChar

StartChar: Dcaron
Encoding: 270 270 20
Width: 728
GlyphClass: 2
Flags: MW
HStem: 0 109<192 262> 582 108<276 354 276 276> 735 112<366 366 366 408 472 475>
VStem: 564 148<322.5 452>
LayerCount: 2
Fore
SplineSet
366 735 m 1
 321 847 l 1
 408 847 l 1
 428 782 l 1
 472 847 l 1
 559 847 l 1
 475 735 l 1
 366 735 l 1
467 686 m 0
 604 672 712 581 712 395 c 0
 712 204 593 26 351 3 c 0
 315 0 296 0 262 0 c 2
 35 0 l 1
 157 690 l 1
 375 690 l 2
 411 690 433 690 467 686 c 0
344 111 m 0
 497 130 564 254 564 391 c 0
 564 513 506 569 423 579 c 0
 401 581 382 582 354 582 c 2
 276 582 l 1
 192 109 l 1
 273 109 l 2
 301 109 321 109 344 111 c 0
EndSplineSet
Position2: "'cpsp' Capital Spacing in Latin lookup 0 subtable" dx=5 dy=0 dh=10 dv=0
EndChar

StartChar: dcroat
Encoding: 273 273 135
Width: 650
GlyphClass: 2
Flags: MW
HStem: -14 97<243 254> 0 83 449 97<288.5 359 231 391> 584 78<399 504 385 518 656 683> 584 151<385 669 385 669 642 669 531 683 642 642>
VStem: 22 147<174 276.5 174 286>
LayerCount: 2
Fore
SplineSet
683 584 m 1xac
 642 584 l 1
 539 0 l 1
 401 0 l 1
 415 81 l 1x6c
 365 23 l 1
 332 0 281 -14 227 -14 c 0
 94 -14 22 68 22 199 c 0
 22 373 125 546 337 546 c 0
 381 546 433 533 457 512 c 1
 482 456 l 1
 504 584 l 1
 385 584 l 1xac
 399 662 l 1
 518 662 l 1xb4
 531 735 l 1
 669 735 l 1xac
 656 662 l 1
 697 662 l 1xb4
 683 584 l 1xac
447 260 m 1
 452 286 l 1
 466 369 440 449 342 449 c 0
 235 449 169 336 169 217 c 0
 169 131 208 83 278 83 c 0xac
 354 83 424 131 447 260 c 1
EndSplineSet
EndChar

StartChar: Emacron
Encoding: 274 274 29
Width: 612
GlyphClass: 2
Flags: MW
HStem: 0 109<192 532> 291 109<244 550 224 569> 582 108<276 276 276 625> 759 76<295 555 282 568>
VStem: 35 609
AnchorPoint: "Anchor-0" 264 0 basechar 0
LayerCount: 2
Fore
SplineSet
555 759 m 1
 282 759 l 1
 295 835 l 1
 568 835 l 1
 555 759 l 1
276 582 m 1
 244 400 l 1
 569 400 l 1
 550 291 l 1
 224 291 l 1
 192 109 l 1
 552 109 l 1
 532 0 l 1
 35 0 l 1
 157 690 l 1
 644 690 l 1
 625 582 l 1
 276 582 l 1
EndSplineSet
Position2: "'cpsp' Capital Spacing in Latin lookup 0 subtable" dx=5 dy=0 dh=10 dv=0
EndChar

StartChar: Edotaccent
Encoding: 278 278 27
Width: 612
GlyphClass: 2
Flags: MW
HStem: 0 109<192 532> 291 109<244 550 224 569> 582 108<276 276 276 625> 729 138<409.5 441>
VStem: 353 144<788.5 807.5>
AnchorPoint: "Anchor-0" 264 0 basechar 0
LayerCount: 2
Fore
SplineSet
415 729 m 0
 377 729 353 752 353 788 c 0
 353 827 384 867 435 867 c 0
 473 867 497 844 497 808 c 0
 497 769 467 729 415 729 c 0
276 582 m 1
 244 400 l 1
 569 400 l 1
 550 291 l 1
 224 291 l 1
 192 109 l 1
 552 109 l 1
 532 0 l 1
 35 0 l 1
 157 690 l 1
 644 690 l 1
 625 582 l 1
 276 582 l 1
EndSplineSet
Position2: "'cpsp' Capital Spacing in Latin lookup 0 subtable" dx=5 dy=0 dh=10 dv=0
EndChar

StartChar: edotaccent
Encoding: 279 279 141
Width: 580
GlyphClass: 2
Flags: MW
HStem: -14 97<233.5 291.5 233.5 313.5> 230 90<165 417 180 417 180 541> 449 97<284 351.5> 584 146<348.5 383.5>
VStem: 23 141<160 203 160 293.5> 290 152<646.5 667.5> 418 140<339.5 376>
AnchorPoint: "Anchor-0" 244 0 basechar 0
LayerCount: 2
Fore
SplineSet
356 584 m 0xfc
 315 584 290 608 290 646 c 0
 290 689 321 730 376 730 c 0
 417 730 442 705 442 668 c 0
 442 625 411 584 356 584 c 0xfc
165 230 m 1
 164 203 l 1
 164 117 205 83 262 83 c 0
 321 83 370 116 389 173 c 1
 527 173 l 1
 484 49 378 -14 249 -14 c 0
 122 -14 23 52 23 202 c 0
 23 385 137 546 334 546 c 0
 483 546 558 454 558 336 c 0
 558 302 551 262 541 230 c 1xea
 165 230 l 1
320 449 m 0
 248 449 203 394 180 320 c 1
 417 320 l 1
 418 329 418 336 418 343 c 0
 418 409 383 449 320 449 c 0
EndSplineSet
EndChar

StartChar: Eogonek
Encoding: 280 280 30
Width: 612
GlyphClass: 2
Flags: MW
HStem: -223 80<350.5 464.5> 0 109<192 393 505 532 505 505> 291 109<244 550 224 569> 582 108<276 276 276 625>
VStem: 284 136<-174.5 -82.5>
AnchorPoint: "Anchor-0" 264 0 basechar 0
LayerCount: 2
Fore
SplineSet
276 582 m 1
 244 400 l 1
 569 400 l 1
 550 291 l 1
 224 291 l 1
 192 109 l 1
 552 109 l 1
 532 0 l 1
 505 0 l 1
 454 -5 420 -63 420 -102 c 0
 420 -132 435 -143 456 -143 c 0
 473 -143 490 -138 508 -125 c 1
 497 -183 l 1
 468 -207 425 -223 376 -223 c 0
 325 -223 284 -202 284 -147 c 0
 284 -88 322 -36 393 0 c 1
 35 0 l 1
 157 690 l 1
 644 690 l 1
 625 582 l 1
 276 582 l 1
EndSplineSet
Position2: "'cpsp' Capital Spacing in Latin lookup 0 subtable" dx=5 dy=0 dh=10 dv=0
EndChar

StartChar: eogonek
Encoding: 281 281 144
Width: 580
GlyphClass: 2
Flags: MW
HStem: -223 80<176.5 290.5> -10 21G 230 90<165 417 180 417 180 541> 449 97<284 351.5>
VStem: 23 141<160 203 160 293.5> 110 136<-174.5 -87> 418 140<339.5 376>
AnchorPoint: "Anchor-0" 244 0 basechar 0
LayerCount: 2
Fore
SplineSet
165 230 m 1xfa
 164 203 l 1
 164 117 205 83 262 83 c 0xfa
 321 83 370 116 389 173 c 1
 527 173 l 1
 490 66 405 4 299 -11 c 1
 266 -30 246 -72 246 -102 c 0
 246 -132 261 -143 282 -143 c 0
 299 -143 316 -138 334 -125 c 1
 323 -183 l 1
 294 -207 251 -223 202 -223 c 0
 151 -223 110 -202 110 -147 c 0xf6
 110 -94 141 -46 200 -10 c 1
 97 5 23 72 23 202 c 0
 23 385 137 546 334 546 c 0
 483 546 558 454 558 336 c 0
 558 302 551 262 541 230 c 1
 165 230 l 1xfa
320 449 m 0
 248 449 203 394 180 320 c 1
 417 320 l 1
 418 329 418 336 418 343 c 0
 418 409 383 449 320 449 c 0
EndSplineSet
EndChar

StartChar: Ecaron
Encoding: 282 282 24
Width: 612
GlyphClass: 2
Flags: MW
HStem: 0 109<192 532> 291 109<244 550 224 569> 582 108<276 276 276 625> 735 112<361 361 361 403 467 470>
VStem: 35 609
AnchorPoint: "Anchor-0" 264 0 basechar 0
LayerCount: 2
Fore
SplineSet
361 735 m 1
 316 847 l 1
 403 847 l 1
 423 782 l 1
 467 847 l 1
 554 847 l 1
 470 735 l 1
 361 735 l 1
276 582 m 1
 244 400 l 1
 569 400 l 1
 550 291 l 1
 224 291 l 1
 192 109 l 1
 552 109 l 1
 532 0 l 1
 35 0 l 1
 157 690 l 1
 644 690 l 1
 625 582 l 1
 276 582 l 1
EndSplineSet
Position2: "'cpsp' Capital Spacing in Latin lookup 0 subtable" dx=5 dy=0 dh=10 dv=0
EndChar

StartChar: ecaron
Encoding: 283 283 138
Width: 580
GlyphClass: 2
Flags: MW
HStem: -14 97<233.5 291.5 233.5 313.5> 230 90<165 417 180 417 180 541> 449 97<284 351.5> 574 118<297 297 297 340 254 405>
VStem: 23 141<160 203 160 293.5> 418 140<339.5 376>
AnchorPoint: "Anchor-0" 244 0 basechar 0
LayerCount: 2
Fore
SplineSet
297 574 m 1
 254 692 l 1
 340 692 l 1
 360 625 l 1
 406 692 l 1
 491 692 l 1
 405 574 l 1
 297 574 l 1
165 230 m 1
 164 203 l 1
 164 117 205 83 262 83 c 0
 321 83 370 116 389 173 c 1
 527 173 l 1
 484 49 378 -14 249 -14 c 0
 122 -14 23 52 23 202 c 0
 23 385 137 546 334 546 c 0xfc
 483 546 558 454 558 336 c 0
 558 302 551 262 541 230 c 1
 165 230 l 1
320 449 m 0
 248 449 203 394 180 320 c 1
 417 320 l 1
 418 329 418 336 418 343 c 0
 418 409 383 449 320 449 c 0
EndSplineSet
EndChar

StartChar: Gbreve
Encoding: 286 286 33
Width: 769
GlyphClass: 2
Flags: MW
HStem: -14 103<313 356> 0 21G<529 640 529 529> 244 108<424 550 404 702> 601 103<385.5 497.5> 725 72<509.5 540 509.5 549>
VStem: 59 149<220 380 220 401> 412.43 75.57 589 139<456 466 466 466>
AnchorPoint: "Anchor-0" 316 0 basechar 0
LayerCount: 2
Fore
SplineSet
513 725 m 0xbf
 425 725 404 786 415 847 c 1
 488 847 l 1
 484 816 494 797 525 797 c 0
 555 797 574 813 582 847 c 1
 655 847 l 1
 641 765 585 725 513 725 c 0xbf
472 704 m 0xb7
 659 704 738 602 728 466 c 1
 727 456 l 1
 589 456 l 1
 589 466 l 1
 588 561 543 601 452 601 c 0
 319 601 208 476 208 284 c 0
 208 156 268 89 358 89 c 0xb7
 447 89 520 147 550 244 c 1
 404 244 l 1
 424 352 l 1
 702 352 l 1
 640 0 l 1
 529 0 l 1x77
 539 111 l 1
 496 42 l 1
 451 4 394 -14 318 -14 c 0
 155 -14 59 94 59 267 c 0
 59 535 252 704 472 704 c 0xb7
EndSplineSet
Position2: "'cpsp' Capital Spacing in Latin lookup 0 subtable" dx=5 dy=0 dh=10 dv=0
EndChar

StartChar: gbreve
Encoding: 287 287 147
Width: 649
GlyphClass: 2
Flags: MW
HStem: -216 103<203 281 203 312.5> -11 97<243 254> 449 83 449 97<288.5 359 231 391> 567 71<380 412.5 380 420.5> 567 126<338.5 362 288 420.5>
VStem: -5 135<-34 -33> 22 147<174 276.5 174 286> 285.18 76.82
LayerCount: 2
Fore
SplineSet
385 567 m 0xd580
 292 567 277 630 288 693 c 1
 362 693 l 1xd580
 358 663 362 638 398 638 c 0xd980
 427 638 446 655 455 693 c 1
 529 693 l 1
 513 606 456 567 385 567 c 0xd580
633 532 m 1xe180
 563 133 l 2
 557 100 549 59 543 30 c 0
 509 -136 407 -216 218 -216 c 0
 71 -216 -14 -151 -5 -34 c 1
 -4 -24 l 1
 131 -24 l 1
 130 -33 l 1xd280
 127 -82 167 -113 239 -113 c 0
 323 -113 383 -70 403 15 c 0
 407 35 412 57 416 80 c 2
 417 86 l 1
 365 26 l 1
 332 3 281 -11 227 -11 c 0
 94 -11 22 74 22 199 c 0
 22 373 125 546 337 546 c 0
 381 546 433 533 457 512 c 1
 482 455 l 1xd180
 496 532 l 1
 633 532 l 1xe180
278 86 m 0
 354 86 424 131 447 260 c 1
 446 251 l 1
 453 291 l 1
 452 286 l 1
 466 369 440 449 342 449 c 0
 235 449 169 336 169 217 c 0xd180
 169 131 208 86 278 86 c 0
EndSplineSet
EndChar

StartChar: gdotaccent
Encoding: 289 289 149
Width: 649
GlyphClass: 2
Flags: MW
HStem: -216 103<203 281 203 312.5> -11 97<243 254> 449 83 449 97<288.5 359 231 391> 584 146<385.5 420.5>
VStem: -5 135<-34 -33> 22 147<174 276.5 174 286> 327 152<646.5 667.5>
LayerCount: 2
Fore
SplineSet
393 584 m 0xdb
 352 584 327 608 327 646 c 0
 327 689 358 730 413 730 c 0
 454 730 479 705 479 668 c 0
 479 625 448 584 393 584 c 0xdb
633 532 m 1xeb
 563 133 l 2
 557 100 549 59 543 30 c 0
 509 -136 407 -216 218 -216 c 0
 71 -216 -14 -151 -5 -34 c 1
 -4 -24 l 1
 131 -24 l 1
 130 -33 l 1xdd
 127 -82 167 -113 239 -113 c 0
 323 -113 383 -70 403 15 c 0
 407 35 412 57 416 80 c 2
 417 86 l 1
 365 26 l 1
 332 3 281 -11 227 -11 c 0
 94 -11 22 74 22 199 c 0
 22 373 125 546 337 546 c 0
 381 546 433 533 457 512 c 1
 482 455 l 1xdb
 496 532 l 1
 633 532 l 1xeb
278 86 m 0
 354 86 424 131 447 260 c 1
 446 251 l 1
 453 291 l 1
 452 286 l 1
 466 369 440 449 342 449 c 0
 235 449 169 336 169 217 c 0xdb
 169 131 208 86 278 86 c 0
EndSplineSet
EndChar

StartChar: Hbar
Encoding: 294 294 37
Width: 747
GlyphClass: 2
Flags: MW
HStem: 0 21G<34 172 34 34 495 633 495 495> 283 110<241 545 222 564> 491 78<96 121 82 135 273 581 734 759> 491 199<82 294 82 294 258 258 258 294 156 581 720 755 720 720>
VStem: 34 739<0 569>
LayerCount: 2
Fore
SplineSet
759 491 m 1xd8
 720 491 l 1
 633 0 l 1
 495 0 l 1
 545 283 l 1
 222 283 l 1
 172 0 l 1
 34 0 l 1
 121 491 l 1
 82 491 l 1xd8
 96 569 l 1
 135 569 l 1xe8
 156 690 l 1
 294 690 l 1xd8
 273 569 l 1
 596 569 l 1xe8
 617 690 l 1
 755 690 l 1xd8
 734 569 l 1
 773 569 l 1xe8
 759 491 l 1xd8
581 491 m 1
 258 491 l 1
 241 393 l 1
 564 393 l 1
 581 491 l 1
EndSplineSet
Position2: "'cpsp' Capital Spacing in Latin lookup 0 subtable" dx=5 dy=0 dh=10 dv=0
EndChar

StartChar: hbar
Encoding: 295 295 151
Width: 637
GlyphClass: 2
Flags: MW
HStem: 0 21G<32 170 32 32 393 531 393 393> 449 97<368 490.5> 584 78<93 135 79 148 286 376> 584 156<79 300 79 300 272 272 272 300 162 376>
VStem: 454 144<356 450>
LayerCount: 2
Fore
SplineSet
436 546 m 0xd8
 545 546 598 490 598 410 c 0
 598 382 595 357 585 304 c 2
 531 0 l 1
 393 0 l 1
 443 279 l 2
 450 318 454 346 454 366 c 0
 454 415 431 449 368 449 c 0
 299 448 239 389 212 241 c 1
 170 0 l 1
 32 0 l 1
 135 584 l 1
 79 584 l 1xd8
 93 662 l 1
 148 662 l 1xe8
 162 740 l 1
 300 740 l 1xd8
 286 662 l 1
 390 662 l 1xe8
 376 584 l 1
 272 584 l 1
 249 450 l 1
 301 509 l 1
 345 536 385 546 436 546 c 0xd8
EndSplineSet
EndChar

StartChar: Imacron
Encoding: 298 298 45
Width: 287
GlyphClass: 2
Flags: MW
HStem: 0 21G<35 173 35 35> 670 20G<157 295 295 295> 759 76<115 375 102 388>
VStem: 35 353
LayerCount: 2
Fore
SplineSet
375 759 m 1
 102 759 l 1
 115 835 l 1
 388 835 l 1
 375 759 l 1
173 0 m 1
 35 0 l 1
 157 690 l 1
 295 690 l 1
 173 0 l 1
EndSplineSet
Position2: "'cpsp' Capital Spacing in Latin lookup 0 subtable" dx=5 dy=0 dh=10 dv=0
EndChar

StartChar: imacron
Encoding: 299 299 159
Width: 265
GlyphClass: 2
Flags: MW
HStem: 0 21G<17 155 17 17> 512 20G<112 249 249 249> 592 77<69 329 56 342>
VStem: 17 325
LayerCount: 2
Fore
SplineSet
329 592 m 1
 56 592 l 1
 69 669 l 1
 342 669 l 1
 329 592 l 1
155 0 m 1
 17 0 l 1
 112 532 l 1
 249 532 l 1
 155 0 l 1
EndSplineSet
EndChar

StartChar: Iogonek
Encoding: 302 302 46
Width: 287
GlyphClass: 2
Flags: MW
HStem: -223 80<-24.5 89.5> 0 21G<130 173 130 130> 670 20G<157 295 295 295>
VStem: -91 136<-117 -115.5>
LayerCount: 2
Fore
SplineSet
173 0 m 1
 130 0 l 1
 79 -5 45 -63 45 -102 c 0
 45 -132 60 -143 81 -143 c 0
 98 -143 115 -138 133 -125 c 1
 122 -183 l 1
 93 -207 50 -223 1 -223 c 0
 -50 -223 -91 -202 -91 -147 c 0
 -91 -84 -47 -28 35 8 c 1
 36 8 l 1
 157 690 l 1
 295 690 l 1
 173 0 l 1
EndSplineSet
Position2: "'cpsp' Capital Spacing in Latin lookup 0 subtable" dx=5 dy=0 dh=10 dv=0
EndChar

StartChar: iogonek
Encoding: 303 303 160
Width: 265
GlyphClass: 2
Flags: MW
HStem: -223 80<-41.5 72.5> 0 21G<113 155 113 113> 512 20G<112 249 249 249> 584 146<187.5 222.5>
VStem: -108 136<-117 -115.5> 129 152<646.5 667.5>
LayerCount: 2
Fore
SplineSet
215 730 m 0
 256 730 281 705 281 668 c 0
 281 625 250 584 195 584 c 0
 154 584 129 608 129 646 c 0
 129 689 160 730 215 730 c 0
112 532 m 1
 249 532 l 1
 155 0 l 1
 113 0 l 1
 62 -5 28 -63 28 -102 c 0
 28 -132 43 -143 64 -143 c 0
 81 -143 98 -138 116 -125 c 1
 105 -183 l 1
 76 -207 33 -223 -16 -223 c 0
 -67 -223 -108 -202 -108 -147 c 0
 -108 -84 -64 -28 18 8 c 1
 112 532 l 1
EndSplineSet
EndChar

StartChar: Idotaccent
Encoding: 304 304 43
Width: 287
GlyphClass: 2
Flags: MW
HStem: 0 21G<35 173 35 35> 670 20G<157 295 295 295> 729 138<229.5 261>
VStem: 173 144<788.5 807.5>
LayerCount: 2
Fore
SplineSet
255 867 m 0
 293 867 317 844 317 808 c 0
 317 769 287 729 235 729 c 0
 197 729 173 752 173 788 c 0
 173 827 204 867 255 867 c 0
173 0 m 1
 35 0 l 1
 157 690 l 1
 295 690 l 1
 173 0 l 1
EndSplineSet
Position2: "'cpsp' Capital Spacing in Latin lookup 0 subtable" dx=5 dy=0 dh=10 dv=0
EndChar

StartChar: dotlessi
Encoding: 305 305 153
Width: 265
GlyphClass: 2
Flags: MW
HStem: 0 21G<17 155 17 17> 512 20G<112 249 249 249>
VStem: 17 232
LayerCount: 2
Fore
SplineSet
155 0 m 1
 17 0 l 1
 112 532 l 1
 249 532 l 1
 155 0 l 1
EndSplineSet
EndChar

StartChar: IJ
Encoding: 306 306 39
Width: 873
GlyphClass: 2
Flags: MW
HStem: -14 103<501.5 566 501.5 597> 0 21G<35 173 35 35> 670 20G<157 295 295 295 743 880 880 880>
VStem: 303.95 140
LayerCount: 2
Fore
SplineSet
173 0 m 1x70
 35 0 l 1
 157 690 l 1
 295 690 l 1
 173 0 l 1x70
880 690 m 1
 809 283 l 2
 804 254 800 232 789 188 c 0
 762 69 682 -14 512 -14 c 0
 363 -14 287 75 307 216 c 2
 312 251 l 1
 450 251 l 1
 446 216 l 2
 435 124 469 89 534 89 c 0xb0
 598 89 636 126 654 196 c 0
 660 218 664 241 669 269 c 2
 743 690 l 1
 880 690 l 1
EndSplineSet
Position2: "'cpsp' Capital Spacing in Latin lookup 0 subtable" dx=5 dy=0 dh=10 dv=0
EndChar

StartChar: ij
Encoding: 307 307 158
Width: 505
GlyphClass: 2
Flags: MW
HStem: -210 101<155 249.5> 0 21G<17 155 17 17> 512 20G<112 249 249 249 360 498 498 498> 584 146<187.5 222.5 431.5 469.5>
VStem: 129 152<646.5 667.5> 373 155<642 671.5>
LayerCount: 2
Fore
SplineSet
215 730 m 0
 256 730 281 705 281 668 c 0
 281 625 250 584 195 584 c 0
 154 584 129 608 129 646 c 0
 129 689 160 730 215 730 c 0
458 730 m 0
 502 730 528 705 528 669 c 0
 528 615 496 584 443 584 c 0
 399 584 373 608 373 644 c 0
 373 699 405 730 458 730 c 0
155 0 m 1
 17 0 l 1
 112 532 l 1
 249 532 l 1
 155 0 l 1
498 532 m 1
 403 -12 l 2
 399 -32 394 -58 389 -76 c 0
 367 -160 311 -210 188 -210 c 0
 170 -210 153 -209 137 -207 c 1
 155 -109 l 1
 211 -115 241 -101 254 -61 c 0
 258 -47 262 -30 265 -10 c 2
 360 532 l 1
 498 532 l 1
EndSplineSet
EndChar

StartChar: Kcommaaccent
Encoding: 310 310 49
Width: 676
GlyphClass: 2
Flags: MW
HStem: -207 164<171 350 171 350> 0 21G<35 173 35 35 453 623 453 453> 670 20G<157 295 295 295 591 756 756 756>
VStem: 35 721<0 690>
AnchorPoint: "Anchor-0" 297 0 basechar 0
LayerCount: 2
Fore
SplineSet
374 352 m 1
 623 0 l 1
 453 0 l 1
 269 282 l 1
 214 231 l 1
 173 0 l 1
 35 0 l 1
 157 690 l 1
 295 690 l 1
 238 370 l 1
 591 690 l 1
 756 690 l 1
 374 352 l 1
251 -43 m 1
 350 -43 l 1
 350 -52 l 1
 246 -207 l 1
 171 -207 l 1
 251 -43 l 1
EndSplineSet
Position2: "'cpsp' Capital Spacing in Latin lookup 0 subtable" dx=5 dy=0 dh=10 dv=0
EndChar

StartChar: kcommaaccent
Encoding: 311 311 163
Width: 585
GlyphClass: 2
Flags: MW
HStem: -207 164<128 307 128 307> 0 21G<17 155 17 17 381 548 381 381> 512 20G<463 629 629 629> 715 20G<147 285 285 285>
VStem: 17 612<0 532>
AnchorPoint: "Anchor-0" 254 0 basechar 0
LayerCount: 2
Fore
SplineSet
350 283 m 1
 548 0 l 1
 381 0 l 1
 242 215 l 1
 184 164 l 1
 155 0 l 1
 17 0 l 1
 147 735 l 1
 285 735 l 1
 207 292 l 1
 463 532 l 1
 629 532 l 1
 350 283 l 1
208 -43 m 1
 307 -43 l 1
 307 -52 l 1
 203 -207 l 1
 128 -207 l 1
 208 -43 l 1
EndSplineSet
EndChar

StartChar: Lacute
Encoding: 313 313 51
Width: 599
GlyphClass: 2
Flags: MW
HStem: 0 115<193 532> 670 20G<157 295 295 295> 735 112<189 406 189 406>
VStem: 35 518<0 115>
AnchorPoint: "Anchor-0" 281 0 basechar 0
LayerCount: 2
Fore
SplineSet
267 735 m 1
 189 735 l 1
 282 847 l 1
 406 847 l 1
 267 735 l 1
553 115 m 1
 532 0 l 1
 35 0 l 1
 157 690 l 1
 295 690 l 1
 193 115 l 1
 553 115 l 1
EndSplineSet
Position2: "'cpsp' Capital Spacing in Latin lookup 0 subtable" dx=5 dy=0 dh=10 dv=0
EndChar

StartChar: lacute
Encoding: 314 314 165
Width: 280
GlyphClass: 2
Flags: MW
HStem: -7 94<99 229> 715 20G<143 281 281 281> 781 118<169 392 169 392>
VStem: 29 145<39.5 127.5> 29 363
AnchorPoint: "Anchor-0" 98 0 basechar 0
LayerCount: 2
Fore
SplineSet
247 781 m 1xe8
 169 781 l 1
 268 899 l 1
 392 899 l 1
 247 781 l 1xe8
281 735 m 1
 181 174 l 2
 177 150 174 134 174 121 c 0
 174 90 190 84 229 87 c 1
 213 -2 l 1
 189 -6 164 -7 133 -7 c 0
 65 -7 29 12 29 67 c 0
 29 90 33 119 43 171 c 2xf0
 143 735 l 1
 281 735 l 1
EndSplineSet
EndChar

StartChar: Lcommaaccent
Encoding: 315 315 53
Width: 599
GlyphClass: 2
Flags: MW
HStem: -207 164<155 334 155 334> 0 115<193 532> 670 20G<157 295 295 295>
VStem: 35 518<0 115>
AnchorPoint: "Anchor-0" 281 0 basechar 0
LayerCount: 2
Fore
SplineSet
553 115 m 1
 532 0 l 1
 35 0 l 1
 157 690 l 1
 295 690 l 1
 193 115 l 1
 553 115 l 1
235 -43 m 1
 334 -43 l 1
 334 -52 l 1
 230 -207 l 1
 155 -207 l 1
 235 -43 l 1
EndSplineSet
Position2: "'cpsp' Capital Spacing in Latin lookup 0 subtable" dx=5 dy=0 dh=10 dv=0
EndChar

StartChar: lcommaaccent
Encoding: 316 316 167
Width: 280
GlyphClass: 2
Flags: MW
HStem: -207 164<-28 151 -28 151> -7 94<99 229> 715 20G<143 281 281 281>
VStem: -28 309 29 145<39.5 127.5>
AnchorPoint: "Anchor-0" 98 0 basechar 0
LayerCount: 2
Fore
SplineSet
281 735 m 1xf0
 181 174 l 2
 177 150 174 134 174 121 c 0
 174 90 190 84 229 87 c 1
 213 -2 l 1
 189 -6 164 -7 133 -7 c 0
 65 -7 29 12 29 67 c 0
 29 90 33 119 43 171 c 2xe8
 143 735 l 1
 281 735 l 1xf0
151 -52 m 1
 47 -207 l 1
 -28 -207 l 1
 52 -43 l 1
 151 -43 l 1
 151 -52 l 1
EndSplineSet
EndChar

StartChar: Lcaron
Encoding: 317 317 52
Width: 599
GlyphClass: 2
Flags: MW
HStem: 0 115<193 532> 670 20G<157 295 295 295>
VStem: 35 518<0 115>
AnchorPoint: "Anchor-0" 281 0 basechar 0
LayerCount: 2
Fore
SplineSet
553 115 m 1
 532 0 l 1
 35 0 l 1
 157 690 l 1
 295 690 l 1
 193 115 l 1
 553 115 l 1
EndSplineSet
Position2: "'cpsp' Capital Spacing in Latin lookup 0 subtable" dx=5 dy=0 dh=10 dv=0
EndChar

StartChar: Ldot
Encoding: 319 319 54
Width: 599
GlyphClass: 2
Flags: MW
HStem: 0 115<193 532> 327 146<410 437> 670 20G<157 295 295 295>
VStem: 346 155<387.5 412.5>
AnchorPoint: "Anchor-0" 281 0 basechar 0
LayerCount: 2
Fore
SplineSet
553 115 m 1
 532 0 l 1
 35 0 l 1
 157 690 l 1
 295 690 l 1
 193 115 l 1
 553 115 l 1
411 327 m 0
 372 327 346 351 346 389 c 0
 346 436 384 473 436 473 c 0
 475 473 501 449 501 411 c 0
 501 364 463 327 411 327 c 0
EndSplineSet
Ligature2: "Ligature Substitution lookup 6 subtable" L periodcentered
Position2: "'cpsp' Capital Spacing in Latin lookup 0 subtable" dx=5 dy=0 dh=10 dv=0
EndChar

StartChar: ldot
Encoding: 320 320 168
Width: 414
GlyphClass: 2
Flags: MW
HStem: -7 94<99 229> 321 160<337 364.5> 715 20G<143 281 281 281>
VStem: 29 145<39.5 127.5> 269 163<389 413>
AnchorPoint: "Anchor-0" 98 0 basechar 0
LayerCount: 2
Fore
SplineSet
281 735 m 1
 181 174 l 2
 177 150 174 134 174 121 c 0
 174 90 190 84 229 87 c 1
 213 -2 l 1
 189 -6 164 -7 133 -7 c 0
 65 -7 29 12 29 67 c 0
 29 90 33 119 43 171 c 2
 143 735 l 1
 281 735 l 1
365 481 m 0
 403 481 432 458 432 418 c 0
 432 360 392 321 337 321 c 0
 299 321 269 345 269 384 c 0
 269 442 309 481 365 481 c 0
EndSplineSet
Ligature2: "Ligature Substitution lookup 6 subtable" l periodcentered
EndChar

StartChar: Lslash
Encoding: 321 321 55
Width: 639
GlyphClass: 2
Flags: MW
HStem: 0 115<233 573> 670 20G<197 335 335 335>
VStem: 15 578<115 230>
AnchorPoint: "Anchor-0" 321 0 basechar 0
LayerCount: 2
Fore
SplineSet
593 115 m 1
 573 0 l 1
 75 0 l 1
 126 286 l 1
 15 230 l 1
 31 322 l 1
 142 378 l 1
 197 690 l 1
 335 690 l 1
 293 455 l 1
 407 512 l 1
 390 420 l 1
 277 363 l 1
 233 115 l 1
 593 115 l 1
EndSplineSet
Position2: "'cpsp' Capital Spacing in Latin lookup 0 subtable" dx=5 dy=0 dh=10 dv=0
EndChar

StartChar: lslash
Encoding: 322 322 169
Width: 314
GlyphClass: 2
Flags: MW
HStem: -7 94<123.5 254> 715 20G<167 305 305 305>
VStem: 8 308<194 451> 54 144<39.5 127.5>
AnchorPoint: "Anchor-0" 123 0 basechar 0
LayerCount: 2
Fore
SplineSet
231 318 m 1xe0
 205 174 l 2
 201 150 198 134 198 121 c 0
 198 90 214 84 254 87 c 1
 238 -2 l 1
 213 -6 188 -7 157 -7 c 0
 90 -7 54 12 54 67 c 0
 54 90 58 119 67 171 c 2
 78 233 l 1
 8 194 l 1
 25 289 l 1
 95 328 l 1xd0
 167 735 l 1
 305 735 l 1
 248 413 l 1
 316 451 l 1
 299 356 l 1
 231 318 l 1xe0
EndSplineSet
EndChar

StartChar: Nacute
Encoding: 323 323 58
Width: 755
GlyphClass: 2
Flags: MW
HStem: 0 21G<35 173 35 35 452 641 452 452> 0 153<532 532 532 641 452 532> 524 166<264 264> 670 20G<157 340 340 340 625 763 763 763> 735 112<426 643 426 643>
VStem: 35 728<0 690>
AnchorPoint: "Anchor-0" 341 0 basechar 0
LayerCount: 2
Fore
SplineSet
504 735 m 1x9c
 426 735 l 1
 519 847 l 1
 643 847 l 1
 504 735 l 1x9c
763 690 m 1
 641 0 l 1
 452 0 l 1
 264 524 l 1xac
 173 0 l 1
 35 0 l 1
 157 690 l 1
 340 690 l 1
 532 153 l 1x5c
 625 690 l 1
 763 690 l 1
EndSplineSet
Position2: "'cpsp' Capital Spacing in Latin lookup 0 subtable" dx=5 dy=0 dh=10 dv=0
EndChar

StartChar: nacute
Encoding: 324 324 172
Width: 621
GlyphClass: 2
Flags: MW
HStem: 0 21G<17 155 17 17 378 516 378 378> 449 83 449 97<353 475.5> 574 118<323 546 323 546>
VStem: 439 144<356 450>
AnchorPoint: "Anchor-0" 264 0 basechar 0
LayerCount: 2
Fore
SplineSet
401 574 m 1xd8
 323 574 l 1
 422 692 l 1
 546 692 l 1
 401 574 l 1xd8
421 546 m 0xb8
 530 546 583 490 583 410 c 0
 583 382 580 357 570 304 c 2
 516 0 l 1
 378 0 l 1
 428 279 l 2
 435 318 439 346 439 366 c 0
 439 415 416 449 353 449 c 0xb8
 284 448 223 389 197 241 c 2
 155 0 l 1
 17 0 l 1
 111 532 l 1
 248 532 l 1
 234 451 l 1xd8
 286 509 l 1
 329 536 370 546 421 546 c 0xb8
EndSplineSet
EndChar

StartChar: Ncommaaccent
Encoding: 325 325 60
Width: 755
GlyphClass: 2
Flags: MW
HStem: -207 164<215 394 215 394> 0 21G<35 173 35 35 452 641 452 452> 0 153<532 532 532 641 452 532> 524 166<264 264> 670 20G<157 340 340 340 625 763 763 763>
VStem: 35 728<0 690>
AnchorPoint: "Anchor-0" 341 0 basechar 0
LayerCount: 2
Fore
SplineSet
763 690 m 1xcc
 641 0 l 1
 452 0 l 1
 264 524 l 1xd4
 173 0 l 1
 35 0 l 1
 157 690 l 1
 340 690 l 1
 532 153 l 1xac
 625 690 l 1
 763 690 l 1xcc
295 -43 m 1
 394 -43 l 1
 394 -52 l 1
 290 -207 l 1
 215 -207 l 1
 295 -43 l 1
EndSplineSet
Position2: "'cpsp' Capital Spacing in Latin lookup 0 subtable" dx=5 dy=0 dh=10 dv=0
EndChar

StartChar: ncommaaccent
Encoding: 326 326 174
Width: 621
GlyphClass: 2
Flags: MW
HStem: -207 164<138 317 138 317> 0 21G<17 155 17 17 378 516 378 378> 449 83 449 97<353 475.5>
VStem: 439 144<356 450>
AnchorPoint: "Anchor-0" 264 0 basechar 0
LayerCount: 2
Fore
SplineSet
421 546 m 0xd8
 530 546 583 490 583 410 c 0
 583 382 580 357 570 304 c 2
 516 0 l 1
 378 0 l 1
 428 279 l 2
 435 318 439 346 439 366 c 0
 439 415 416 449 353 449 c 0xd8
 284 448 223 389 197 241 c 2
 155 0 l 1
 17 0 l 1
 111 532 l 1
 248 532 l 1
 234 451 l 1xe8
 286 509 l 1
 329 536 370 546 421 546 c 0xd8
218 -43 m 1
 317 -43 l 1
 317 -52 l 1
 213 -207 l 1
 138 -207 l 1
 218 -43 l 1
EndSplineSet
EndChar

StartChar: ncaron
Encoding: 328 328 173
Width: 621
GlyphClass: 2
Flags: MW
HStem: 0 21G<17 155 17 17 378 516 378 378> 449 83 449 97<353 475.5> 574 118<315 315 315 358 272 423>
VStem: 439 144<356 450>
AnchorPoint: "Anchor-0" 264 0 basechar 0
LayerCount: 2
Fore
SplineSet
315 574 m 1xd8
 272 692 l 1
 358 692 l 1
 378 625 l 1
 424 692 l 1
 509 692 l 1
 423 574 l 1
 315 574 l 1xd8
421 546 m 0xb8
 530 546 583 490 583 410 c 0
 583 382 580 357 570 304 c 2
 516 0 l 1
 378 0 l 1
 428 279 l 2
 435 318 439 346 439 366 c 0
 439 415 416 449 353 449 c 0xb8
 284 448 223 389 197 241 c 2
 155 0 l 1
 17 0 l 1
 111 532 l 1
 248 532 l 1
 234 451 l 1xd8
 286 509 l 1
 329 536 370 546 421 546 c 0xb8
EndSplineSet
EndChar

StartChar: Eng
Encoding: 330 330 61
Width: 756
GlyphClass: 2
Flags: MW
HStem: 0 21G<36 174 36 36> 520 170<262 262> 670 20G<157 340 340 340 625 763 763 763>
VStem: 36 727<0 690>
LayerCount: 2
Fore
SplineSet
763 690 m 1xb0
 631 -62 l 2
 609 -189 571 -223 392 -223 c 1
 410 -119 l 1
 468 -116 487 -94 494 -56 c 2
 499 -25 l 1
 262 520 l 1xd0
 174 0 l 1
 36 0 l 1
 157 690 l 1
 340 690 l 1
 542 196 l 1
 625 690 l 1
 763 690 l 1xb0
EndSplineSet
Position2: "'cpsp' Capital Spacing in Latin lookup 0 subtable" dx=5 dy=0 dh=10 dv=0
EndChar

StartChar: eng
Encoding: 331 331 175
Width: 621
GlyphClass: 2
Flags: MW
HStem: -174 104<293 321.5 293 342> 0 21G<17 155 17 17> 449 83 449 97<353 475.5>
VStem: 439 144<356 450>
LayerCount: 2
Fore
SplineSet
421 546 m 0xd8
 530 546 583 490 583 410 c 0
 583 382 580 357 570 304 c 2
 513 -18 l 2
 509 -39 505 -52 500 -66 c 0
 467 -157 409 -174 275 -174 c 1
 293 -70 l 1
 350 -70 368 -53 375 -15 c 2
 428 279 l 2
 435 318 439 346 439 366 c 0
 439 415 416 449 353 449 c 0xd8
 284 448 223 389 197 241 c 2
 155 0 l 1
 17 0 l 1
 111 532 l 1
 248 532 l 1
 234 451 l 1xe8
 286 509 l 1
 329 536 370 546 421 546 c 0xd8
EndSplineSet
EndChar

StartChar: Omacron
Encoding: 332 332 69
Width: 781
GlyphClass: 2
Flags: MW
HStem: -14 103<325 461 325 491.5> 601 103<366 501.5> 759 76<363 623 350 636>
VStem: 62 147<229 358.5 229 403> 618 147<331.5 461>
LayerCount: 2
Fore
SplineSet
623 759 m 1
 350 759 l 1
 363 835 l 1
 636 835 l 1
 623 759 l 1
458 704 m 0
 656 704 765 572 765 405 c 0
 765 169 614 -14 369 -14 c 0
 171 -14 62 118 62 285 c 0
 62 521 213 704 458 704 c 0
380 89 m 0
 542 89 618 261 618 402 c 0
 618 520 556 601 447 601 c 0
 285 601 209 429 209 288 c 0
 209 170 270 89 380 89 c 0
EndSplineSet
Position2: "'cpsp' Capital Spacing in Latin lookup 0 subtable" dx=5 dy=0 dh=10 dv=0
EndChar

StartChar: omacron
Encoding: 333 333 183
Width: 616
GlyphClass: 2
Flags: MW
HStem: -14 97<245.5 337 245.5 380.5> 449 97<279.5 371.5> 592 77<243 503 230 516>
VStem: 25 147<185 280 185 301.5> 445 146<252 347>
LayerCount: 2
Fore
SplineSet
503 592 m 1
 230 592 l 1
 243 669 l 1
 516 669 l 1
 503 592 l 1
345 546 m 0
 514 546 591 442 591 310 c 0
 591 151 489 -14 272 -14 c 0
 103 -14 25 90 25 222 c 0
 25 381 127 546 345 546 c 0
284 83 m 0
 390 83 445 197 445 307 c 0
 445 387 410 449 333 449 c 0
 226 449 172 335 172 225 c 0
 172 145 207 83 284 83 c 0
EndSplineSet
EndChar

StartChar: Ohungarumlaut
Encoding: 336 336 68
Width: 781
GlyphClass: 2
Flags: MW
HStem: -14 103<325 461 325 491.5> 601 103<366 501.5> 736 111<335 553 335 553 501 553 429 579 501 501>
VStem: 62 147<229 358.5 229 403> 618 147<331.5 461>
LayerCount: 2
Fore
SplineSet
413 736 m 1
 335 736 l 1
 429 847 l 1
 553 847 l 1
 413 736 l 1
501 736 m 1
 594 847 l 1
 718 847 l 1
 579 736 l 1
 501 736 l 1
458 704 m 0
 656 704 765 572 765 405 c 0
 765 169 614 -14 369 -14 c 0
 171 -14 62 118 62 285 c 0
 62 521 213 704 458 704 c 0
380 89 m 0
 542 89 618 261 618 402 c 0
 618 520 556 601 447 601 c 0
 285 601 209 429 209 288 c 0
 209 170 270 89 380 89 c 0
EndSplineSet
Position2: "'cpsp' Capital Spacing in Latin lookup 0 subtable" dx=5 dy=0 dh=10 dv=0
EndChar

StartChar: ohungarumlaut
Encoding: 337 337 182
Width: 616
GlyphClass: 2
Flags: MW
HStem: -14 97<245.5 337 245.5 380.5> 449 97<279.5 371.5> 574 118<222 444 222 444 393 444 320 471 393 393>
VStem: 25 147<185 280 185 301.5> 445 146<252 347>
LayerCount: 2
Fore
SplineSet
300 574 m 1
 222 574 l 1
 320 692 l 1
 444 692 l 1
 300 574 l 1
393 574 m 1
 491 692 l 1
 615 692 l 1
 471 574 l 1
 393 574 l 1
345 546 m 0xd8
 514 546 591 442 591 310 c 0
 591 151 489 -14 272 -14 c 0
 103 -14 25 90 25 222 c 0
 25 381 127 546 345 546 c 0xd8
284 83 m 0
 390 83 445 197 445 307 c 0
 445 387 410 449 333 449 c 0
 226 449 172 335 172 225 c 0
 172 145 207 83 284 83 c 0
EndSplineSet
EndChar

StartChar: OE
Encoding: 338 338 72
Width: 1128
GlyphClass: 2
Flags: MW
HStem: -14 103<319 369.5> 0 109<707 1048> 291 109<759 1065 739 1084> 582 108<791 791 791 1140> 601 103<370.5 498 317.5 534.5>
VStem: 60 145<216.5 351.5 216.5 374>
LayerCount: 2
Fore
SplineSet
791 582 m 1x74
 759 400 l 1
 1084 400 l 1
 1065 291 l 1
 739 291 l 1
 707 109 l 1
 1067 109 l 1
 1048 0 l 1
 550 0 l 1x74
 571 117 l 1
 530 50 l 1
 469 2 414 -14 325 -14 c 0
 165 -14 60 84 60 276 c 0
 60 472 184 704 451 704 c 0
 545 704 591 688 633 639 c 1xac
 651 571 l 1
 672 690 l 1
 1160 690 l 1
 1140 582 l 1
 791 582 l 1x74
370 89 m 0xac
 492 89 582 187 611 345 c 1
 632 469 609 601 460 601 c 0
 281 601 205 422 205 281 c 0
 205 152 268 89 370 89 c 0xac
EndSplineSet
Position2: "'cpsp' Capital Spacing in Latin lookup 0 subtable" dx=5 dy=0 dh=10 dv=0
EndChar

StartChar: oe
Encoding: 339 339 186
Width: 988
GlyphClass: 2
Flags: MW
HStem: -14 97<239 300 639.5 698> 230 90<593 825 593 949 572 825> 447 97<276 372.5 719 764.5>
VStem: 22 145<173.5 260 173.5 277.5> 444 127<157.5 360> 827 139<341 378>
LayerCount: 2
Fore
SplineSet
949 230 m 1
 572 230 l 1
 571 218 571 208 571 201 c 0
 571 114 611 83 668 83 c 0
 728 83 776 116 795 173 c 1
 933 173 l 1
 885 49 779 -14 652 -14 c 0
 575 -14 509 15 477 91 c 1
 421 18 343 -14 257 -14 c 0
 103 -14 22 74 22 208 c 0
 22 347 114 544 349 544 c 0
 441 544 508 512 540 436 c 1
 599 512 676 544 762 544 c 0
 899 544 966 454 966 337 c 0
 966 300 959 261 949 230 c 1
273 83 m 0
 398 83 444 231 444 322 c 0
 444 398 407 447 338 447 c 0
 214 447 167 307 167 213 c 0
 167 134 205 83 273 83 c 0
735 447 m 0
 671 447 619 406 593 320 c 1
 825 320 l 1
 827 330 827 338 827 344 c 0
 827 412 794 447 735 447 c 0
EndSplineSet
EndChar

StartChar: racute
Encoding: 341 341 191
Width: 374
GlyphClass: 2
Flags: MW
HStem: 0 21G<17 155 17 17> 521 20G<423 423> 525 20G<370 392.5> 574 118<202 425 202 425>
VStem: 17 408
AnchorPoint: "Anchor-0" 86 0 basechar 0
LayerCount: 2
Fore
SplineSet
280 574 m 1xd8
 202 574 l 1
 301 692 l 1
 425 692 l 1
 280 574 l 1xd8
231 433 m 1
 288 509 l 1
 317 533 355 545 385 545 c 0xb8
 400 545 411 544 423 541 c 1
 403 430 l 1
 311 439 227 404 198 244 c 2
 155 0 l 1
 17 0 l 1
 110 530 l 1
 248 530 l 1
 231 433 l 1
EndSplineSet
EndChar

StartChar: Rcommaaccent
Encoding: 342 342 79
Width: 645
GlyphClass: 2
Flags: MW
HStem: -207 164<141 320 141 320> 0 21G<35 173 35 35 435 584 435 435> 278 103<240 303 222 336> 582 108<276 377 276 276>
VStem: 426 138<169 189.5 96.5 201> 510 151<479.5 527.5>
AnchorPoint: "Anchor-0" 267 0 basechar 0
LayerCount: 2
Fore
SplineSet
661 535 m 0xf4
 661 424 590 357 486 331 c 1
 545 311 564 256 564 123 c 0
 564 70 570 29 584 0 c 1
 435 0 l 1
 429 33 427 69 426 169 c 0
 426 233 406 273 356 277 c 0xf8
 338 278 321 278 303 278 c 2
 222 278 l 1
 173 0 l 1
 35 0 l 1
 157 690 l 1
 409 690 l 2
 449 690 475 689 509 685 c 0
 595 675 661 630 661 535 c 0xf4
393 382 m 0
 455 388 510 422 510 502 c 0
 510 553 479 574 434 579 c 0
 418 581 401 582 377 582 c 2
 276 582 l 1
 240 381 l 1
 336 381 l 2
 360 381 376 381 393 382 c 0
221 -43 m 1xf8
 320 -43 l 1
 320 -52 l 1
 216 -207 l 1
 141 -207 l 1
 221 -43 l 1xf8
EndSplineSet
Position2: "'cpsp' Capital Spacing in Latin lookup 0 subtable" dx=5 dy=0 dh=10 dv=0
EndChar

StartChar: rcommaaccent
Encoding: 343 343 193
Width: 374
GlyphClass: 2
Flags: MW
HStem: -207 164<-40 139 -40 139> 0 21G<17 155 17 17> 521 20G<423 423> 525 20G<370 392.5>
VStem: -40 463
AnchorPoint: "Anchor-0" 86 0 basechar 0
LayerCount: 2
Fore
SplineSet
385 545 m 0xd8
 400 545 411 544 423 541 c 1xe8
 403 430 l 1
 311 439 227 404 198 244 c 2
 155 0 l 1
 17 0 l 1
 110 530 l 1
 248 530 l 1
 231 433 l 1
 288 509 l 1
 317 533 355 545 385 545 c 0xd8
40 -43 m 1
 139 -43 l 1
 139 -52 l 1
 35 -207 l 1
 -40 -207 l 1
 40 -43 l 1
EndSplineSet
EndChar

StartChar: rcaron
Encoding: 345 345 192
Width: 374
GlyphClass: 2
Flags: MW
HStem: 0 21G<17 155 17 17> 521 20G<423 423> 525 20G<370 392.5> 574 118<194 194 194 237 151 302>
VStem: 17 406
AnchorPoint: "Anchor-0" 86 0 basechar 0
LayerCount: 2
Fore
SplineSet
194 574 m 1xd8
 151 692 l 1
 237 692 l 1
 257 625 l 1
 303 692 l 1
 388 692 l 1
 302 574 l 1
 194 574 l 1xd8
385 545 m 0xb8
 400 545 411 544 423 541 c 1xd8
 403 430 l 1
 311 439 227 404 198 244 c 2
 155 0 l 1
 17 0 l 1
 110 530 l 1
 248 530 l 1
 231 433 l 1
 288 509 l 1
 317 533 355 545 385 545 c 0xb8
EndSplineSet
EndChar

StartChar: sacute
Encoding: 347 347 195
Width: 486
GlyphClass: 2
Flags: MW
HStem: -20 91<197 245 197 285> 453 91<239.5 285.5> 574 118<248 471 248 471>
VStem: 48 145<373.5 410 373.5 422> 302 145<116 156> 335 137<376 376>
AnchorPoint: "Anchor-0" 193 0 basechar 0
LayerCount: 2
Fore
SplineSet
326 574 m 1xf8
 248 574 l 1
 347 692 l 1
 471 692 l 1
 326 574 l 1xf8
269 544 m 0xd4
 409 544 468 473 472 376 c 1
 335 376 l 1xd4
 330 425 307 453 264 453 c 0
 215 453 193 426 193 394 c 0
 193 353 221 335 295 311 c 0
 399 278 447 233 447 150 c 0
 447 46 355 -20 215 -20 c 0
 67 -20 -6 53 -11 156 c 1
 127 156 l 1
 133 94 172 71 222 71 c 0
 268 71 302 95 302 137 c 0xd8
 302 175 275 197 190 226 c 0
 105 254 48 288 48 377 c 0
 48 467 123 544 269 544 c 0xd4
EndSplineSet
EndChar

StartChar: Scedilla
Encoding: 350 350 83
Width: 599
GlyphClass: 2
Flags: MW
HStem: -210 57<183.5 214.5 183 239> -84 173<169 316> -12 21G<218 218> 601 103<321.5 389>
VStem: 94 149<479.5 534.5 479.5 544.5> 260 86<-127.5 -102.5> 409 150<160.5 216.5> 456 140<487 487>
AnchorPoint: "Anchor-0" 262 0 basechar 0
LayerCount: 2
Fore
SplineSet
596 487 m 1xb9
 456 487 l 1
 460 557 425 601 353 601 c 0
 290 601 243 566 243 503 c 0xb9
 243 456 279 429 372 406 c 0
 499 375 559 314 559 219 c 0
 559 78 437 -4 289 -13 c 1
 270 -41 l 1
 320 -49 346 -75 346 -113 c 0
 346 -180 279 -210 199 -210 c 0
 168 -210 144 -208 128 -202 c 1
 139 -146 l 1
 156 -152 173 -153 193 -153 c 0
 236 -153 260 -139 260 -116 c 0
 260 -89 224 -78 169 -84 c 1xde
 218 -12 l 1xbe
 87 1 5 73 16 204 c 1
 156 204 l 1
 158 128 209 89 280 89 c 0
 352 89 409 128 409 193 c 0xda
 409 240 374 272 289 294 c 0
 169 324 94 371 94 470 c 0
 94 619 225 704 371 704 c 0
 535 704 603 610 596 487 c 1xb9
EndSplineSet
Substitution2: "'locl' Localized Forms in Latin lookup 2 subtable" Scommaaccent
Substitution2: "'locl' Localized Forms in Latin lookup 1 subtable" Scommaaccent
Substitution2: "'aalt' Access All Alternates in Latin lookup 0 subtable" Scommaaccent
Position2: "'cpsp' Capital Spacing in Latin lookup 0 subtable" dx=5 dy=0 dh=10 dv=0
EndChar

StartChar: scedilla
Encoding: 351 351 197
Width: 486
GlyphClass: 2
Flags: MW
HStem: -210 57<117 148 116.5 172.5> -84 240<103 103> -15 21G<150 150> 453 91<239.5 285.5>
VStem: 48 145<373.5 410 373.5 422> 194 86<-127.5 -102.5> 302 145<116 156> 335 137<376 376>
AnchorPoint: "Anchor-0" 193 0 basechar 0
LayerCount: 2
Fore
SplineSet
295 311 m 0xba
 399 278 447 233 447 150 c 0xd6
 447 47 356 -19 218 -20 c 1
 203 -41 l 1
 253 -49 280 -75 280 -113 c 0
 280 -180 212 -210 133 -210 c 0
 101 -210 78 -208 61 -202 c 1
 72 -146 l 1
 90 -152 107 -153 126 -153 c 0
 170 -153 194 -139 194 -116 c 0
 194 -89 158 -78 103 -84 c 1xd5
 150 -15 l 1xb5
 45 4 -7 69 -11 156 c 1
 127 156 l 1
 133 94 172 71 222 71 c 0
 268 71 302 95 302 137 c 0xd6
 302 175 275 197 190 226 c 0
 105 254 48 288 48 377 c 0
 48 467 123 544 269 544 c 0
 409 544 468 473 472 376 c 1
 335 376 l 1xb9
 330 425 307 453 264 453 c 0
 215 453 193 426 193 394 c 0
 193 353 221 335 295 311 c 0xba
EndSplineSet
Substitution2: "'locl' Localized Forms in Latin lookup 2 subtable" scommaaccent
Substitution2: "'locl' Localized Forms in Latin lookup 1 subtable" scommaaccent
Substitution2: "'aalt' Access All Alternates in Latin lookup 0 subtable" scommaaccent
EndChar

StartChar: Scaron
Encoding: 352 352 82
Width: 599
GlyphClass: 2
Flags: MW
HStem: -14 103<244.5 316 244.5 342.5> 601 103<321.5 389> 735 112<321 321 321 363 427 430>
VStem: 94 149<479.5 534.5 479.5 544.5> 409 150<160.5 216.5> 456 140<487 487>
AnchorPoint: "Anchor-0" 262 0 basechar 0
LayerCount: 2
Fore
SplineSet
321 735 m 1xf8
 276 847 l 1
 363 847 l 1
 383 782 l 1
 427 847 l 1
 514 847 l 1
 430 735 l 1
 321 735 l 1xf8
596 487 m 1xf4
 456 487 l 1xf4
 460 557 425 601 353 601 c 0
 290 601 243 566 243 503 c 0
 243 456 279 429 372 406 c 0
 499 375 559 314 559 219 c 0
 559 70 422 -14 263 -14 c 0
 107 -14 4 59 16 204 c 1
 156 204 l 1
 158 128 209 89 280 89 c 0
 352 89 409 128 409 193 c 0xf8
 409 240 374 272 289 294 c 0
 169 324 94 371 94 470 c 0
 94 619 225 704 371 704 c 0
 535 704 603 610 596 487 c 1xf4
EndSplineSet
Position2: "'cpsp' Capital Spacing in Latin lookup 0 subtable" dx=5 dy=0 dh=10 dv=0
EndChar

StartChar: Tcedilla
Encoding: 354 354 88
Width: 623
GlyphClass: 2
Flags: MW
HStem: -210 57<201.5 232.5 201 257> 0 21G<210 244 210 210 317 348 317 317> 582 108<98 313 78 704 451 451 451 684>
VStem: 278 86<-127.5 -102.5>
AnchorPoint: "Anchor-0" 279 0 basechar 0
LayerCount: 2
Fore
SplineSet
317 0 m 1
 288 -41 l 1
 338 -49 364 -75 364 -113 c 0
 364 -180 297 -210 217 -210 c 0
 186 -210 162 -208 146 -202 c 1
 157 -146 l 1
 174 -152 191 -153 211 -153 c 0
 254 -153 278 -139 278 -116 c 0
 278 -89 242 -78 187 -84 c 1
 244 0 l 1
 210 0 l 1
 313 582 l 1
 78 582 l 1
 98 690 l 1
 704 690 l 1
 684 582 l 1
 451 582 l 1
 348 0 l 1
 317 0 l 1
EndSplineSet
Substitution2: "'locl' Localized Forms in Latin lookup 2 subtable" uni021A
Substitution2: "'locl' Localized Forms in Latin lookup 1 subtable" uni021A
Substitution2: "'aalt' Access All Alternates in Latin lookup 0 subtable" uni021A
Position2: "'cpsp' Capital Spacing in Latin lookup 0 subtable" dx=5 dy=0 dh=10 dv=0
EndChar

StartChar: tcedilla
Encoding: 355 355 203
Width: 354
GlyphClass: 2
Flags: MW
HStem: -210 57<72 103 71.5 127.5> -11 98.02 -11 101 -3 21G<113 113> 437 91<54 114 38 130 267 356>
VStem: 55 145<58.5 140.5> 149 86<-127.5 -102.5>
AnchorPoint: "Anchor-0" 148 0 basechar 0
LayerCount: 2
Fore
SplineSet
251 437 m 1xca
 207 191 l 2
 202 161 200 148 200 133 c 0xcc
 200 91 230 81 295 90 c 1xac
 279 -1 l 1
 248 -8 215 -11 181 -11 c 2
 179 -11 l 1xcc
 158 -41 l 1
 208 -49 235 -75 235 -113 c 0
 235 -180 167 -210 88 -210 c 0
 56 -210 33 -208 16 -202 c 1
 27 -146 l 1
 45 -152 62 -153 81 -153 c 0
 125 -153 149 -139 149 -116 c 0
 149 -89 113 -78 58 -84 c 1xca
 113 -3 l 1
 73 10 55 37 55 80 c 0
 55 100 58 128 67 175 c 2
 114 437 l 1
 38 437 l 1
 54 528 l 1
 130 528 l 1
 153 659 l 1x9c
 290 659 l 1
 267 528 l 1
 372 528 l 1
 356 437 l 1
 251 437 l 1xca
EndSplineSet
Substitution2: "'locl' Localized Forms in Latin lookup 2 subtable" uni021B
Substitution2: "'locl' Localized Forms in Latin lookup 1 subtable" uni021B
Substitution2: "'aalt' Access All Alternates in Latin lookup 0 subtable" uni021B
EndChar

StartChar: Tcaron
Encoding: 356 356 87
Width: 623
GlyphClass: 2
Flags: MW
HStem: 0 21G<210 348 210 210> 582 108<98 313 78 704 451 684 451 451> 735 112<356 356 356 398 462 465>
VStem: 78 626<582 690>
AnchorPoint: "Anchor-0" 279 0 basechar 0
LayerCount: 2
Fore
SplineSet
356 735 m 1
 311 847 l 1
 398 847 l 1
 418 782 l 1
 462 847 l 1
 549 847 l 1
 465 735 l 1
 356 735 l 1
684 582 m 1
 451 582 l 1
 348 0 l 1
 210 0 l 1
 313 582 l 1
 78 582 l 1
 98 690 l 1
 704 690 l 1
 684 582 l 1
EndSplineSet
Position2: "'cpsp' Capital Spacing in Latin lookup 0 subtable" dx=5 dy=0 dh=10 dv=0
EndChar

StartChar: tcaron
Encoding: 357 357 202
Width: 354
GlyphClass: 2
Flags: MW
HStem: -11 98.02 -11 101<137 295> 437 91<54 114 38 130 267 356> 580 79<153 385 153 311> 580 163<311 490 311 490>
VStem: 55 145<49 140.5>
AnchorPoint: "Anchor-0" 148 0 basechar 0
LayerCount: 2
Fore
SplineSet
490 743 m 1xac
 490 735 l 1
 385 580 l 1
 311 580 l 1
 391 743 l 1
 490 743 l 1xac
267 528 m 1
 372 528 l 1
 356 437 l 1
 251 437 l 1
 207 191 l 2
 202 161 200 148 200 133 c 0xac
 200 91 230 81 295 90 c 1x6c
 279 -1 l 1
 248 -8 215 -11 181 -11 c 0
 93 -11 55 18 55 80 c 0
 55 100 58 128 67 175 c 2
 114 437 l 1
 38 437 l 1
 54 528 l 1
 130 528 l 1
 153 659 l 1
 290 659 l 1xb4
 267 528 l 1
EndSplineSet
EndChar

StartChar: Tbar
Encoding: 358 358 86
Width: 649
GlyphClass: 2
Flags: MW
HStem: 0 21G<210 348 210 210> 298 78<181 263 167 276 414 505> 582 108<98 313 78 704 451 684 451 451>
VStem: 78 626<582 690>
AnchorPoint: "Anchor-0" 279 0 basechar 0
LayerCount: 2
Fore
SplineSet
451 582 m 1
 414 376 l 1
 519 376 l 1
 505 298 l 1
 401 298 l 1
 348 0 l 1
 210 0 l 1
 263 298 l 1
 167 298 l 1
 181 376 l 1
 276 376 l 1
 313 582 l 1
 78 582 l 1
 98 690 l 1
 704 690 l 1
 684 582 l 1
 451 582 l 1
EndSplineSet
Position2: "'cpsp' Capital Spacing in Latin lookup 0 subtable" dx=5 dy=0 dh=10 dv=0
EndChar

StartChar: tbar
Encoding: 359 359 201
Width: 354
GlyphClass: 2
Flags: MW
HStem: -11 98.02 -11 101<137 295> 267 77<35 83 22 97 234 295> 437 91<54 114 38 130 267 356>
VStem: 55 145<49 140.5>
AnchorPoint: "Anchor-0" 148 0 basechar 0
LayerCount: 2
Fore
SplineSet
251 437 m 1xb8
 234 344 l 1
 308 344 l 1
 295 267 l 1
 220 267 l 1
 207 191 l 2
 202 161 200 148 200 133 c 0xb8
 200 91 230 81 295 90 c 1x78
 279 -1 l 1
 248 -8 215 -11 181 -11 c 0
 93 -11 55 18 55 80 c 0
 55 100 58 128 67 175 c 2
 83 267 l 1
 22 267 l 1
 35 344 l 1
 97 344 l 1
 114 437 l 1
 38 437 l 1
 54 528 l 1
 130 528 l 1
 153 659 l 1
 290 659 l 1
 267 528 l 1
 372 528 l 1
 356 437 l 1
 251 437 l 1xb8
EndSplineSet
EndChar

StartChar: Umacron
Encoding: 362 362 96
Width: 703
GlyphClass: 2
Flags: MW
HStem: -14 103<299 381.5 299 422> 670 20G<155 293 293 293 587 725 725 725> 759 76<329 589 316 602>
VStem: 73 138<164 201>
LayerCount: 2
Fore
SplineSet
589 759 m 1
 316 759 l 1
 329 835 l 1
 602 835 l 1
 589 759 l 1
725 690 m 1
 655 292 l 2
 649 258 645 237 637 206 c 0
 605 72 518 -14 326 -14 c 0
 155 -14 73 65 73 184 c 0
 73 218 77 247 86 301 c 2
 155 690 l 1
 293 690 l 1
 219 270 l 2
 213 237 211 221 211 199 c 0
 211 129 260 89 338 89 c 0
 425 89 478 123 502 217 c 0
 506 232 509 247 513 267 c 2
 587 690 l 1
 725 690 l 1
EndSplineSet
Position2: "'cpsp' Capital Spacing in Latin lookup 0 subtable" dx=5 dy=0 dh=10 dv=0
EndChar

StartChar: umacron
Encoding: 363 363 211
Width: 617
GlyphClass: 2
Flags: MW
HStem: -14 98 0 84 512 20G<102 240 240 240 463 600 600 600> 592 77<252 512 239 525>
VStem: 35 144<82.5 176>
LayerCount: 2
Fore
SplineSet
512 592 m 1xb8
 239 592 l 1
 252 669 l 1
 525 669 l 1
 512 592 l 1xb8
600 532 m 1
 507 0 l 1
 369 0 l 1
 384 82 l 1x78
 331 23 l 1
 288 -4 248 -14 196 -14 c 0
 88 -14 35 42 35 123 c 0
 35 151 37 175 47 229 c 2
 102 532 l 1
 240 532 l 1
 189 253 l 2
 182 214 179 186 179 166 c 0
 179 117 201 83 264 84 c 0
 333 85 394 143 421 291 c 1
 463 532 l 1
 600 532 l 1
EndSplineSet
EndChar

StartChar: Uring
Encoding: 366 366 98
Width: 703
GlyphClass: 2
Flags: MW
HStem: -14 103<299 381.5 299 422> 670 20G<155 293 293 293 587 725 725 725> 719 53<445 467 445 483> 853 53<457 479>
VStem: 73 138<164 201> 354 69<794.5 819 794.5 832.5> 501 69<806 830.5>
LayerCount: 2
Fore
SplineSet
475 906 m 0
 533 906 570 871 570 825 c 0
 570 761 518 719 448 719 c 0xfe
 391 719 354 754 354 800 c 0
 354 865 406 906 475 906 c 0
469 853 m 0
 445 853 423 834 423 804 c 0
 423 785 435 772 455 772 c 0xfe
 479 772 501 791 501 821 c 0
 501 840 489 853 469 853 c 0
725 690 m 1
 655 292 l 2
 649 258 645 237 637 206 c 0
 605 72 518 -14 326 -14 c 0
 155 -14 73 65 73 184 c 0
 73 218 77 247 86 301 c 2
 155 690 l 1
 293 690 l 1
 219 270 l 2
 213 237 211 221 211 199 c 0
 211 129 260 89 338 89 c 0
 425 89 478 123 502 217 c 0
 506 232 509 247 513 267 c 2
 587 690 l 1
 725 690 l 1
EndSplineSet
Position2: "'cpsp' Capital Spacing in Latin lookup 0 subtable" dx=5 dy=0 dh=10 dv=0
EndChar

StartChar: uring
Encoding: 367 367 213
Width: 617
GlyphClass: 2
Flags: MW
HStem: -14 98 0 84 512 20G<102 240 240 240 463 600 600 600> 566 53<370 395 370 408> 707 52<379 404>
VStem: 35 144<82.5 176> 279 69<641 664.5 641 679> 426 69<661 684.5>
LayerCount: 2
Fore
SplineSet
372 566 m 0xbf
 315 566 279 597 279 647 c 0
 279 711 330 759 403 759 c 0
 459 759 495 728 495 678 c 0
 495 614 444 566 372 566 c 0xbf
394 707 m 0
 364 707 348 678 348 651 c 0
 348 631 360 619 380 619 c 0
 410 619 426 648 426 674 c 0
 426 695 414 707 394 707 c 0
600 532 m 1
 507 0 l 1
 369 0 l 1
 384 82 l 1x7f
 331 23 l 1
 288 -4 248 -14 196 -14 c 0
 88 -14 35 42 35 123 c 0
 35 151 37 175 47 229 c 2
 102 532 l 1
 240 532 l 1
 189 253 l 2
 182 214 179 186 179 166 c 0
 179 117 201 83 264 84 c 0
 333 85 394 143 421 291 c 1
 463 532 l 1
 600 532 l 1
EndSplineSet
EndChar

StartChar: Uhungarumlaut
Encoding: 368 368 95
Width: 703
GlyphClass: 2
Flags: MW
HStem: -14 103<299 381.5 299 422> 670 20G<155 293 293 293 587 725 725 725> 736 111<301 519 301 519 467 467 467 519 395 545>
VStem: 73 138<164 201>
LayerCount: 2
Fore
SplineSet
379 736 m 1
 301 736 l 1
 395 847 l 1
 519 847 l 1
 379 736 l 1
545 736 m 1
 467 736 l 1
 560 847 l 1
 684 847 l 1
 545 736 l 1
725 690 m 1
 655 292 l 2
 649 258 645 237 637 206 c 0
 605 72 518 -14 326 -14 c 0
 155 -14 73 65 73 184 c 0
 73 218 77 247 86 301 c 2
 155 690 l 1
 293 690 l 1
 219 270 l 2
 213 237 211 221 211 199 c 0
 211 129 260 89 338 89 c 0
 425 89 478 123 502 217 c 0
 506 232 509 247 513 267 c 2
 587 690 l 1
 725 690 l 1
EndSplineSet
Position2: "'cpsp' Capital Spacing in Latin lookup 0 subtable" dx=5 dy=0 dh=10 dv=0
EndChar

StartChar: uhungarumlaut
Encoding: 369 369 210
Width: 617
GlyphClass: 2
Flags: MW
HStem: -14 98 0 84 512 20G<102 240 240 240 463 600 600 600> 574 118<231 453 231 453 402 453 329 480 402 402>
VStem: 35 144<82.5 176>
LayerCount: 2
Fore
SplineSet
309 574 m 1xb8
 231 574 l 1
 329 692 l 1
 453 692 l 1
 309 574 l 1xb8
402 574 m 1
 500 692 l 1
 624 692 l 1
 480 574 l 1
 402 574 l 1
463 532 m 1
 600 532 l 1
 507 0 l 1
 369 0 l 1
 384 82 l 1x78
 331 23 l 1
 288 -4 248 -14 196 -14 c 0
 88 -14 35 42 35 123 c 0
 35 151 37 175 47 229 c 2
 102 532 l 1
 240 532 l 1
 189 253 l 2
 182 214 179 186 179 166 c 0
 179 117 201 83 264 84 c 0
 333 85 394 143 421 291 c 1
 463 532 l 1
EndSplineSet
EndChar

StartChar: Uogonek
Encoding: 370 370 97
Width: 703
GlyphClass: 2
Flags: MW
HStem: -223 80<276.5 390.5> -13 102 670 20G<155 293 293 293 587 725 725 725>
VStem: 73 138<164 201> 210 136<-174.5 -86.5>
LayerCount: 2
Fore
SplineSet
725 690 m 1xf0
 655 292 l 2
 649 258 645 237 637 206 c 0
 610 91 542 12 403 -9 c 1
 368 -27 346 -71 346 -102 c 0
 346 -132 361 -143 382 -143 c 0
 399 -143 416 -138 434 -125 c 1
 423 -183 l 1
 394 -207 351 -223 302 -223 c 0
 251 -223 210 -202 210 -147 c 0xe8
 210 -95 240 -48 296 -13 c 1
 145 -4 73 72 73 184 c 0
 73 218 77 247 86 301 c 2
 155 690 l 1
 293 690 l 1
 219 270 l 2
 213 237 211 221 211 199 c 0
 211 129 260 89 338 89 c 0
 425 89 478 123 502 217 c 0
 506 232 509 247 513 267 c 2
 587 690 l 1
 725 690 l 1xf0
EndSplineSet
Position2: "'cpsp' Capital Spacing in Latin lookup 0 subtable" dx=5 dy=0 dh=10 dv=0
EndChar

StartChar: uogonek
Encoding: 371 371 212
Width: 617
GlyphClass: 2
Flags: MW
HStem: -223 80<324.5 438.5> -14 98 0 21G<479 507 479 479> 512 20G<102 240 240 240 463 600 600 600>
VStem: 35 144<82.5 176> 258 136<-174.5 -82.5>
LayerCount: 2
Fore
SplineSet
507 0 m 1xbc
 479 0 l 1xbc
 428 -5 394 -63 394 -102 c 0
 394 -132 409 -143 430 -143 c 0
 447 -143 464 -138 482 -125 c 1
 471 -183 l 1
 442 -207 399 -223 350 -223 c 0
 299 -223 258 -202 258 -147 c 0
 258 -88 297 -35 369 1 c 1
 384 82 l 1
 331 23 l 1
 288 -4 248 -14 196 -14 c 0
 88 -14 35 42 35 123 c 0
 35 151 37 175 47 229 c 2
 102 532 l 1
 240 532 l 1
 189 253 l 2
 182 214 179 186 179 166 c 0
 179 117 201 83 264 84 c 0xdc
 333 85 394 143 421 291 c 1
 463 532 l 1
 600 532 l 1
 507 0 l 1xbc
EndSplineSet
EndChar

StartChar: Wcircumflex
Encoding: 372 372 102
Width: 988
GlyphClass: 2
Flags: MW
HStem: 0 21G<156 340 156 156 580 763 580 580> 0 115<693 693 693 763 580 693> 670 20G<101 246 246 246 914 1066 1066 1066> 735 112<559 562 475 667 625 625 625 667 559 712>
VStem: 569.5 117
LayerCount: 2
Fore
SplineSet
562 735 m 1xb8
 475 735 l 1
 559 847 l 1
 667 847 l 1
 712 735 l 1
 625 735 l 1
 605 799 l 1
 562 735 l 1xb8
1066 690 m 1
 763 0 l 1
 580 0 l 1
 559 555 l 1
 340 0 l 1
 156 0 l 1
 101 690 l 1
 246 690 l 1
 270 121 l 1
 483 680 l 1
 680 680 l 1
 693 115 l 1x78
 914 690 l 1
 1066 690 l 1
EndSplineSet
Position2: "'cpsp' Capital Spacing in Latin lookup 0 subtable" dx=5 dy=0 dh=10 dv=0
EndChar

StartChar: Ycircumflex
Encoding: 374 374 108
Width: 637
GlyphClass: 2
Flags: MW
HStem: 0 21G<218 356 218 218> 670 20G<97 243 243 243 566 721 721 721> 735 112<383 386 299 491 449 449 449 491 383 536>
VStem: 97 624<690 690>
LayerCount: 2
Fore
SplineSet
386 735 m 1
 299 735 l 1
 383 847 l 1
 491 847 l 1
 536 735 l 1
 449 735 l 1
 429 799 l 1
 386 735 l 1
403 264 m 1
 356 0 l 1
 218 0 l 1
 266 269 l 1
 97 690 l 1
 243 690 l 1
 356 385 l 1
 566 690 l 1
 721 690 l 1
 403 264 l 1
EndSplineSet
Position2: "'cpsp' Capital Spacing in Latin lookup 0 subtable" dx=5 dy=0 dh=10 dv=0
EndChar

StartChar: ycircumflex
Encoding: 375 375 223
Width: 544
GlyphClass: 2
Flags: MW
HStem: -210 96<28.5 58.5 28.5 94> 512 20G<33 187 187 187 449 602 602 602> 574 118<204 397 204 397 355 355 355 397 289 441> 643 49<334 334>
VStem: -22 624
LayerCount: 2
Fore
SplineSet
289 574 m 1xe8
 204 574 l 1
 289 692 l 1
 397 692 l 1
 441 574 l 1
 355 574 l 1xe8
 334 643 l 1xd8
 289 574 l 1xe8
602 532 m 1
 303 0 l 2
 213 -159 150 -210 38 -210 c 0
 16 -210 -3 -208 -22 -205 c 1
 -6 -111 l 1
 8 -113 21 -114 36 -114 c 0
 81 -114 114 -94 143 -39 c 1
 149 -27 l 1
 33 532 l 1
 187 532 l 1
 244 111 l 1
 449 532 l 1
 602 532 l 1
EndSplineSet
EndChar

StartChar: Ydieresis
Encoding: 376 376 109
Width: 637
GlyphClass: 2
Flags: MW
HStem: 0 21G<218 356 218 218> 670 20G<97 243 243 243 566 721 721 721> 729 121<330 348.5 503 521.5>
VStem: 277 124<778 801.5> 450 124<778 801.5>
LayerCount: 2
Fore
SplineSet
332 729 m 0
 297 729 277 749 277 780 c 0
 277 823 313 850 347 850 c 0
 380 850 401 831 401 799 c 0
 401 757 365 729 332 729 c 0
505 729 m 0
 470 729 450 749 450 780 c 0
 450 823 486 850 520 850 c 0
 553 850 574 831 574 799 c 0
 574 757 538 729 505 729 c 0
403 264 m 1
 356 0 l 1
 218 0 l 1
 266 269 l 1
 97 690 l 1
 243 690 l 1
 356 385 l 1
 566 690 l 1
 721 690 l 1
 403 264 l 1
EndSplineSet
Position2: "'cpsp' Capital Spacing in Latin lookup 0 subtable" dx=5 dy=0 dh=10 dv=0
EndChar

StartChar: Zacute
Encoding: 377 377 112
Width: 622
GlyphClass: 2
Flags: MW
HStem: 0 109<195 549> 582 108<153 477 133 666> 735 112<364 581 364 581>
VStem: 3 663
LayerCount: 2
Fore
SplineSet
442 735 m 1
 364 735 l 1
 457 847 l 1
 581 847 l 1
 442 735 l 1
647 583 m 1
 195 109 l 1
 569 109 l 1
 549 0 l 1
 3 0 l 1
 21 105 l 1
 477 582 l 1
 133 582 l 1
 153 690 l 1
 666 690 l 1
 647 583 l 1
EndSplineSet
Position2: "'cpsp' Capital Spacing in Latin lookup 0 subtable" dx=5 dy=0 dh=10 dv=0
EndChar

StartChar: zacute
Encoding: 378 378 227
Width: 512
GlyphClass: 2
Flags: MW
HStem: 0 92<161 437> 436 92<95 344 80 523> 574 118<263 486 263 486>
VStem: -20 543<0 528>
LayerCount: 2
Fore
SplineSet
341 574 m 1
 263 574 l 1
 362 692 l 1
 486 692 l 1
 341 574 l 1
507 437 m 1
 161 92 l 1
 453 92 l 1
 437 0 l 1
 -20 0 l 1
 -5 87 l 1
 344 436 l 1
 80 436 l 1
 95 528 l 1
 523 528 l 1
 507 437 l 1
EndSplineSet
EndChar

StartChar: Zdotaccent
Encoding: 379 379 114
Width: 622
GlyphClass: 2
Flags: MW
HStem: 0 109<195 549> 582 108<153 477 133 666> 729 138<404.5 436>
VStem: 348 144<788.5 807.5>
LayerCount: 2
Fore
SplineSet
410 729 m 0
 372 729 348 752 348 788 c 0
 348 827 379 867 430 867 c 0
 468 867 492 844 492 808 c 0
 492 769 462 729 410 729 c 0
647 583 m 1
 195 109 l 1
 569 109 l 1
 549 0 l 1
 3 0 l 1
 21 105 l 1
 477 582 l 1
 133 582 l 1
 153 690 l 1
 666 690 l 1
 647 583 l 1
EndSplineSet
Position2: "'cpsp' Capital Spacing in Latin lookup 0 subtable" dx=5 dy=0 dh=10 dv=0
EndChar

StartChar: zdotaccent
Encoding: 380 380 229
Width: 512
GlyphClass: 2
Flags: MW
HStem: 0 92<161 437> 436 92<95 344 80 523> 584 146<306.5 341.5>
VStem: 248 152<646.5 667.5>
LayerCount: 2
Fore
SplineSet
314 584 m 0
 273 584 248 608 248 646 c 0
 248 689 279 730 334 730 c 0
 375 730 400 705 400 668 c 0
 400 625 369 584 314 584 c 0
507 437 m 1
 161 92 l 1
 453 92 l 1
 437 0 l 1
 -20 0 l 1
 -5 87 l 1
 344 436 l 1
 80 436 l 1
 95 528 l 1
 523 528 l 1
 507 437 l 1
EndSplineSet
EndChar

StartChar: Zcaron
Encoding: 381 381 113
Width: 622
GlyphClass: 2
Flags: MW
HStem: 0 109<195 549> 582 108<153 477 133 666> 735 112<355 355 355 397 461 464>
VStem: 3 663
LayerCount: 2
Fore
SplineSet
355 735 m 1
 310 847 l 1
 397 847 l 1
 417 782 l 1
 461 847 l 1
 548 847 l 1
 464 735 l 1
 355 735 l 1
647 583 m 1
 195 109 l 1
 569 109 l 1
 549 0 l 1
 3 0 l 1
 21 105 l 1
 477 582 l 1
 133 582 l 1
 153 690 l 1
 666 690 l 1
 647 583 l 1
EndSplineSet
Position2: "'cpsp' Capital Spacing in Latin lookup 0 subtable" dx=5 dy=0 dh=10 dv=0
EndChar

StartChar: zcaron
Encoding: 382 382 228
Width: 512
GlyphClass: 2
Flags: MW
HStem: 0 92<161 437> 436 92<95 344 80 523> 574 118<255 255 255 298 212 363>
VStem: -20 543<0 528>
LayerCount: 2
Fore
SplineSet
255 574 m 1
 212 692 l 1
 298 692 l 1
 318 625 l 1
 364 692 l 1
 449 692 l 1
 363 574 l 1
 255 574 l 1
507 437 m 1
 161 92 l 1
 453 92 l 1
 437 0 l 1
 -20 0 l 1
 -5 87 l 1
 344 436 l 1
 80 436 l 1
 95 528 l 1
 523 528 l 1
 507 437 l 1
EndSplineSet
EndChar

StartChar: uni021A
Encoding: 538 538 89
Width: 623
GlyphClass: 2
Flags: MW
HStem: -207 164<153 332 153 332> 0 21G<210 348 210 210> 582 108<98 313 78 704 451 684 451 451>
VStem: 78 626<582 690>
AnchorPoint: "Anchor-0" 279 0 basechar 0
LayerCount: 2
Fore
SplineSet
684 582 m 1
 451 582 l 1
 348 0 l 1
 210 0 l 1
 313 582 l 1
 78 582 l 1
 98 690 l 1
 704 690 l 1
 684 582 l 1
233 -43 m 1
 332 -43 l 1
 332 -52 l 1
 228 -207 l 1
 153 -207 l 1
 233 -43 l 1
EndSplineSet
Position2: "'cpsp' Capital Spacing in Latin lookup 0 subtable" dx=5 dy=0 dh=10 dv=0
EndChar

StartChar: uni021B
Encoding: 539 539 204
Width: 354
GlyphClass: 2
Flags: MW
HStem: -207 164<22 201 22 201> -11 98.02 -11 101<137 295> 437 91<54 114 38 130 267 356>
VStem: 55 145<49 140.5>
AnchorPoint: "Anchor-0" 148 0 basechar 0
LayerCount: 2
Fore
SplineSet
251 437 m 1x58
 207 191 l 2
 202 161 200 148 200 133 c 0xd8
 200 91 230 81 295 90 c 1x38
 279 -1 l 1
 248 -8 215 -11 181 -11 c 0
 93 -11 55 18 55 80 c 0
 55 100 58 128 67 175 c 2
 114 437 l 1
 38 437 l 1
 54 528 l 1
 130 528 l 1
 153 659 l 1
 290 659 l 1
 267 528 l 1
 372 528 l 1
 356 437 l 1
 251 437 l 1x58
102 -43 m 1
 201 -43 l 1
 201 -52 l 1
 97 -207 l 1
 22 -207 l 1
 102 -43 l 1
EndSplineSet
EndChar

StartChar: circumflex
Encoding: 710 710 330
Width: 300
Flags: MW
HStem: 574 118<23 216 23 216 174 216 108 260 174 174> 643 49<153 153>
VStem: 23 237<574 574>
LayerCount: 2
Fore
SplineSet
174 574 m 1xa0
 153 643 l 1x60
 108 574 l 1
 23 574 l 1
 108 692 l 1
 216 692 l 1
 260 574 l 1
 174 574 l 1xa0
EndSplineSet
EndChar

StartChar: caron
Encoding: 711 711 328
Width: 300
Flags: MW
HStem: 574 118<86 129 43 194 86 86>
VStem: 43 237<692 692>
LayerCount: 2
Fore
SplineSet
280 692 m 1
 194 574 l 1
 86 574 l 1
 43 692 l 1
 129 692 l 1
 149 625 l 1
 195 692 l 1
 280 692 l 1
EndSplineSet
EndChar

StartChar: breve
Encoding: 728 728 327
Width: 300
Flags: MW
HStem: 567 71<133 165.5 133 173.5> 567 126<91.5 115 41 173.5>
VStem: 38.18 76.82
LayerCount: 2
Fore
SplineSet
208 693 m 1x60
 282 693 l 1
 266 606 209 567 138 567 c 0
 45 567 30 630 41 693 c 1
 115 693 l 1x60
 111 663 115 638 151 638 c 0xa0
 180 638 199 655 208 693 c 1x60
EndSplineSet
EndChar

StartChar: dotaccent
Encoding: 729 729 332
Width: 300
Flags: MW
HStem: 584 146<134.5 169.5>
VStem: 76 152<646.5 667.5>
LayerCount: 2
Fore
SplineSet
162 730 m 0
 203 730 228 705 228 668 c 0
 228 625 197 584 142 584 c 0
 101 584 76 608 76 646 c 0
 76 689 107 730 162 730 c 0
EndSplineSet
EndChar

StartChar: ring
Encoding: 730 730 337
Width: 300
Flags: MW
HStem: 566 53<133 158 133 171> 707 52<142 167>
VStem: 42 69<641 664.5 641 679> 189 69<661 684.5>
LayerCount: 2
Fore
SplineSet
166 759 m 0
 222 759 258 728 258 678 c 0
 258 614 207 566 135 566 c 0
 78 566 42 597 42 647 c 0
 42 711 93 759 166 759 c 0
157 707 m 0
 127 707 111 678 111 651 c 0
 111 631 123 619 143 619 c 0
 173 619 189 648 189 674 c 0
 189 695 177 707 157 707 c 0
EndSplineSet
EndChar

StartChar: ogonek
Encoding: 731 731 336
Width: 300
Flags: MW
HStem: -223 80<110.5 224.5> 0 21G<265 265>
VStem: 44 136<-117 -115.5>
LayerCount: 2
Fore
SplineSet
170 8 m 1
 265 0 l 1
 214 -5 180 -63 180 -102 c 0
 180 -132 195 -143 216 -143 c 0
 233 -143 250 -138 268 -125 c 1
 257 -183 l 1
 228 -207 185 -223 136 -223 c 0
 85 -223 44 -202 44 -147 c 0
 44 -84 88 -28 170 8 c 1
EndSplineSet
EndChar

StartChar: tilde
Encoding: 732 732 338
Width: 300
Flags: MW
HStem: 581 106<227 235> 585 105<65 73 3 100> 611 79<89 99.5>
VStem: 3 294<585 687>
LayerCount: 2
Fore
SplineSet
89 690 m 0x50
 111 690 128 687 162 673 c 0
 185 664 197 661 207 661 c 0
 217 661 224 668 227 687 c 1
 297 687 l 1
 283 610 259 581 211 581 c 0x90
 190 581 173 584 138 599 c 1
 116 607 105 611 94 611 c 0x30
 84 611 76 603 73 585 c 1
 3 585 l 1
 17 661 41 690 89 690 c 0x50
EndSplineSet
EndChar

StartChar: hungarumlaut
Encoding: 733 733 334
Width: 300
Flags: MW
HStem: 574 118<-1 221 -1 221 170 170 170 221 97 248>
VStem: -1 393<574 692>
LayerCount: 2
Fore
SplineSet
77 574 m 1
 -1 574 l 1
 97 692 l 1
 221 692 l 1
 77 574 l 1
248 574 m 1
 170 574 l 1
 268 692 l 1
 392 692 l 1
 248 574 l 1
EndSplineSet
EndChar

StartChar: uni0326
Encoding: 806 806 339
Width: 0
GlyphClass: 4
Flags: MW
HStem: -207 164<46 225 46 225>
VStem: 46 179<-207 -52>
AnchorPoint: "Anchor-0" 172 0 mark 0
LayerCount: 2
Fore
SplineSet
225 -52 m 1
 121 -207 l 1
 46 -207 l 1
 126 -43 l 1
 225 -43 l 1
 225 -52 l 1
EndSplineSet
EndChar

StartChar: wgrave
Encoding: 7809 7809 219
Width: 806
GlyphClass: 2
Flags: MW
HStem: 0 21G<108 265 108 108 445 602 445 445> 0 121<551 551 551 602 445 551> 512 20G<33 186 186 186 716 865 865 865> 574 118<432 432 432 453 329 510>
VStem: 436 105.5
LayerCount: 2
Fore
SplineSet
432 574 m 1xb8
 329 692 l 1
 453 692 l 1
 510 574 l 1
 432 574 l 1xb8
865 532 m 1
 602 0 l 1
 445 0 l 1
 427 406 l 1
 265 0 l 1
 108 0 l 1
 33 532 l 1
 186 532 l 1
 208 123 l 1
 365 530 l 1
 532 530 l 1
 551 121 l 1x78
 716 532 l 1
 865 532 l 1
EndSplineSet
EndChar

StartChar: Wacute
Encoding: 7810 7810 101
Width: 988
GlyphClass: 2
Flags: MW
HStem: 0 21G<156 340 156 156 580 763 580 580> 0 115<693 693 693 763 580 693> 670 20G<101 246 246 246 914 1066 1066 1066> 735 112<549 766 549 766>
VStem: 569.5 117
LayerCount: 2
Fore
SplineSet
627 735 m 1xb8
 549 735 l 1
 642 847 l 1
 766 847 l 1
 627 735 l 1xb8
1066 690 m 1
 763 0 l 1
 580 0 l 1
 559 555 l 1
 340 0 l 1
 156 0 l 1
 101 690 l 1
 246 690 l 1
 270 121 l 1
 483 680 l 1
 680 680 l 1
 693 115 l 1x78
 914 690 l 1
 1066 690 l 1
EndSplineSet
Position2: "'cpsp' Capital Spacing in Latin lookup 0 subtable" dx=5 dy=0 dh=10 dv=0
EndChar

StartChar: wacute
Encoding: 7811 7811 216
Width: 806
GlyphClass: 2
Flags: MW
HStem: 0 21G<108 265 108 108 445 602 445 445> 0 121<551 551 551 602 445 551> 512 20G<33 186 186 186 716 865 865 865> 574 118<412 635 412 635>
VStem: 436 105.5
LayerCount: 2
Fore
SplineSet
490 574 m 1xb8
 412 574 l 1
 511 692 l 1
 635 692 l 1
 490 574 l 1xb8
865 532 m 1
 602 0 l 1
 445 0 l 1
 427 406 l 1
 265 0 l 1
 108 0 l 1
 33 532 l 1
 186 532 l 1
 208 123 l 1
 365 530 l 1
 532 530 l 1
 551 121 l 1x78
 716 532 l 1
 865 532 l 1
EndSplineSet
EndChar

StartChar: Wdieresis
Encoding: 7812 7812 103
Width: 988
GlyphClass: 2
Flags: MW
HStem: 0 21G<156 340 156 156 580 763 580 580> 0 115<693 693 693 763 580 693> 670 20G<101 246 246 246 914 1066 1066 1066> 729 121<507 525.5 680 698.5>
VStem: 454 124<778 801.5> 569.5 117 627 124<778 801.5>
LayerCount: 2
Fore
SplineSet
509 729 m 0xba
 474 729 454 749 454 780 c 0
 454 823 490 850 524 850 c 0
 557 850 578 831 578 799 c 0
 578 757 542 729 509 729 c 0xba
682 729 m 0
 647 729 627 749 627 780 c 0
 627 823 663 850 697 850 c 0
 730 850 751 831 751 799 c 0
 751 757 715 729 682 729 c 0
1066 690 m 1
 763 0 l 1
 580 0 l 1
 559 555 l 1
 340 0 l 1
 156 0 l 1
 101 690 l 1
 246 690 l 1
 270 121 l 1
 483 680 l 1
 680 680 l 1
 693 115 l 1x74
 914 690 l 1
 1066 690 l 1
EndSplineSet
Position2: "'cpsp' Capital Spacing in Latin lookup 0 subtable" dx=5 dy=0 dh=10 dv=0
EndChar

StartChar: wdieresis
Encoding: 7813 7813 218
Width: 806
GlyphClass: 2
Flags: MW
HStem: 0 21G<108 265 108 108 445 602 445 445> 0 121<551 551 551 602 445 551> 512 20G<33 186 186 186 716 865 865 865> 575 122<367.5 385.5 543 561>
VStem: 314 125<624.5 647.5> 436 105.5 490 124<624.5 647.5>
LayerCount: 2
Fore
SplineSet
369 575 m 0xba
 334 575 314 595 314 626 c 0
 314 669 351 697 384 697 c 0
 418 697 439 678 439 646 c 0
 439 603 402 575 369 575 c 0xba
544 575 m 0
 510 575 490 595 490 626 c 0
 490 669 526 697 560 697 c 0
 593 697 614 678 614 646 c 0
 614 603 578 575 544 575 c 0
865 532 m 1
 602 0 l 1
 445 0 l 1
 427 406 l 1
 265 0 l 1
 108 0 l 1
 33 532 l 1
 186 532 l 1
 208 123 l 1
 365 530 l 1
 532 530 l 1
 551 121 l 1x74
 716 532 l 1
 865 532 l 1
EndSplineSet
EndChar

StartChar: Ygrave
Encoding: 7922 7922 110
Width: 637
GlyphClass: 2
Flags: MW
HStem: 0 21G<218 356 218 218> 670 20G<97 243 243 243 566 721 721 721> 735 112<387 387 387 410 286 465>
VStem: 97 624<690 690>
LayerCount: 2
Fore
SplineSet
387 735 m 1
 286 847 l 1
 410 847 l 1
 465 735 l 1
 387 735 l 1
403 264 m 1
 356 0 l 1
 218 0 l 1
 266 269 l 1
 97 690 l 1
 243 690 l 1
 356 385 l 1
 566 690 l 1
 721 690 l 1
 403 264 l 1
EndSplineSet
Position2: "'cpsp' Capital Spacing in Latin lookup 0 subtable" dx=5 dy=0 dh=10 dv=0
EndChar

StartChar: endash
Encoding: 8211 8211 270
Width: 500
Flags: MW
HStem: 252 78<88 412 74 426>
VStem: 74 352<252 330>
LayerCount: 2
Fore
SplineSet
412 252 m 1
 74 252 l 1
 88 330 l 1
 426 330 l 1
 412 252 l 1
EndSplineSet
EndChar

StartChar: emdash
Encoding: 8212 8212 269
Width: 1000
Flags: MW
HStem: 252 78<88 912 74 926>
VStem: 74 852<252 330>
LayerCount: 2
Fore
SplineSet
912 252 m 1
 74 252 l 1
 88 330 l 1
 926 330 l 1
 912 252 l 1
EndSplineSet
EndChar

StartChar: quoteleft
Encoding: 8216 8216 279
Width: 257
Flags: MW
HStem: 428 262<69 328 69 328>
VStem: 69 259
LayerCount: 2
Fore
SplineSet
70 439 m 1
 216 690 l 1
 328 690 l 1
 203 428 l 1
 69 428 l 1
 70 439 l 1
EndSplineSet
EndChar

StartChar: quoteright
Encoding: 8217 8217 280
Width: 257
Flags: MW
HStem: 428 262<34 293 34 293> 670 20G<159 293 293 293>
VStem: 34 259
LayerCount: 2
Fore
SplineSet
292 679 m 1x60
 146 428 l 1
 34 428 l 1xa0
 159 690 l 1
 293 690 l 1
 292 679 l 1x60
EndSplineSet
EndChar

StartChar: quotesinglbase
Encoding: 8218 8218 281
Width: 261
Flags: MW
HStem: -122 262<-95 165 -95 165>
VStem: -95 260
LayerCount: 2
Fore
SplineSet
164 129 m 1
 18 -122 l 1
 -95 -122 l 1
 31 140 l 1
 165 140 l 1
 164 129 l 1
EndSplineSet
EndChar

StartChar: quotedblleft
Encoding: 8220 8220 277
Width: 471
Flags: MW
HStem: 428 262<69 328 69 328 283 283 283 328 216 417>
VStem: 69 473<428 690>
LayerCount: 2
Fore
SplineSet
70 439 m 1
 216 690 l 1
 328 690 l 1
 203 428 l 1
 69 428 l 1
 70 439 l 1
284 439 m 1
 430 690 l 1
 542 690 l 1
 417 428 l 1
 283 428 l 1
 284 439 l 1
EndSplineSet
EndChar

StartChar: quotedblright
Encoding: 8221 8221 278
Width: 471
Flags: MW
HStem: 428 262<34 293 34 293 248 248 248 293 159 360>
VStem: 34 473<428 690>
LayerCount: 2
Fore
SplineSet
292 679 m 1
 146 428 l 1
 34 428 l 1
 159 690 l 1
 293 690 l 1
 292 679 l 1
506 679 m 1
 360 428 l 1
 248 428 l 1
 373 690 l 1
 507 690 l 1
 506 679 l 1
EndSplineSet
EndChar

StartChar: quotedblbase
Encoding: 8222 8222 276
Width: 475
Flags: MW
HStem: -122 262<-95 165 -95 165 119 119 119 165 31 232>
VStem: -95 474<-122 140>
LayerCount: 2
Fore
SplineSet
164 129 m 1
 18 -122 l 1
 -95 -122 l 1
 31 140 l 1
 165 140 l 1
 164 129 l 1
378 129 m 1
 232 -122 l 1
 119 -122 l 1
 245 140 l 1
 379 140 l 1
 378 129 l 1
EndSplineSet
EndChar

StartChar: dagger
Encoding: 8224 8224 319
Width: 582
Flags: MW
HStem: 357 112 670 20G<283 418 418 418>
VStem: 55 492<354 472>
LayerCount: 2
Fore
SplineSet
526 354 m 1
 349 360 l 1
 268 -160 l 1
 133 -160 l 1
 236 360 l 1
 55 354 l 1
 76 472 l 1
 255 466 l 1
 283 690 l 1
 418 690 l 1
 368 466 l 1
 547 472 l 1
 526 354 l 1
EndSplineSet
EndChar

StartChar: daggerdbl
Encoding: 8225 8225 320
Width: 552
Flags: MW
HStem: 61 112 357 112 670 20G<277 412 412 412>
VStem: -2 543<58 472>
LayerCount: 2
Fore
SplineSet
342 360 m 1
 308 170 l 1
 489 176 l 1
 469 58 l 1
 290 64 l 1
 262 -160 l 1
 127 -160 l 1
 177 64 l 1
 -2 58 l 1
 18 176 l 1
 197 170 l 1
 231 360 l 1
 50 354 l 1
 70 472 l 1
 249 466 l 1
 277 690 l 1
 412 690 l 1
 362 466 l 1
 541 472 l 1
 521 354 l 1
 342 360 l 1
EndSplineSet
EndChar

StartChar: bullet
Encoding: 8226 8226 246
Width: 379
Flags: MW
HStem: 187 236<168.5 211>
VStem: 68 243<290 320>
LayerCount: 2
Fore
SplineSet
210 423 m 0
 270 423 311 389 311 331 c 0
 311 249 253 187 169 187 c 0
 110 187 68 221 68 279 c 0
 68 361 127 423 210 423 c 0
EndSplineSet
EndChar

StartChar: ellipsis
Encoding: 8230 8230 249
Width: 771
Flags: MW
HStem: -14 168<65 93 320 348 575 603>
VStem: -6 170<56.5 82.5> 249 170<56.5 82.5> 504 170<56.5 82.5>
LayerCount: 2
Fore
SplineSet
94 154 m 0
 134 154 164 129 164 87 c 0
 164 26 122 -14 64 -14 c 0
 24 -14 -6 11 -6 52 c 0
 -6 113 36 154 94 154 c 0
349 154 m 0
 389 154 419 129 419 87 c 0
 419 26 377 -14 319 -14 c 0
 279 -14 249 11 249 52 c 0
 249 113 291 154 349 154 c 0
604 154 m 0
 644 154 674 129 674 87 c 0
 674 26 632 -14 574 -14 c 0
 534 -14 504 11 504 52 c 0
 504 113 546 154 604 154 c 0
EndSplineSet
EndChar

StartChar: perthousand
Encoding: 8240 8240 306
Width: 1111
Flags: MW
HStem: -14 73<539 576.5 539 605.5 875.5 912.5> 0 21G<57 178 57 57> 242 73<557.5 594.5 893.5 931> 375 73<207.5 244.5 207.5 274.5> 631 73<225.5 263> 670 20G<625 745 745 745>
VStem: 77 98<490.5 545 490.5 560.5> 296 98<534 588.5> 409 97<101.5 156 101.5 171.5> 628 97<145 199.5> 745 98<101.5 156 101.5 171.5> 964 98<145 199.5>
LayerCount: 2
Fore
SplineSet
215 375 m 0xbad0
 131 375 77 427 77 512 c 0
 77 609 137 704 256 704 c 0
 339 704 394 652 394 567 c 0x1b
 394 470 334 375 215 375 c 0xbad0
745 690 m 1x46
 178 0 l 1
 57 0 l 1
 625 690 l 1
 745 690 l 1x46
247 631 m 0x3b40
 204 631 175 579 175 511 c 0
 175 470 192 448 223 448 c 0
 266 448 296 500 296 568 c 0
 296 609 279 631 247 631 c 0x3b40
588 315 m 0
 671 315 725 263 725 178 c 0
 725 81 665 -14 546 -14 c 0
 463 -14 409 38 409 123 c 0xa0c0
 409 220 468 315 588 315 c 0
924 315 m 0xa030
 1007 315 1062 263 1062 178 c 0
 1062 81 1002 -14 883 -14 c 0
 799 -14 745 38 745 123 c 0
 745 220 805 315 924 315 c 0xa030
555 59 m 0xa0c0
 598 59 628 111 628 179 c 0
 628 220 610 242 579 242 c 0
 536 242 506 190 506 122 c 0
 506 81 523 59 555 59 c 0xa0c0
891 59 m 0xa030
 934 59 964 111 964 179 c 0
 964 220 947 242 915 242 c 0
 872 242 843 190 843 122 c 0
 843 81 860 59 891 59 c 0xa030
EndSplineSet
EndChar

StartChar: guilsinglleft
Encoding: 8249 8249 274
Width: 411
Flags: MW
HStem: 82 332<277 320 219 392>
VStem: 111 281<248 414>
LayerCount: 2
Fore
SplineSet
217 239 m 1
 320 82 l 1
 219 82 l 1
 111 248 l 1
 277 414 l 1
 392 414 l 1
 217 239 l 1
EndSplineSet
EndChar

StartChar: guilsinglright
Encoding: 8250 8250 275
Width: 418
Flags: MW
HStem: 82 332<85 127 12 185>
VStem: 12 281<82 248>
LayerCount: 2
Fore
SplineSet
293 248 m 1
 127 82 l 1
 12 82 l 1
 187 257 l 1
 85 414 l 1
 185 414 l 1
 293 248 l 1
EndSplineSet
EndChar

StartChar: fraction
Encoding: 8260 8260 243
Width: 263
Flags: MW
HStem: 0 21G<-202 -87 -202 -202> 670 20G<366 481 481 481>
VStem: -202 683
LayerCount: 2
Fore
SplineSet
-87 0 m 1
 -202 0 l 1
 366 690 l 1
 481 690 l 1
 -87 0 l 1
EndSplineSet
EndChar

StartChar: Euro
Encoding: 8364 8364 286
Width: 625
Flags: MW
HStem: -14 103<331 367.5> 240 78<28 87 4 88 231 439> 370 78<68 94 44 111 253 478> 601 103<390.5 464>
VStem: 87 144<240 240>
LayerCount: 2
Fore
SplineSet
440 601 m 0
 341 601 282 541 253 448 c 1
 503 448 l 1
 478 370 l 1
 236 370 l 1
 234 353 232 336 231 318 c 1
 462 318 l 1
 439 240 l 1
 231 240 l 1
 240 125 292 89 370 89 c 0
 431 89 480 102 529 129 c 1
 510 24 l 1
 456 -2 405 -14 330 -14 c 0
 190 -14 95 54 87 240 c 1
 4 240 l 1
 28 318 l 1
 88 318 l 1
 89 335 91 353 94 370 c 1
 44 370 l 1
 68 448 l 1
 111 448 l 1
 153 586 252 704 451 704 c 0
 537 704 594 679 624 642 c 1
 558 556 l 1
 525 587 488 601 440 601 c 0
EndSplineSet
EndChar

StartChar: trademark
Encoding: 8482 8482 325
Width: 538
Flags: MW
HStem: 456 203<76 348 76 348 228 348 264 284 264 412 420 468> 460 52<359 359 359 378 321 359> 617 43<39 104 32 240 160 233 160 160>
VStem: 314.5 39
LayerCount: 2
Fore
SplineSet
160 617 m 1x30
 132 456 l 1
 76 456 l 1
 104 617 l 1
 32 617 l 1
 39 660 l 1
 240 660 l 1
 233 617 l 1
 160 617 l 1x30
504 659 m 1x90
 468 456 l 1
 412 456 l 1
 439 598 l 1x90
 378 460 l 1
 321 460 l 1
 308 597 l 1
 284 456 l 1
 228 456 l 1
 264 659 l 1
 348 659 l 1
 359 512 l 1x70
 420 659 l 1
 504 659 l 1x90
EndSplineSet
EndChar

StartChar: partialdiff
Encoding: 8706 8706 304
Width: 625
Flags: MW
HStem: -14 102<251.5 321 251.5 392.5> 402 103<276.5 352.5> 656 102<324 374.5>
VStem: 40 147<162.5 251 162.5 278> 452 143<486 545.5>
LayerCount: 2
Fore
SplineSet
365 758 m 0
 527 758 595 653 595 487 c 0
 595 251 520 -14 265 -14 c 0
 132 -14 40 52 40 200 c 0
 40 356 124 505 321 505 c 0
 394 505 432 480 450 444 c 1
 451 462 452 478 452 494 c 0
 452 597 419 656 330 656 c 0
 275 656 233 641 186 610 c 1
 154 697 l 1
 225 740 283 758 365 758 c 0
280 88 m 0
 362 88 413 186 436 331 c 1
 420 384 380 402 325 402 c 0
 228 402 187 303 187 199 c 0
 187 126 223 88 280 88 c 0
EndSplineSet
EndChar

StartChar: emptyset
Encoding: 8709 8709 292
Width: 838
Flags: MW
HStem: -44 79<384 504.5 384 528> 675 79<333.5 457> 717 20G<755 755>
VStem: 23 88<317 445 317 467> 727 88<264.5 389.5>
LayerCount: 2
Fore
SplineSet
812 680 m 1xb8
 732 600 l 1
 784 533 815 448 815 355 c 0
 815 131 637 -44 419 -44 c 0
 326 -44 241 -12 173 41 c 1
 83 -49 l 1
 26 8 l 1
 115 97 l 1
 58 166 23 256 23 355 c 0
 23 579 201 754 419 754 c 0
 517 754 607 718 677 659 c 1xd8
 755 737 l 1
 812 680 l 1xb8
111 355 m 0
 111 279 135 211 175 157 c 1
 618 600 l 1
 565 647 495 675 419 675 c 0
 248 675 111 535 111 355 c 0
419 35 m 0
 590 35 727 174 727 355 c 0
 727 424 707 488 672 540 c 1
 232 100 l 1
 284 59 349 35 419 35 c 0
EndSplineSet
EndChar

StartChar: product
Encoding: 8719 8719 309
Width: 625
Flags: MW
HStem: 582 108<92 132 72 649 270 433 270 270 571 629 571 571>
VStem: 9 640
LayerCount: 2
Fore
SplineSet
629 582 m 1
 571 582 l 1
 448 -110 l 1
 310 -110 l 1
 433 582 l 1
 270 582 l 1
 147 -110 l 1
 9 -110 l 1
 132 582 l 1
 72 582 l 1
 92 690 l 1
 649 690 l 1
 629 582 l 1
EndSplineSet
EndChar

StartChar: summation
Encoding: 8721 8721 311
Width: 625
Flags: MW
HStem: -110 108<143 491> 582 108<272 607 272 272>
VStem: -37 664
LayerCount: 2
Fore
SplineSet
607 582 m 1
 272 582 l 1
 450 297 l 1
 143 -2 l 1
 511 -2 l 1
 491 -110 l 1
 -37 -110 l 1
 -18 -9 l 1
 295 301 l 1
 117 589 l 1
 136 690 l 1
 627 690 l 1
 607 582 l 1
EndSplineSet
EndChar

StartChar: minus
Encoding: 8722 8722 301
Width: 625
Flags: MW
HStem: 279 78<100 524 87 537>
VStem: 87 450<279 357>
LayerCount: 2
Fore
SplineSet
524 279 m 1
 87 279 l 1
 100 357 l 1
 537 357 l 1
 524 279 l 1
EndSplineSet
EndChar

StartChar: radical
Encoding: 8730 8730 310
Width: 625
Flags: MW
HStem: 236 74<55 117 42 196>
VStem: 42 625<236 780>
LayerCount: 2
Fore
SplineSet
667 780 m 1
 281 -160 l 1
 174 -160 l 1
 117 236 l 1
 42 236 l 1
 55 310 l 1
 196 310 l 1
 243 -66 l 1
 581 780 l 1
 667 780 l 1
EndSplineSet
EndChar

StartChar: infinity
Encoding: 8734 8734 296
Width: 1017
Flags: MW
HStem: -14 97<239.5 294 662 747.5> 447 97<272 357.5 725.5 780>
VStem: 25 147<182 271 182 297> 430 161<265 265> 845 147<259 347.5>
LayerCount: 2
Fore
SplineSet
774 544 m 0
 914 544 992 454 992 307 c 0
 992 159 899 -14 691 -14 c 0
 588 -14 515 24 480 120 c 1
 413 24 343 -14 245 -14 c 0
 106 -14 25 76 25 223 c 0
 25 371 119 544 329 544 c 0
 432 544 507 507 542 411 c 1
 608 507 677 544 774 544 c 0
430 265 m 1
 432 398 391 447 324 447 c 0
 220 447 172 314 172 228 c 0
 172 136 208 83 271 83 c 0
 329 83 393 133 430 265 c 1
696 83 m 0
 799 83 845 216 845 302 c 0
 845 393 811 447 749 447 c 0
 691 447 627 397 591 265 c 1
 588 132 628 83 696 83 c 0
EndSplineSet
EndChar

StartChar: integral
Encoding: 8747 8747 297
Width: 625
Flags: MW
HStem: -160 78<178.5 230 178.5 255> 676 78<401 452.5>
VStem: 253 88<482 554.5 482 576> 290 88<39.5 112>
LayerCount: 2
Fore
SplineSet
445 754 m 0xe0
 480 754 505 749 528 732 c 1
 499 658 l 1
 481 672 465 676 440 676 c 0
 362 676 341 599 341 510 c 0xe0
 341 454 347 397 360 304 c 0
 372 218 378 158 378 86 c 0
 378 -50 324 -160 186 -160 c 0
 151 -160 126 -155 103 -138 c 1
 131 -64 l 1
 150 -78 166 -82 191 -82 c 0
 269 -82 290 -5 290 84 c 0xd0
 290 140 284 197 271 290 c 0
 258 376 253 436 253 508 c 0
 253 644 307 754 445 754 c 0xe0
EndSplineSet
EndChar

StartChar: approxequal
Encoding: 8776 8776 289
Width: 599
Flags: MW
HStem: 127 85<379 402> 203 85<165.5 189> 309 85<410.5 434.5> 385 85<197.5 221>
VStem: 45 510<207 392>
LayerCount: 2
Fore
SplineSet
224 470 m 0x98
 264 470 287 457 336 429 c 0
 378 404 398 394 423 394 c 0
 456 394 482 409 511 441 c 1
 555 392 l 1
 507 331 461 309 408 309 c 0xa8
 367 309 344 321 295 350 c 0
 253 375 234 385 208 385 c 0
 176 385 149 370 120 337 c 1
 77 389 l 1
 125 449 171 470 224 470 c 0x98
192 288 m 0x68
 232 288 256 275 304 247 c 0
 346 222 366 212 392 212 c 0
 424 212 450 227 479 259 c 1
 522 210 l 1
 474 149 429 127 375 127 c 0xa8
 335 127 312 139 263 168 c 0
 221 193 202 203 176 203 c 0
 144 203 118 188 88 155 c 1
 45 207 l 1
 93 267 139 288 192 288 c 0x68
EndSplineSet
EndChar

StartChar: notequal
Encoding: 8800 8800 303
Width: 625
Flags: MW
HStem: 179 74<74 163 61 216 303 519 74 251> 379 74<109 304 96 357 444 555 109 392>
VStem: 61 506<179 453>
LayerCount: 2
Fore
SplineSet
392 379 m 1
 303 253 l 1
 532 253 l 1
 519 179 l 1
 251 179 l 1
 180 79 l 1
 93 79 l 1
 163 179 l 1
 61 179 l 1
 74 253 l 1
 216 253 l 1
 304 379 l 1
 96 379 l 1
 109 453 l 1
 357 453 l 1
 427 553 l 1
 515 553 l 1
 444 453 l 1
 567 453 l 1
 555 379 l 1
 392 379 l 1
EndSplineSet
EndChar

StartChar: lessequal
Encoding: 8804 8804 299
Width: 625
Flags: MW
HStem: 0 78<65 482 51 496>
VStem: 51 522<0 517>
LayerCount: 2
Fore
SplineSet
557 425 m 1
 189 313 l 1
 517 200 l 1
 502 112 l 1
 97 262 l 1
 116 367 l 1
 573 517 l 1
 557 425 l 1
65 78 m 1
 496 78 l 1
 482 0 l 1
 51 0 l 1
 65 78 l 1
EndSplineSet
EndChar

StartChar: greaterequal
Encoding: 8805 8805 295
Width: 625
Flags: MW
HStem: 0 78<56 468 42 481>
VStem: 42 491<0 367>
LayerCount: 2
Fore
SplineSet
533 367 m 1
 514 262 l 1
 62 112 l 1
 78 205 l 1
 441 316 l 1
 118 430 l 1
 133 517 l 1
 533 367 l 1
56 78 m 1
 481 78 l 1
 468 0 l 1
 42 0 l 1
 56 78 l 1
EndSplineSet
EndChar

StartChar: lozenge
Encoding: 9674 9674 312
Width: 535
Flags: MW
HStem: 0 21G<150 263 150 150> 0 89<222 222 222 263 150 222> 601 89<313 313> 670 20G<272 385 385 385>
VStem: 49 437<345 345>
LayerCount: 2
Fore
SplineSet
486 345 m 1x98
 263 0 l 1
 150 0 l 1
 49 345 l 1
 272 690 l 1
 385 690 l 1
 486 345 l 1x98
383 345 m 1
 313 601 l 1
 152 345 l 1
 222 89 l 1x68
 383 345 l 1
EndSplineSet
EndChar

StartChar: fi
Encoding: 64257 64257 231
Width: 581
GlyphClass: 3
Flags: MW
HStem: 0 21G<23 161 23 23 334 471 334 334> 437 91<68 99 53 115 254 410> 654.51 92.49
VStem: 23 541<0 528>
LayerCount: 2
Fore
SplineSet
564 528 m 1
 471 0 l 1
 334 0 l 1
 410 437 l 1
 238 437 l 1
 161 0 l 1
 23 0 l 1
 99 437 l 1
 53 437 l 1
 68 528 l 1
 115 528 l 1
 117 537 l 2
 120 555 125 579 130 597 c 0
 157 696 242 754 389 754 c 0
 421 754 442 751 465 747 c 1
 448 651 l 1
 332 665 282 641 266 587 c 0
 261 573 258 554 256 540 c 2
 254 528 l 1
 564 528 l 1
EndSplineSet
Ligature2: "'liga' Standard Ligatures in Latin lookup 4 subtable" f i
EndChar

StartChar: fl
Encoding: 64258 64258 232
Width: 603
GlyphClass: 3
Flags: MW
HStem: -7 21G<422 471.5> -7 94<422 552> 0 21G<22 160 22 22> 437 91<68 99 52 115 254 346> 657 97<352.5 399>
VStem: 352 145<39.5 127.5>
LayerCount: 2
Fore
SplineSet
497 121 m 0x5c
 497 94 513 85 552 87 c 1x5c
 536 -2 l 1
 512 -6 487 -7 456 -7 c 0
 388 -7 352 12 352 67 c 0x9c
 352 90 356 119 366 171 c 2
 451 650 l 1
 428 656 411 657 387 657 c 0
 318 657 278 630 265 587 c 0
 261 573 258 554 256 540 c 2
 254 528 l 1
 362 528 l 1
 346 437 l 1
 238 437 l 1
 160 0 l 1
 22 0 l 1x3c
 99 437 l 1
 52 437 l 1
 68 528 l 1
 115 528 l 1
 117 537 l 2
 120 555 125 579 129 597 c 0
 156 696 237 754 411 754 c 0
 484 754 546 746 598 732 c 1
 603 732 l 1
 504 174 l 2
 500 150 497 134 497 121 c 0x5c
EndSplineSet
Ligature2: "'liga' Standard Ligatures in Latin lookup 4 subtable" f l
EndChar

StartChar: .notdef
Encoding: 65536 -1 0
Width: 570
Flags: MW
HStem: 0 50<150 490 150 570> 650 50<150 490 150 150>
LayerCount: 2
Fore
SplineSet
70 0 m 1
 70 700 l 1
 570 700 l 1
 570 0 l 1
 70 0 l 1
320 395 m 1
 490 650 l 1
 150 650 l 1
 320 395 l 1
350 350 m 1
 520 95 l 1
 520 605 l 1
 350 350 l 1
150 50 m 1
 490 50 l 1
 320 305 l 1
 150 50 l 1
120 605 m 1
 120 95 l 1
 290 350 l 1
 120 605 l 1
EndSplineSet
EndChar

StartChar: a.alt
Encoding: 65537 -1 230
Width: 648
GlyphClass: 2
Flags: MW
HStem: -14 97<242 254> 0 83 449 83 449 97<288.5 359 231 391>
VStem: 22 147<174 276.5 174 286>
LayerCount: 2
Fore
SplineSet
632 532 m 1xa8
 539 0 l 1
 401 0 l 1
 415 81 l 1x58
 365 23 l 1
 332 0 281 -14 227 -14 c 0
 94 -14 22 68 22 199 c 0
 22 373 125 546 337 546 c 0
 381 546 433 533 457 512 c 1
 481 457 l 1x98
 494 532 l 1
 632 532 l 1xa8
447 260 m 1
 452 286 l 1
 466 369 440 449 342 449 c 0
 235 449 169 336 169 217 c 0
 169 131 206 83 278 83 c 0x98
 354 83 424 131 447 260 c 1
EndSplineSet
EndChar

StartChar: braceleft.001
Encoding: 65538 -1 268
Width: 373
Flags: MW
HStem: -80 78<170 256 239 243> 702 78<362 363 363 381>
VStem: 90 83<19.5 33> 154 84<257 273.5> 198 81
LayerCount: 2
Fore
SplineSet
395 780 m 1xc8
 381 702 l 1
 363 702 l 2
 301 702 278 685 279 564 c 0xc8
 281 442 259 367 167 350 c 1
 214 341 238 315 238 273 c 0xd0
 238 241 231 205 204 136 c 0
 178 68 173 52 173 32 c 0
 173 7 193 -2 239 -2 c 2
 256 -2 l 1
 243 -80 l 1
 210 -80 l 2
 130 -80 90 -45 90 17 c 0xe8
 90 49 96 68 126 146 c 0
 148 203 154 238 154 260 c 0
 154 287 138 307 83 311 c 1xd0
 97 389 l 1
 176 395 199 419 198 554 c 0
 197 732 234 780 362 780 c 2
 395 780 l 1xc8
EndSplineSet
EndChar
